<mxfile host="Electron" modified="2023-10-15T08:09:24.167Z" agent="Mozilla/5.0 (Windows NT 10.0; Win64; x64) AppleWebKit/537.36 (KHTML, like Gecko) draw.io/22.0.2 Chrome/114.0.5735.289 Electron/25.8.4 Safari/537.36" etag="qloGIie0X6H2TDawW3ZV" version="22.0.2" type="device" pages="2">
  <diagram name="Page-1" id="N_LLk_Psl4GAhQMi-9GT">
    <mxGraphModel dx="1050" dy="621" grid="1" gridSize="10" guides="1" tooltips="1" connect="1" arrows="1" fold="1" page="1" pageScale="1" pageWidth="850" pageHeight="1100" math="0" shadow="0">
      <root>
        <mxCell id="0" />
        <mxCell id="1" parent="0" />
        <mxCell id="CW3rt94TnML0SQiwhQxe-16" style="edgeStyle=orthogonalEdgeStyle;rounded=1;orthogonalLoop=1;jettySize=auto;html=1;entryX=0.5;entryY=1;entryDx=0;entryDy=0;fillColor=#b0e3e6;strokeColor=#0e8088;strokeWidth=2;" edge="1" parent="1" target="CW3rt94TnML0SQiwhQxe-7">
          <mxGeometry relative="1" as="geometry">
            <mxPoint x="220" y="690" as="targetPoint" />
            <mxPoint x="310" y="700" as="sourcePoint" />
          </mxGeometry>
        </mxCell>
        <mxCell id="CW3rt94TnML0SQiwhQxe-17" value="" style="edgeStyle=orthogonalEdgeStyle;rounded=1;orthogonalLoop=1;jettySize=auto;html=1;fillColor=#b0e3e6;strokeColor=#0e8088;strokeWidth=2;" edge="1" parent="1" target="CW3rt94TnML0SQiwhQxe-8">
          <mxGeometry relative="1" as="geometry">
            <mxPoint x="330" y="660" as="sourcePoint" />
            <Array as="points">
              <mxPoint x="330" y="610" />
              <mxPoint x="405" y="610" />
            </Array>
          </mxGeometry>
        </mxCell>
        <mxCell id="CW3rt94TnML0SQiwhQxe-21" value="" style="edgeStyle=orthogonalEdgeStyle;rounded=1;orthogonalLoop=1;jettySize=auto;html=1;fillColor=#b0e3e6;strokeColor=#0e8088;strokeWidth=2;" edge="1" parent="1" target="CW3rt94TnML0SQiwhQxe-9">
          <mxGeometry relative="1" as="geometry">
            <mxPoint x="330" y="750" as="sourcePoint" />
          </mxGeometry>
        </mxCell>
        <mxCell id="CW3rt94TnML0SQiwhQxe-3" value="Customer" style="shape=umlActor;verticalLabelPosition=bottom;verticalAlign=top;html=1;outlineConnect=0;fillColor=#b0e3e6;strokeColor=#0e8088;fontStyle=1;fontColor=#009999;" vertex="1" parent="1">
          <mxGeometry x="320" y="670" width="30" height="60" as="geometry" />
        </mxCell>
        <mxCell id="CW3rt94TnML0SQiwhQxe-18" value="" style="edgeStyle=orthogonalEdgeStyle;rounded=1;orthogonalLoop=1;jettySize=auto;html=1;fillColor=#fad7ac;strokeColor=#b46504;strokeWidth=2;" edge="1" parent="1" target="CW3rt94TnML0SQiwhQxe-11">
          <mxGeometry relative="1" as="geometry">
            <mxPoint x="460" y="760" as="sourcePoint" />
            <Array as="points">
              <mxPoint x="460" y="770" />
              <mxPoint x="530" y="770" />
            </Array>
          </mxGeometry>
        </mxCell>
        <mxCell id="CW3rt94TnML0SQiwhQxe-19" style="edgeStyle=orthogonalEdgeStyle;rounded=1;orthogonalLoop=1;jettySize=auto;html=1;fillColor=#fad7ac;strokeColor=#b46504;strokeWidth=2;" edge="1" parent="1" target="CW3rt94TnML0SQiwhQxe-10">
          <mxGeometry relative="1" as="geometry">
            <mxPoint x="500" y="700" as="sourcePoint" />
          </mxGeometry>
        </mxCell>
        <mxCell id="CW3rt94TnML0SQiwhQxe-4" value="Employee" style="shape=umlActor;verticalLabelPosition=bottom;verticalAlign=top;html=1;outlineConnect=0;fillColor=#fad7ac;strokeColor=#b46504;fontStyle=1;fontColor=#FF8000;" vertex="1" parent="1">
          <mxGeometry x="450" y="670" width="30" height="60" as="geometry" />
        </mxCell>
        <mxCell id="CW3rt94TnML0SQiwhQxe-7" value="Reservation" style="rounded=1;whiteSpace=wrap;html=1;fillColor=#b0e3e6;strokeColor=#0e8088;fontStyle=1" vertex="1" parent="1">
          <mxGeometry x="150" y="610" width="120" height="40" as="geometry" />
        </mxCell>
        <mxCell id="CW3rt94TnML0SQiwhQxe-8" value="Search Reservation" style="rounded=1;whiteSpace=wrap;html=1;fillColor=#b0e3e6;strokeColor=#0e8088;fontStyle=1" vertex="1" parent="1">
          <mxGeometry x="345" y="512" width="120" height="40" as="geometry" />
        </mxCell>
        <mxCell id="CW3rt94TnML0SQiwhQxe-9" value="Payment" style="rounded=1;whiteSpace=wrap;html=1;fillColor=#b0e3e6;strokeColor=#0e8088;fontStyle=1" vertex="1" parent="1">
          <mxGeometry x="230" y="800" width="120" height="40" as="geometry" />
        </mxCell>
        <mxCell id="CW3rt94TnML0SQiwhQxe-10" value="Authentication" style="rounded=1;whiteSpace=wrap;html=1;fillColor=#fad7ac;strokeColor=#b46504;fontStyle=1" vertex="1" parent="1">
          <mxGeometry x="530" y="610" width="120" height="40" as="geometry" />
        </mxCell>
        <mxCell id="CW3rt94TnML0SQiwhQxe-11" value="View Reservations" style="rounded=1;whiteSpace=wrap;html=1;fillColor=#fad7ac;strokeColor=#b46504;fontStyle=1" vertex="1" parent="1">
          <mxGeometry x="470" y="800" width="120" height="40" as="geometry" />
        </mxCell>
      </root>
    </mxGraphModel>
  </diagram>
  <diagram id="7qrwYLBn1GplgruLnEEk" name="Page-2">
    <mxGraphModel dx="840" dy="497" grid="1" gridSize="10" guides="1" tooltips="1" connect="1" arrows="1" fold="1" page="1" pageScale="1" pageWidth="850" pageHeight="1100" math="0" shadow="0">
      <root>
        <mxCell id="0" />
        <mxCell id="1" parent="0" />
        <mxCell id="5J-S47VIE9dTWKWTMMJz-17" value="" style="shape=image;verticalLabelPosition=bottom;labelBackgroundColor=default;verticalAlign=top;aspect=fixed;imageAspect=0;image=data:image/png,iVBORw0KGgoAAAANSUhEUgAAAdUAAACbCAYAAAA0nAFfAAAAAXNSR0IArs4c6QAAAARnQU1BAACxjwv8YQUAAAAJcEhZcwAAEnQAABJ0Ad5mH3gAAACZaVRYdFNuaXBNZXRhZGF0YQAAAAAAeyJjbGlwUG9pbnRzIjpbeyJ4IjotNTc5LjgsInkiOi0zMTIuNjc0OTZ9LHsieCI6LTExMC43OTk5OSwieSI6LTMxMi42NzQ5Nn0seyJ4IjotMTEwLjc5OTk5LCJ5IjotMTUxLjY3NDk2fSx7IngiOi01NzkuOCwieSI6LTE1MS42NzQ5Nn1dfcKz8zkAAHDnSURBVHhe7Z0HeFVF2oDf5CY3vfeeAEkIEGroXUBBUewo9t531dVd/9Utuuuu7q7uWtZde0GqqBTpndDSeye9937T7k3+mZsbNkBAEFLA8/IMN+c7c8rMNzPfzJwpRq2trV1mZmYMJPv27cPR0ZHx48cbJAqXC42NjXR0dOj1pzC00el0VFVVYWdnh7m5uUF6+aGE48rhSo0DYUepr6/H2dn5gLFBpqCgoKCgoHCRKEZVQUFBQUHhEqEYVQUFBQUFhUvElW1UtU001ZSTmVVJs7aTToNYT5c4aqukML+csqomOgxiBQWFC6B3Piorp+Zs+U1h4Gmto64kk6ioKL3LLBHHrYZz54tSTl4wQ9iodtElFNrZebqT8v+5c9KQTPzeNTz7q42k1bXQYhDr0Ymj0o2897c1rNyUTJVBrHDx6HVzht56nNSbwaPCEMGgL6k3g6Sb7jx2Tn31zkcr17D3bPltQDC8r+FIjziW6e4M+ZBGvOspeabbnVMPfdBVGE74R79k6rRpTBPu2Y8Pc7jIcPJ86bOc7COeLzl9x8H5x4PhHQdB6UPTqEpFlmzk3SeWs3TyZCaf4p7hd//4gLUi8/7y+Y2kDkrmVegbnXAlHHr3CZ5Zerreut2C5U/w/MYS6lqkX4VBp6WYuoSPef6aeTz05+/ZlNTQLe/Jg2/KwjRp6Fc6ZThS1/D8L4Vhjy9GH4qaLCq3/55rF87mmY+EgSnU+xza9NLHgl75ZvbCa/n99kqyagz+fpQ0wrcnEBM3gpc3RXHoeBTvPjqb2T6G0z+VvuL5UnOWOJg8ebpw9/Ln7+PpSaZ9Mshpd2gaVdnl0F5FcaMzrmOu5s7HH+fxk24pC2ZNJXT4WK5dEoKLuSmmhssUBhuZnGzwn3Y9S+8RunrwVu5eEoiuPZDJC2/lHqG/B5Zfz5IQG8xNr+wvD5cNnW1oW2vIrreg6vguMuKjSKgX8p48WFhBeXXz0O/2k+HQVJB9ooLaJvF3cw4novfz3w/TcJl9B1PH+uNvZ/A7lNHro07ow4+xhjwj89Edsx1I+/D/+G5PIokVBr/nor6YoiINpe3ehM2dyMSwiYzwsMPuYmdPnh7PBvElpa840LvHhLuVeaPccTtXOAY57apeeeWVP5qYmBgOB4bc3FwsLCxwd3c3SE6jU0RDQxK7Y21FAb2Qux9extxJk5ikdyMIcFXR2dBESZUxXv6OWLQXkhl5hL3b9nE4Oo7o6DyarYTctI6agiLCE9XMXxaKi2hF5Zz0F0105DH2p1vgFhxI2ERvYQ4Ufoz29nZ9F4zU35kYCWeGvXcQI0KFrkZ7EejczIFYb258+BZuumkh00YNw9e6npx933GixYFOc3vszVtoby4gat0xyjtqyCosISU6nqKUfew7Ek1kVDT5oqDvsvHE1VKkjaZMju/az4H94RyNTiIxpZxOd2+szU0wU2z1SWT3l0aj0c8HPGse76hFU53Fpgh7xjqX0WRjTYmZP7O8RFVV5sGjHVg5muLq1E5cRI3QrT1mJiqM28opK8jh0LFy7G2KOBipw8Ye7IWL78lvlmrUhsdcDOcdjqoMNu2HcZPMaC9M5OjeDDLVE7j58fuZH+KCh0q8c1YMO7/dwRGR/6OisylvM0HtbI+VroLMPd/2nSbVtqhsrbG+yGLy/PVxQujDk+sNeWbW+BBG+9vSkLyP1Fp3zB3cCPTqRFeRzB4RlvDjEUREp5NTqsHY0wN7dSnpmzaydUsMMRV1aC0byMvrxLghmbSEY+zad1SUkb3KSXUzTSVClz+mXw8X/N2byN3xLd+JZr9GKwxrhwqt2hlv+/Nr2vzkONCX/ROEG4mfcwtV8ceJPpxCprGneLYak7Z80iMTiE0opNlRTfn+tfxwIIuCqjIaRSWgrKaB9IRa6ooOkRCXTkpBFzZ+tnRm7mG3KEf2h0eI+PjpZYlWq6WtrQ1LS8u8oW1U95bQJApwSxstdSUllOhdM20NaaQlRvHup6VMXOJDR+ph9m/YxPpNuzkSGy8yfzrVNgE42Yv71FVwNNFUZHJ/ulK3sn3Vd3y1/gBRKXHEJWaQ1eLLyLBQZihG9bw4t1E9jd4F3exghvk6YEEb7Y15RLz7KzY1hKByDmCMYw31hXt585ktaOyriBSJe/u6PZQUHWTnQZH5D+0kqcxUnBvJWD8NlYd+YN2qjfywN5zjMYkkJRXQ4DkOfzcbHK1MrvDRd+fP+RujTKEjK65Z7EK9SktmQSuTQwKwakli7zFhVK3q6GzJ5aNPy0R+G4WDNJZyvMKRcN76uICJs3TExHcb1ME1qmkiHPW4W+aSGlVAZqMfS/7wNIu81diZNlMnDGrklk18sWoL4XFxxEamUtxmjdrTmwDrMqLPliYDR+ExXFToLrKVd8GVg548o7JEbefD5EmmRG4rQ2dijJtfOxW7NvLplxvZHyEHIiVzokRUBHxCCPEoJuKTDUJ3iaQ2VlCZl0typQtexJAYuY9vthwmLkaUf4fiKXYdiYtNNU3Jx3jrx/Tr4YinfQWJq79gW3IxhUU5VHY5Yek1mql+loYAnJvzjoOKVDZtK8XeU0S6rpFqWfaXllNS14XaopzM7d+weeU+djaNZFaYHdqsXexcv5+9iXVYjfOg8tsP2ROdRZoIe2l5HmX1lWz/KpHqsl0iLEVkVjkSPM8Pk4jP+fKbXWzdF0FcZDyJsScoC5xOkKs1rhYqwwv9OL2N6tAuf/I3s/71h1lq+NDe7Z7lDx8fJl3voV24aL75axpNtrfwx+PHOX5kN8e/vxGbzBTiD/R8WO/x9wUpDaEs/yqSyGOHiNz0W+6ZPAw3vR+FgcECC8th3LhiKQX1daTnFdJVW01rUjw7Ft5CUKgvY9pqsDQbwcQ3Itl5SOjqqxeZLTS57eOPOFATwVsPn8D/jtf4t9T3/i/59q1JpH22nbSMfvrG83Nh5G0s8WlmXu3HvBvVRaPINpfP4B5BV5v4L5zVf91DAWO49tVnuNFTpDh92ZhO+LpEjocH8rRIN/tk2vnhKa5ybebY6khqRZq8/mxpcoxIk7byHoOIShggTy88yhtRlSdxLCqGT/+vhaVfbWKdDMuu1/nNzc7s/8c2chtHs/S3D3DLM89x6z3/YNPR/Rz76mEeeeavvPrOFo5L/+E7OP7vMKrL8zkmWnfnhy1eQVO49aXnmDj5Of768fesEhWRX8xxNpy/hGibhco+4a+P3cLVPWX/7AVMu/8TNibYMnb57dx2RxgdH68jquEEG1cfR+MWynWv/Zo7g4K48zePM/Oa53jmlc9Yt+4/vLXMEfuCz6nwf5rbXv+Kz9+6jakW9vjf+A/+vUbYDBkn2z9g7W88+H53PDlFtYYXuXCGtlH1v5E7fvc5O2RX7Un3Hn9+bDYh8rxOh2jOUNqyj1UfPsc9YWGETZ1N2A2v89U3x8gsr6Wytz+3a/AJm858/cUKg4ZatF/CZjA9vQSrtDyOVpeSFLOXBZNCcXdyALfhOIaMZ6ooENWyQAwJJcTXlvE12eRFZXGi/Qf++dyd3CT1PfsGFt77AYeOpJLdqEF+DlT46fiMm47viMlkr/6eQk0LFzoDY1CRH/jSYMJVHpS3FbNm1SFKhEg/JK6qgpqG4+wOf5PHRbqZLtPO4l/xp3dEZSxPtIBEmtSdNU0OsSU5G+porkokvvJL/m/JPK6WYbnqAR56aTXJaYXkd2j7HrxZdYhNf3+GW6X/6fMIe/xLwncn0lBTP/QGoplYiXz/KC9/sol9PWX/sYNEr3yUm8Z7YWcXSvCUMB65OZa/3XYvXzcGYTVhHnPPZt8N97tqyjDG9QzWMgxoeufx5Vwn4+TqO1nyfz9QGZ9FVXPLTy5LhrZRNXfCxTeIMRMmMOGkG46fu51o7wi6RD26vY1211BCr1nOI08+yZNPPc2Tz/6O1//6IHctHo0ol//nT+2AmbUt9ufXU6HQXxgJo2ozmfHDTqDqCudgRA1xB0cydaw9Lo6mYGqOqaU1NsKbkfxMa2mFhZkKK20rrSIftPrO4qrb7uNRqe+nn+MXL7zMP95awdWjPXHqfoLCT8TMdTyBwaEscdlHeEYbZZdT099YJBiXcYy5djm3zrDFv3E/r21Ip6GlAzo60Nr64j7tRh6W6Ua6X/4fv3v1SZ57ZBYBIk2anDVNnqWbciDpFFWDqkqqHSzptLUQecMO1ajF3PHQozwuw/KLF/n1b3/FX15byng7C4QJ+R+dogVfFc6G/+wgqsieUXfJ8D/Kkw8vZpooS2212qE3EM1Y1KYtPPAJHEVoT9k/fiwTgt1xtlKjUllh7+zCmBAbSjKyqdBZYGxtj93ZPu0a7mdnY46V7MZvq6QpZzfv/3EbJQ5hzLpPxMnj9/HQHbMYJbyqRUPsp85PuLw/PxmL17exxcZEhffwCUxf9jAPP9zjFjNvoi/6ikuPv6Yq2qtrqdAIO6vT0liUT6WmmSb9zRQGDtn89GT0bBfUbanE7Usi0+kGJnpZ4NjXp9rKcqq0xlR7+ODrZYuTcRcBExax6LYeXd8v3Dwm+joy2L10lz1mrrgPG8H8ORbk7IyhoLi2O3+0ddBVWU9DZ6e+QdhWX0ttZZm+hfNTC59LjkqkK2eR5wPDxPuPZY5/C7lbV7I1rpwyrVpUzMxwd/ZmzJKHufeBnrRzIzdcPUqkRpX4dwFpckCRg6ZyOP71bmqEIbEdE4ynqGg6q80ZMXcFN93VE5Y7uPvOKYywFGE1XKmnU2isKZ3I+EbanCZynfD70H13s3ymDx726u4u/gvRr65TGOl6NOKawevJqKe+to7sVDfmLF/I8JYyGk7kkifK9pPUNdHa1Eqz4fAUtI20Vmew66gO10lXc7OIk/tvX8rSCU76mQkX89njMjeqIhM5DWekbTGa7Eh27uheOUTvkvIo6FkBpMefRS2t+fHsOSj9RBMRmUKeiPg+I12h3/Gdcg0OGmNaspLQ3rWIIEvz7sFi7SJzl2aRKPQYLXW5I45MnQ1d8+cyeaQPM+xEgRcVyb69Bl1HxxKVWkJlfw3x/5mhdvbCbeq1+GXH09BQRa2JNZYmatxbsomNjyFCxHlkZDxJmQX6QlcUsUMOq4Awxk0K43aTnaz7Zi/hBcZYmDbhUBfJD5ujOH7ckHYSMskorEN+jZUF6VnT5EAiW6WaYvLTE4mT7xh1VLzvfjZ9dwL7wEBGTg0jwNGSUOMI9osyLzzcEJa4ZOKzRAvs9NWsjEQxr3bB0d9VtHDrqcuU/nuVfxeiX2MzVGoH3JozyUmPJVb4Kazrh3buGXHQ/c5RUankiUp2cUE8cUcT2B0fwiOvPs8N1uXUHDvCjoQKGkR4O2V428qoy4sjMjmDrIpWtJ29TKUMh5UbbiNdMWvJpyRVhDkqlpj4TEo6tPpROD+VIWxUjTAyks5weBrynLGRbMeHcdtvH2CMfQob7u8ZzCTcHX/h7c0pVPf298hoTBq+59dLpzF3yY38Nt6GjlZr3M/yDIWLRUas0KFxty7PwDmEgMDJLJgYwpwpnpjpP6AKKo4TvepFbhJ6nCl1ef8RisxC+cUvbiTIYR7PfvI0NvH/4e+3GXR9cgBDiTJQ6YLpS0cOWNvN5pnXRHyHemJsN4ZgUZA/cnMMby1fwhIR53e/9T3bKj0ZJa4zPZlXu51xX7rud04Phy1e4+Zy66vPMXrDC3z2ZT61oxdz3TInYp6expI5hrRzw7M89f4hSsUV+hbZ2dLkgCHeXduMUcYnvHFykM5ylt27B4s3NnDfPXIBBx9GhF3HE2/fTPW7y3lyiSEsi1aw5IVNJBoWxOnWh/hDJdqtnjeyaHgMJ77vHvh5Svl33voV97LwwnLYNay4/hC7/nE3Tz37Nu8futRfZPuKA+lmC3c/f9m4jv++/QkbPj+I2Wu/YrLdPB7Vl+2pfCniKEaEt0OG96pCKo68wC/ueJIXvyuiobXTkDYEMhy+C1kxYhWr/9D9jBue/APvFQXg22mKbY+/n8DQ3E9VTt7tqKW4vBNTS0scnKxOXeBB10xzo4ayGmM8fB0w72qktryKisqG/3VHyO+xThZYq6G6x197jfBTTWmNRmQ+UXO1t8dIa4a9vc2Zz1DokwvaT7WzHW1rPQWixHJ0t8NGfgsxnNKTtoq312ZwuGkkr/51BSPl59SyzXz6eTwHM2xZ/uxc/chslSggHT2ccRH3sOxJGwUV1DW2dtcojcRdLVzx8XbE4fRn/Iw5r70rz6ajLmFimsrJEXlHbW2Di2iuaWuKyKloQavrQi3ypamZNSqdGg8PkceqQRYjcgzayfxmYnxJau0/PRxadB0NlGcU02LrIfK5WpQBdRQVVuuNjr7dorbFxt4ZXy87ff436itN/vTy9RTOOxwtNRTkVIgWZ893PRUq0Zp0HeaLo4UJahmpfflTmWNi7do9DUeWibXtaDrUuBnC1lKVQ2V1PaL4O6P8szsf/RrKYhNdh0gaGZTWdtBh7oK9sxteZ/2YeSo/PQ4kequOk48jpq0atBodKo9huFmLoLdUUVbZQoPOAo9hzgjRyfDWa4XebeygTY2rp/3JNN7VKxzNoiBRicTbl7/zofd+qsom5QoXxKXcpDz/mydZm+VCVeCD/P42P31GMCoVRvXrHGIrh/Hi327AW8iGwDCRy5LzKsAuAwYyHH2mye5TF82Voo+L4UqNA2WTcoUhgZFrKGFTp7B0qp/+u5W+8LL0J2T8WGZP89fLlASqMJD0mSYVFC4ApaWqcEFcypaqQv+itFSHFkpLVWmpKigoKCgoKFwAilFVUFBQUFC4RBgdOnSoSyUnTQ8gcmF82fRXuhAvP2TXr1xQf6A/GShcOHLxctktpVarGeg8filRwnHlcKXGgezWlkyZMuWA0eHDhwfcqBYXF+sLZWfnfliIWUFBQWEIk5WVRV1dneGof7G3tycwMNBwpNCfyIrCmDFjlCk1CgoKCgPJ6tWryczMNBz1L0FBQaxYscJwpNDfiJa4MlBJQUFBYbA4ucKPoHvVou7j3nJJb3lf506XKQweilFVUFBQGAT8/Py4++67sbLq3lNm0qRJXHPNNfpjKZfnJb39yfPSX2/6kikMHopRVVBQUBgE5Gc3X19fFi9ejJubG9bW1jg4OGBsbIyrq+vJwYDyVx5LuTwv/fWmL5nC4NGnUZWjO7VarX5EkxytpaCgoKDQP8jydsSIEXh66nd/VrjM6dOoSmPa0NBAbm6ufvizVHq/IRdIb6ukMD2J+MhIIvVObj2UQm5lI00Xu5dXZxvapmIy42JIza2ksueGPc/NL6O00rBFnMKF01FLZWkZ+YW1J7fPOivaJhprysjMrKT59O2pFPqfC8gLXZ1aIcokPSnWkCcjiYqJI6VY6LBtkDXXKxyxJ8uMBGLjC6nu0NEh02R+Bkknz0mXREZ+JbXdgTutzOl1bfcTBgxZvu7Zs0ff0nR3dzdIFS5nztr9m52dzQcffKCfU9rW1tZ/hlXXAqUbee+pFSybPp0ZM2YIN1e4+/nLd/Ek1Xdd1IaxtBRTl/gpLyxZyMOvf8fmpPru+/U8929r+Xpzsn7fQIWfQNVhtqxax9/fP/y/7bPORkMyCXvX8uwLG0kzbE+lMICcd17oQtdcQ9H3L/L0XdcY8uQM5i66lvs/jie+SMOgdmD1CsfV07vfbcaMm1h8/XtsK2+gpvIQm99+luXTesoT6Zbz7FubOVQhyhN9eDfz/jN36cucadNuZPEN/2anqFDUGh4x0OzcuZPY2FjDkbD7IoJ7BiBJ17vHsLe8h75kCoPDWY2qrEFJw/rJJ5+Qmpra/y1W/xtZ/rsv2BEdTXTEPqI334LNrgMcWBtOusHLT8bEHEKW4Jmzj+K4/RxULOilw3kOy+5dwUu/nIPsvPp5Tmm/jDiPvNBSnEDyupe4f+dYrv7tSvbJPBm9i90bnmPyd8/xyefb2SQM8qBiYiXC8Rgvf7qp+/12/ZN1z7fw7qsbORBfTL3bDMLufZvN4lyEPL/jFyykmH2vrydaZUG754388k9P8egvnue2e19k5fZfcLWLNUNhOZrm5ma+/vprQkJCeOyxx/S/8ljKJXJQkpSfPsjpdJnC4KB65ZVX/mhicurmWtJ4FhQU6Lsl5CLB0skakJxILD+ayw/mF4PsVrawsOju7ujsEC2YJHZHmuAychwLrw0j0MMJd48G4tfk0+nogt+8YDw726D6KN988ClffLaK9Zv3sHv/CbQjRuNopcaqLYes45v54E/vs3rzZjYJtzk8m8zKVrzdGth52JZZozRUW9qQ2ebG1SMsu597tAMrD2/GjjbDKG8vH4rrV234jm83J5CUr8N1agB24p0VY3EWmtKJicohIaUYB9scvvoyh8LEL9m1bRWfrtzMjr0HKXWYiqtdG1XRW9m5di1bopLJSjtKaqMTZrbO+DmoDTdT6Fc6atFUZ7JJ5IWZZ80LahxVRYS/d4z2xQ9y46LJTAn2w9vdA3cXFzxUBcTlW2Hu4MLIEBcGZUl0fTiyRDismb1sFtOmhBDgYYGNdQ3h7+bhNx4qW63QGg3jxnvmEiTKGU93DcXHiyk5ocNvxVR8VJY4qErIytVRb+THDXeF4aoyHpBtBpOSkqiurtaPW6msrKS8vFxf5soewYqKCmpqavQGVK5eJhefLywspKioSN9abWlp0fceygV0pJP+m5qazpD1NICcnJwIDQ3V/60wIOSd0zpKJUqFxcTE6A1sRESEfiUQmRj6dQCTTBANddQKY6m1ssCKFtqbczm+8hgnihvQqNWojVrR1aWya3siOWXZZETvI3zjLqIrRQGtEuc7islOSeNYVAFNokHeiS1+U2bj7yASa9oORP6i/WRfZT3V+TEc/HIVR/I6aNSp6aw9QVbCQVYKj5r/eVQ4HU0BmUkpHDuWQlV5HDu//oL9cSKDa4QOdI10FESwelsCaWUNtIvKmLHKRFTKVJiaqjE1MUal9FYNMDLLnyMvtJVTLQry+MoRXHPVKEa429A9BtUctaU/k+9cgK9GXFdYTqVePjTQtrfTWFeDVl8u9ZGomptoEjXjRntrEfo+fQw4srGSnJysN56S0tJSfe9gD/LvuLi4PmXS9Vzbl0xh8DivJqesHcXHx7N9+3YSExP1tShZE7qkhrVF1NhyU4mTAwcioonck06JvytmQe44d9bTXBXD6r8n0u4zhavuv5/777mWG+dZkbh2PxlZRzlwKIrIJHPm/O4D/vHeB3zwxhPcPX8Up3z6953L7GFmTNOGs+pQBbVtnd3fALUlFKRHs2FlLiMeepWX3v6Af/3uGhaMKGPdx5GUNbUrA5nOB9nrUB2PUdAdLH1S6ODvv+e1+6dSJPRZWN6B6/jJTLv+VkaH3sVLf/8XL901ixkBSlfVoHC2vCDydmtHF1X+oQS5qbHp3YkgKkM4OeNUq8G4rlFURQeRTvG2mmLy0hL1g5WOHozg0J5EqmcGYu9mi117PQ2lmSSIc1GyTNmfQo7KlK7JAYP+mUK2Hr28vAbEyWcpDCzn3Y8rW6dyzcovvvhC32XRLmqGl9So5m/mm78+wg1yUMGCG5n2njmzll3DIzeMwblFg640m7zObbz34r0sl36uupVrH/qIoxGZ5OXmk2cegvGEZdwSBhbn6E30GTsd3xGTyV27kYLmFlpkEBqE0W6zpnzsI9w4zRpvB1GX9x1GgKMPw3ccJ6G1bdAGMFxWmAoDOfIR5k0exlgfcWxhgamXDyNVKv2GzwpDiz7zggEjkbfPnb0Hua2nbYb0T3jz8VtZLMqDqx78G/+Xspi//WU5i8d5YVtxnJhVv+EWcW72jOlM+0MmDT6zeO2Zwf/2LxdreOSRRwbEyWcpDCznbVTld9fg4GAeeughXFxc9IsHX+y31VPoGagUvok9Hz7MnPIa2ho1/6sNnz4wQe8OC/caj460RV1fS57B6zmxG0NwyCiemnaInfFtFNUY5AoKPzf6ygt29liZGeGZEk5MQRs1vYdo67RQUkSJaAnq3OxxMYgHhdPLg33r2fXPGxlnb4GFPN8zUCkinIjNL3OvizXm5bVDqsta4crkvKyiqakpY8eOZcmSJXIVfv3osktqUCXmTrj4BDJ68hymLbiNlx9QkbJpD99tTiDfzByVoz0eVdE0dNhh7jlevxj/+PFjhfPDPSSQAKMO3PKySK0SldhzDVJWWWHvG0DoVWOp/3Y7+fkl1FpZY2GqwfHEZg4lt1DZCM3lJZQ0VFA8bQyBalP9dxiFS4Cmlc78Ciq1Ov28VoVBpK+8oPLE3dufOTMq2LD2AAl5lXSPOW1E0xDLhldXk2NsgaWfF4O6x5TsirZwx3tECGNkWRA6kjEBTliZGHcXaqY22LgGMGriZMbNvosnV7ihLorl8/f26WcTKJ9zFPqLc1pGOeLXxsaGCRMmsGDBAiZPnoydnZ2+1dpv86FMbDB3C2XR3bMJNM4mbftG1m1LJkcdwsI55lRFb+eb/3ygn0P7wYef8MGGaFI7fBgT4kaoOpVV4tx/5bkvt7M/qaDPblsTGzecQhYxw02LiZmWJjM33P0CuGpSK3Hrv2SluMd/Pj/MsXxzJt09FT8rs8EZ5XilIeLZ3t6OILODbP36YzYcSCWtXDGtg8kZeUFUHx19xzD9zqsIajjEoe8+5z8yP33wHz75Yh0HqoczcrKozI50xdJwjyGNkQnYBDPl2ulM8Gul9vAmPvtsM9GZsezcfpyoY0dIjgvnmy+PcaK5XZk7rXDRnHVKjRyaLUf9ypbpDTfcwMSJE/UG9VLsvXrKlJouHbSWkV5gjoufN8HBIrMamyJyOkE22RRnZhKbZYLvnOtYMtue/KPhRBw8wNGEBBKSMkiocmHU2FDCRlqg0p5g7dqtJCeKczHxJNXZYjliFMumOopauDXjpg7Dx90WM/HPVOVIiL+WzA4vfIaPYd7UkYweaUbs+u+IiI3STxuwDbiKp385Gx9TY2VKzdloK6eovAutylqkFetT41mnoV1TQ4qQjZUyH1+sTVqx1Gxhy64USs1G4S1kwa7KhucDwun66DMvBDBlwkg8fMYwyfgwe/cdYc+BSBIS0sgqaGfU0+9w96KRjPMYxGlQfYajFz1pUu3ChKl+yFVxje388bJvwqw+me+35OEeYkrs9miys/Oob2ujKNeCUUtDcbdUd3cfKyj8NPL63E9VDslOEEZr7dq1PPXUU3h4eOjnp16q1mm/7Kfa1UVnlxyRbDiO/Q9/OtxBnNlcNj050SBUUFBQUFDoH7rOtZ+qv7+/flCS3D1BDkoa6stfFYR/yEfPhBEWZnB3h1PY5Mujt480+FBQUFBQUOhf+mypyu5fuai+/JWDlC71oKT+aKk2FMSRnRZLbJFBgDcjJoYweoLv4A6oUFBQUFD4WSBbqkaNjY1dA90KPXLkiH5/wEva/augoKCgoDCI6I1qTU1Nl2yVDiRRUVG4u3sQOlYxqpcbstNCVsF0/bi3gsKlQdaVVUJfUleXcp2WgeZKC0dlVTWtLQMzztjM3BxHx6HTV3el6PJ0esKlN6p9df/2N7L718LageBR4wwShcsFC7URJiLxNLZeQTniCsVYZHRbS2Oa27ro0F6++rrSwvHVytWkpWcYpP3LiMAgbrntTsPR4HOl6PJ0TE2MsDHXb9F39oFKCgoKCgoKCheGYlQVFBQUBgE5T1+uzWtu3r20jFwGdurUqfpjKdfP4xf09ifPS3+96UumMHgoRlVBQUFhELC1tdWvVidXqpN7Vcv1AIYNG6afcSEX3ZHne/zJYymX56W/3vQlUxg8FKOqcOnpqKWqrIyCwlraxaHy9VVBoW+koRw1ahQBAQEnjajC5c0QMaqddOp06LRa/RZzPU7X+WPbT/VG+pXzazuVQnywqQ5n+9p1vPffcMrE4bkHCit6GzhEDPfE9cmM1SPrnpfe2XlmPtTnRf010vuZefXC8qlCbzQaDatXr9Z338pWq8Llz+AbVV0LlG7iv88uZ/mcySzo5V76PJxjxQZ/P0ZDMsn71/B/L20io66FVoNYYYij6G3gqD1B1f43ue35r/khsYRGKWstoT75C16+4Qk+/Pxd/vGnX3DfaflwwZylPPjsu/xQ3EJL8al59Zoli3n880SSS5Wl6C+GHTt26NdaV7j8GQItVdGOaa+mXOOG+9il3PHEL3j0scd49PYJtB/5nF3fbya8wOD1XOiaaa6vIi+vmlZRqz5360hhyKDobeCwcMLMcwJTtavJzcslqxIay3NJO7CaHO9xuDiaYtpphZHbHG4V+fBhmRf17kFuu2Es/sSz7Y2d1DtOZea9Uv4Ad62YiqqoGl2jUh26GOrq6mhqatL/3drays6dO/VLxS5btkz/K4+lXCJbtVJ++iCn02UKg0Ofu9T0N3KXGlO1Bc4ucpeaDn1r5UCcLb6T53PrvdczfWwoY4M90BUnkleio8bImzGB5rRl7WbfgXDCjxwnLjaJ5LQyOt18sDZvpz7zCJF79rA/rghtZxlVHbaYGbegLY1j7/fbOR4bTWzsCSraTVA7uWAr2kTN4n57e+6XkkNamQo3b3vMTFTKx+azYKoy0s81a9caBJK2cspPRP8vnqOPcjxNtDqt/Jg9xw8jEc/7L5He7EwNz1T4UeSEdDNTIzp0culRITCxQGVpj6dGtIqKPPV+TGtT2Ls+Fos7f8Gi4RrqSqDZaiL3PncHM8dNYJxwY8eNJmi4FRbNKWz6XSzOy+9k3u1LWRg2ipCRfpi2WBPo74CNTf/Mdz8jHJcpPeFISEyiqqpav4Wm7HLPy8vTd6PL76vNzc0UFRVRUVGBg4MDlpaWwm8V8fHxer/SYHZ303fS3t5OYWHhyfv0lsn7SRydnBg1OlT/91DgStHl6ahEoWhmIgIHeUPHqB7vwNLdm9HjvbGWeyBa+BAUrKYyu57c1CZGzPOF2K9Yu2kfe8IjSY5LJC3hBGXDpjHCtRNN0l6ObN9GeFYxlaXZ1Fr7Y9VaSWP0TtZs2EZUUgJJsWmUtltj4uaFv1kZCSvfZuWuwxyIiiM5KY/kPBi7IBQnCzWDuLHVkOZMo9pMfXY4EVvW8smXe4nPSCA5NZ2sGius/UJZOMsL3aXSm8cwgtwt9BUeffJVOCd9FWDGQnmObrbE7k8XrdQ4qho0RKaEccszcwgyLyAzNp8T+Y04eJlQX1JMmXCllU00iZuYmbSQvimZrhBHsLNE1WWDq72XyKcu/WZQJVeqUZUGVJaFPQawpqaGkhJRqzEg/87KyupTJl3PtX3JelCM6sDQ26gO7QaZkysOrV3YFVZQYWGP83Vv8sYn29i+O5xt37zLR896sG1fPHnFxoTMXsTVD/6SydNe4v2N+/jghWAc0vKIPjqch4T/DfKadU8w06mZ6K/WcSJ7K+996srUB9/j071HWffOa7wYUIJGpVO+610Q6Rz/bgN7ttcx6Z/H+GbnMXZteJPnbp6GjzhrLPTmfqn0tv58Bj4pnBOVBbjfwPyAWBpT1rI9uZnAV54izNYae3m+KoL4Df/H/Ytmc71w10q34gX+76NUas1HM+maQ+z49wM88uRr/HFjmr4A1yoDlS4IWbGRm5QMhDMyUvrcBprBX6ZQ1wxFa/jDv5pxHj+V2++bhpvBn2iasvMvh4iLVzNzzQNMqdjBp39Zxb6YbCq1rXS0t5Pt9jj/fO12rg8qJeVABG+vtuK3/72TIA6x6R9f8PmXx6j2d8JS3M24o4HauuH4T5nNU3/1ZdeCPxNvNocZz93HHXdNwa+uFlxcMVepGNi2++XDGcsUVm9nzZcJxBS6c/ef72e0iGjT8s2sXJtLYmUAz7y2CC+htw8vhd6m3cbLKx9BjpFUehJ+HNmjcLYl4Voyv2D1hhMk1o/mgd/f+T+9rUzk6Albbnl6Hq7Cn75INrXB2t4JDxcLOiqzqKjXoilNJClyH//dkQNzf81f75rGjBGiBdsPnCsclxM94Sgpr6FJ02aQ9i9majPs7PXVpSHBlaLL0+m9TOHQ7P41+KM+lfiESgo0MGZ0NVve3EaF01iCZs1nzpRgRvtbUFrkyvQ5Ifg7N1OdV8yxJDWzl4bi1HGClNQGyo0Cue7eZcycPJWwqXOYNXce8+ZNZlRwIMN8Axk51Q2TkgRiv9nDnngdLlOGYW9uysBWMy4fzuj+bUgjPqWJig5P5i0Oxk6cM27KIDG5jvI6HWNGlLFB6K38Uuht7gRGBrjo04dS//5xztXVZtpRQEpGO1WtrqfqLU1DLQFce+cchru54S6cq7MD9tZmojKlQm3tgoOzkDk54OhshaVtFxWb6/CbPAwXPyesDPe/lFwpXYY94TA2NcfCwgorK+t+d0Nt0NKVosvTuQy6f0WMU0zqrnAKG9qxCPXFoSaT8KhOXCYsYum9D7D8xiUsCnVAbdorCG0ddFXV06DrRGtpLVpVprg5ehK04AFuW/EAd90j3Q1cM3s4bq2tdI5azJwbFzB7khdW9UWc2L+b9Ko2mv73SULhx5DxrNWgqiqluFFoTlQ+NZWl1NbXUK9tpE3o7cCl0tv8EH0vhqr7KoWBRNtAa3USu4/nUV7TAjY+eI2axq2LxuLR3kanVqtf6ENB4efO0DGqrRVU5KWQEBVBdNQx4fawd3c6LSaOhM6ZjLOVOx6BzqibcylKkX5iiEs8IVpIhsxsYqPvtnVoSCA+PpLEGlPM1RocGqPY9UMEkcflNcIlpJOZm0N95TG2bthL+P4Cmh0DCF46kymjzTFrF7UNxaieP7Ze+IjWimODKHAPiHiOEHEcncSJkioajM0wFnpzu1R6U1Zo6n/a62goyyRJxHmMPi9KF0dKShIFxTFsWLeZA/sOdsuPxRAfnUdTWDAOTnYo6wEpKAyVb6rF63j1mff4/lAqpXof8ovZaO7619usuGEGYQ6iMVNfStTb03n9+1JiC8HOx5cRc5ZAdgBP/OFGZk8LQJuylQPv3swrW8Dx1g946novRpRs4pVnPyNN3LFD3trzambdfBOvPWXB+vnP80NZDUVCbDdyHlMe/4h3b/XC0Ur5ono2+tz6LWcru775D/e8sVt/OHzBIuzNJhE6bDKPvDCJYqG3Ny6J3h7jX39aiqc4VFqrP845v1+V/8Cqdd3fvZ/uiVMp++eH/PvDXWR3+zLgTfCc67jrjyvgL7exKqqCjHopd8DGZQaPff0Rt49xxk9+AO8HrpTvcFfq98QL4UqNg97fVAffqHZ1ilKzjrLiSuqb2roLUP2ECXMcvDxxsLPCUpSgXboONJVZlMtBEqK5olKbYmYl6sbtapzd7bCyVNPV2kBTZR5lDeK8vTfOtsJPRz2lxTX6Eb16FeoHXdjh7mREXXYJDR06fetHZW6NpZM33vam+v5xhb7p06i2N9BYV01+uX6NHsxsbFAZWWBuZolT78EtF603J7zcbfWDyBQN/TjnLMC0DdTWttOiU+PSE6dSVllNVVUjpw6jMcXc2hYHd1G7Lc+jVqOlVX6hEVUblYkVTn7e2JuboO6nfi/FqF45KEa1n1A2Kb98UTYpv3xQjNHQQjGqPw+jOnS+qSooKCgoKFzmGDU3N3cN9JSaQ4cOYWPvTMjosQaJwuWCHDYuu8c17coSDEMdIyMjrM2MaGnv0i/QcLmihOPK4UqNAxNRJlqKcOm7fysrK7s6Orq/ZA4UcXFxeHp6Mn78eINEQUFB4eeBXKNXFL6Go/5FGjG5spLCwKA3qhqNZsBbqgcPHsTZ2VkxqgoKCj87tm/frl9EfyCQO9wsWbLEcKTQ3wzqQCVHR0fFqCooKPzskJuSZ2ZmGo76l6CgIFasWGE4UuhvlIFKCgoKCoOEvb29vmEht3yTeHl5ERgYqD+Wcnle0tufPC/99aYvmcLgoRhVBQUFhUHA1dWVq6++moCAAP0avdI4hoWF6f9esGCB/nyPP3ks5fK89NebvmQKg4diVBUUFBQGCbkJ+R133IGfn59+UJHC5Y9iVBUUFBQGCblR+ddff01ISAiTJk0ySBUuZwbfqHa2QdVB1v/9FX714IM82Mu9vSme+HKDP4WhSV0c4dt3sXJ9HFXi8JyzV5uzyYraxT/fPUhuU9tpS+Ep9DsNhdRFfc3zb+3gYFYlzVLWVknTia28+8u/sX7Ter746G1+e1o+fPDBX/HK39dzsELorOLUvPrIU7/k1U0nyKpUtPlTkNNrKisrSUxMpKhIrkKucLkzBIyqFpoyiY7IJD2vgS5LSyzNTbHU5hGz7Rt27Y0iqdLgV2HoYaRCZWqK2lT14+vxigK8PC+V3XsyqW7VKpsBDTRGxnTqOqiOXUVsZj759dBSnc+JwyvZmVFLdVUeJ1LTiRQ1Wa3Ih+YyL+qdBRZmWjo12Rz7cjsJJ+poMJZyUKkqiYsuorZGrtKs8FPJycmhrKxM/7dcNyA+Pl7/LXXy5Mn6X3ncs56AHJQk5acPcjpdpjA4DNom5RYWFri7uwujKhKK3DYswZ3R19zOc688yvLFC7l2hgulB7aQmNdOg2MoEwNM0VZmkZWdR3ZugajVlVFa3kiXjT1mplpaKwupLCunzsQZa5GmjI2aqRV+KorrabOywrgmixM5hmvLaihvNMLG3gJTYyNlcfaLwViNmZU9ri5W2KmbyM1pQlOXS2lxLidyiygpq6BF7YS5qY62siSSo+PYG9eEd6A5ncZWwhibYdVfK7ErnIqZLSo7TwJK3yeucTTG5g5Y1cSzf80Gqpb9jlvHCR1VW9DhvohX/vkcy6+9lqXCXXvtVcyZ6oaDJorPH9qPw31PcNuzj/HwTXOYN3s4jdkmhAY64ehoYXiQwrlISkqiuroaK1EuyamFaWlpeoMp/5bfVTMyMvRl5MiRIwkODkaj0bBnzx60Wq1+0Rw5x1+WnXJUcFZWFi4uLmfIegywk5MToaGh+r8VBoS8wZ+nqm2GotX8+u/NuEycxt0PTcPD4I/SzXz6dQ6xFQE8+8eZGK99lCffO8L+1Fpx0h5b5+k8tf4T7h2vpWr9m+wJz6Xu7o28PNMIe7NoNr/2LQfDOwn616+YfvARnv/oGAfT6jCyD8F5+tN88+kKxjtbYdX9NIWfQo+O8uCB++H3v9cxxuErUrLT2B3XhaW9G9e9dZxfX62iddubfPaP9/k4XbZwjBn54Ac8/8DNPDDV0XAzhX5Hn9/W8pt/NODs24WvXTOfv67h4eMvMcfoIFtWZhNd7sfzb1yPt/Cur26Lgt7IqJqm8mO8MXUvge89wIyl4wgyNlZ2dPoJKPNUr1yG/jxVZ1ccW7qwzyun3EK0hm56m/+s30d0dDTRuz5iw289+W53HDlFxoROnErQpGC2HY2itb0d0pJIt3Ikf/poFjZt4f0P3Zj79Ed8L67d9dHr/NG/gGYTLS2GRylcArRNIt4/otzvaW77i9TRGr7/v/lEb91BUkEbvvMWs/SJ55k5+xW+2hPOylduZlmoneFihQFBJVqTnjdxdUAU9QlfszGhmaA//YJpdtboqzYVR4le+StuCAtjqnByukbYtc/wxDuidWUxhilL9vLt3+7kpnte4bn1crdbBQWF3gztlioxbHn1ENExauZufJiZNcfZ9PluItJKqG2pQVNdxBbT+/jwDzdy08hyEnYd4813u3hxw4PYHXiR7cU+1AUu5cWgCF6a9xFFo69h/tO3snSOH9bZ2TB2LM5qNeaGpyn8BHq3VO9t5/e/SOGqF37J0msmMrIrk4rYtdz0N2uefPlGloyqIHXvcf6y0orXPltBiNJLMGhUH/8HX32bQWzrFO767SPMcwXzCqHLD8PZGtHO9NvH642svtZt5YXHsJFMH+tMc+IWYnM1VNY3UlNVTkpeA0xawS8Wj2a8j630rfAjyO+n9fX6Xd77HTs7O4YNG2Y4UuhvZEt16HxTPdqBlYc3Yyd6Y2PwR3MWCZGlFNQbMWo6JKzcQmR2I/WosRQVbmOVjsoqb+bMC2F4oCvGFeU0799I9czxFGw+JgqDYYQsnEuIkwnGLaJNamOGtqGU8hMF5NXa4xHigZ3aBOWz/kXQlEFcYi2ldTBhoor9ER7Mu3YcoYEOWOjqaWnIY/cBIybODmaYSzOVuUWEJ6qZvywUF0u10KTCYGCpqiI125Sadh+W3RyMvbCexlKX6TqarCfxyK/vYM6ECUwSbsLo4YzwtMNcZYqN5xiCRguZjxW2uhKiMtKJOwCjJvnj7WuvVFDPAwcHBzw8PAbEyWcpDCh5Q7T7V07MqKcsPpVSbSedI2yxKwjnk//mYD3rXp566z3eeeNl/vDgdPytegpmF5w8XZi4MJfkfVs4njwMldloRnvLkam+jH/mD7z099tZ6F1Dyoef8d5f1nKsUkOdsoPZwKLVicpSK61dXeeefqMwtOhsRdtcRnp+LY0aURF2GcOYxSt486VbmFlUJipPzciRDgoKP3eGjlHtEsZTp9WPWuvo0AgXxYa/rSQ9R8PwRXPwMLXAdOQMgn1EC9Oig8bKMvKijpDa3kaj4RYOXsMYv3A5ZX9/m9wRrlhPD2VkSymNud/zwYYs0gs8mXLv0zz7/pPcH1xIQ5WOVuWj6gBihFFTK10Z+RS2tNKoEzr/eW4rOXSRlZ2T+bDHadE2FVGT9S2/eecgsekV3fKGRtrKSskf6Y2lrSVK56+CwlAyqnkbWfunB1isHxwxR7h3yJz9HDe8+Ci3T/TC0ncRK0Z8xdevLGOB8HPtY6/wrwJ/vLUm/8vMFo6Y+c1k9phxLJo+jGG+dkJmASLD88kjPL9strjvAu75y7dEzX+RJQE2eCmzAAYOu1B8Q4O4bvJXvHHTPB7983dsShqYb0sK50lfA5XCruX251ayXTuSyXl/4i+PXd0tn30Py56NIuShJYQEe6EMOVNQGAoDlbq00JxD9OFUckpru1d5QSWcA0EzphDk74aLeD1du4aKxC3EyEESTWBmbY2dhw80WjN6oh8ebjaYNeRSlbCJ+/9ayLXPPci1c0bjb9ZKu6aYxC0R5GraEJdi5uCB26hZzBxmhbmJMiXgotAUkJnTRHWj3C1DbkAvfsf6dOtD20hrXSFHhGy4QdZVW0hx0h4i8sF82AzGBPkTJBWsMLD06K3VmtAwX/2AMSMpS0onObWYU6s6VjiIvBYUNlwoeB+ZlS3U6hdQMkNt4cboq2Yy3NEcm4EdmqGgMOS44vZTbck7QvqmP/PLgid44YGZLBzjhGijKigoKCgo9DtX3H6qrdouGjpNuemGGYzyUgyqgoKCgsLAom+pqtUDO7FBtlTl8lmXuqWqoKCgoKAwWOi7f6urq7t0Op1BNDDIFZHkHCrFqCooKCgoXCnojWpjY2OXsfHA9gIfOXIEe0cXRo0ZZ5AoXC6YqtCv99raocyFGerIIXgWaiPatF3oLuNJwVdaOI4cO05pafeONP2Nq5s7YZOnGo4GnytFl6ejEibU3NRocAcqWVg7EDxKMaqXGzJDmIgE1NiqGNWhjlzr3tbSmOa2LjpEIXa5cqWF46uVq0lLzzBI+5cRgUHcctudhqPB50rR5emYmhhhY95tVK+ogUoKCgoKlwtyqVa5lZtKJacQCmNja6vfwk0eS7k8L+ntT56X/nrTl0xh8FCMqoKCgsIg4OPjw5133omNjY1+H9WJEyeyaNEi/cbwUi7P9/Yn5fK89NebvmQKg4diVBUUFBQGCblR+d13342fn59BonC5oxhVSXM22TG7+eDfhyhoaqPdIFYYQvSbjuRoiSoSv/07//7PR/z3QH63eCCpiCfphw954cV32JbdSJWSAH82tLe362dDyM3ER44caZAqXM4M2tZvpmoLnF3coatDv31YxO49hO8/RERMFLEGV2HkitrKHrv+3k+qOZPMhHjWbK4lbJaKzOQqGjVG2DhbX/pt4foMb7xwteBih5W9JWcdNtZzbVQJNefzfppcMlILyMhrwcHbQb+bjxx9dzGYqoz0gw3atQbBQNGjoy2NhC0ZjYOl+pLopqujhabMzazbGUtWizN+gSGMl2tG66mkIL2I/BONWJ6MPyGLOcqxLTs4cIbeWmgXcR6zbiPhx45xPCafwqpObEe46RciMT7btWYamvPTiI+MJqbVBz8ve1ztzLjYXGkk9GRmakSHTlQdZN2hpRpNYTTfHK3B1NYKG2vxDG0DrZXJ7PsuimptDTnp8UTu2sOxXvkwNiaN3DINxu7u2LVlEN0r7cYnpZDf6YGDtTnWZv1TRz8jHJcpPeFISEyiqqpaP1d/xIgR7NixQ99idXNz0xvZzMxMJk2apP+tru72FxwcTExMjN74NjU1kZeXZ7grhIaGniHrwVFcO2p0qOFo8LlSdHk6ckaEWfeSt3mDb1Q7W6F8Ox//bSWbdoSTlJdBRnICqXH7yO0chYObL8Pd1frVgPuN1iKK8oo5lgizZ7USdaSGNmNrfANdueTr7fcZ3lRSjxfT5OmBvYczblZnCW+naMLURbN9dznN5/N+1eFs/yGeg3HtjF0QrN+n9mKLvUEzqj06SlIze2koTpfEqHbQ0VxC2pdvsdl4EWFXLeXhWT50dWppr8oiO+cQ2zclkpDcQbAh/lrK93D0+41sWrOPYxkpxB/MRjMsAGdvV1w7S6lI/4a1/9gs4jxOtEAyyatox2hSKEHWpnRU7u372qAxjPN3Z4JbCZ+vScBl+HA8PV2xu8hseUYBJsJan7aDP38RgaXfMDw8XLFsOkFp5Of8/V8JdDrUknjkAJtXbiGh6AQZKUmkCZeaUkh1mynOoX6YRG9g4/rt7DkcQWJaHKmZiSS3TWTcMCe8HPtnFsGVbFR7jKU0iHKwkfy+mpaWhpeXF42NjfrBSXJPVDlDQ8pla1ZOgWxubsba2hqNRsPo0aPPkHV1dY+sVYzqwNDbqA6d7l+f61n2qw9ZvfcIO0RNeceqX+NXW0xBYgo1iATSpUPb0U6HqMm1t3eg1XZKqZ6uTh06bYe+ltftOtB1dukTljyn1crz4lq5hZVOXnfa/XrkxuZ0uV3HA0/fws3XjMT+lGu7792h1aL734O7t8k6+dzue+mfbfByVnqHd/smdrztSvbBw2zemkz12cKrEibUbSkPntf7dYlEK66RcSOMhFZu1SVOGPLapUMfB/I9/qcP/bOFTCf3wpVH+uf/L46kHuQ7dp28Vhwb9NMdd+KfDJv0a7hG3r9nm7hOnTjuQx8Xng5qaWmKZtNXWsb6BhM2xlt/n86WOiq2/5aXH3uB177eQ4xeKukk8/vPKbH0YfqHR9j2w7d89asWkhNi2X+0kNrsFOJW/xftL1fy2ndH2PD+zSwJSefvH0bT0NR2jmuL6LL3xmr8Yu41W0NhVi4pxYZHXkrsR2Az6X5+E7SBqqIcUop01BbnELv7G3R3PMaMsCBGDpvK+Nve4EuRLrfJtKl33/PhP1Yw1+wYq547gOVVv+aVjVL+A+vW/I5JHRqsWkVlUeGC6b3wjsyv0kmjuGbNGgIDA3nggQf0v/JYyuX5cePG6eW33367fvBSXzKFwWPw56nqmqFoDX/4VzPO46dy+33TcGuvh9i3eGCXH6MmzOK5RVY0Z27lL7/5iqTaJhoZxahZy3jsH3cwRtyv8dDbfP3dTjYclxOqZfslkKUv/ZqlYSp0GUl8sr6JyT5fsSt6HIFLl7P87uG4976frgWNsQc6r1v5+DV7DmwzxssTUZOH709e20SeuL3b6LksePJd7hGVP+uGA/zw1XrWrD9CgQyYxPdmbr37Ju6+YSxOBtEp9BXerhbQ7OGdh2MxmjiVBc+Mwbuv8L65jDEVopW7sgWHc77fP8X7lRP3/vN8seEwB0vUuA/3J/jOf/LLJUGMvYj97s6Yp1ol4yCZhBJnlhj0oSaVI5/Ekp5uwtg/LcZt1+95a20csbkN4qwtVg4TuP3N11jsGE/sAdH6jDzBcMftrD9wFbf/+X6unmVO2+FtrH7hPxwSV8jiOnjyBJzcJ5BxWMO10zZzKE5D/mn6aDt+gengFlccIr/gxrctefj/7uS62UG4qQyVgPpiSjK3sW5rDUW6UF54fTFeJLDuwQ3UB4cx/pe3MU3ViDbrE175xBjPST5Mdmtm30uHCVr/BnN8HXCpPsiR/cd46wdnXn9nBJEvbqetz2tncvddE7FtKuXE5w/wufHjTJi+kDsnXtw0CdmjcPqcwK6OBjQp7/P39Q54jrBlmGUZa/6eyexVr7HI6jj7vs0jsTKAZ16/QYRX1MD1V0kqaCg9wttzdxHwljDA144nUCUqNCLvVFeJ59hZYG7ePz1efYXjcqQnHD3zVGW5K1umNTU1esMou4BNTU2pq6vT+7e3t0cuISsriKfLJPIaea1s4Z4uk78SZZ7qwNB7nurQ+KbakMyBTXuJPHaAI0f3sPuH7WzbnYvRmKuYMcUZ2+LDbH17FTkjljN9/lymeLWh6yhhX6Mvc/3tsDQ3x8J5OMNGhTF54ngmO5YQ2eqGmXEDtuVRbF67B+Npyxk/aRbTJ9mhKo9mX6/7zQvzws3elspqR66e2ULEEY1IpBrMu7LYd/LaucwcZol5p4bdJyyZObmR+M8/JybHFLMpt3D9wolMDuyiqNgOV28/xo73xtoQ3lPoCe/xDizdvRkt/Fm2a6iJWcN3UTpMAx3wMMvmSF/hbXBlrp14pwONGJ3z/ezE+3liTykl1ZZ02E7kpvtvZMb4sQS7W2Gl/ukdFGd0/xqpqDlxhPLKVCr9rmO0vTCqRQfYGV9OfJcP188XrSO1FbaeomIwbgqTR3kTZFPG5hpvxtoUUBxxgIiEYixm3cPsyWFMmuBIS9J24g9GUuB/JwsXTWfa9OmEjfbASpNP8sEjmM24o4/wumNrZYH1eaeDQNxNqqlL2MFesyUsnh5EiJul3ogYGRmjsrDH3qSUnGwN1RoHpi4YLqoD2USvKkbn5kfA/CA8jDtRWdWS+m0xJradGDuoyN/UxLBH5uBrZ461upnawiqyNxbit9yRnE1VqPu81gmPacNxEa1py7pYvi/xxNbRnakBF7dDaV9dbUbGKtS2niIJfk9BxmFSGhwwHn83Ny/ww6Mzm9TwwxzauYuImAPs+WET24XbdiSbE/VWDBvuhibpc46mR7E3vYFynStThrliJb/NyppWP3Gldv/KVmrvrlq58bto5Oj/lsi/ZZduXzLpeq7tS9aD0v07MAzN7l9jU0zNLUUGtcHaVjhXJ+w0IjFV55FfUiQysj0Tlt3OTXffx4rlM5jk00H6+ggKNO0y5WAtan0mTY00NdfT1FJKZlIGeQUVtMgC0twen8m3s/imhUwPNkN32v3uvO1aFk4NxEG+RvfbdHPKtcLf7dcxY5QXjampNNUmE5nSSofTJK6+R5xbcRd3LptOiLv9+e2OU5dKysENrPrwfT7+5DM+3SwK3PEhBI+2pPNs4V0nw9uGaNd2c7b3SztBk9Yc95AQfIInExgyn+tuX87VoS64WF/iCpSFDyNC3PDzbSc8uoi2dh1VadlobdS4zhyFu0qFrZs7VrILVq+fWuoaikg8nkZpTSNtopC3dAogaPZd3HLHbEId6ilLKSGrwo1J994nWv0iXHfdxzUzRevS+WzhzRTh1WJ6IelgrA+22g5aNI3YewmDbGmuH4h0QYh7YiXSqkiDxiKtntRLD2ozUQlRY1vTQHNnF6d8hj7tWo1epMLK0w91QzMddfV62SXHSOjfKpBJ4x0wF+9W2ejMzNsm4WOpRj8eULyDSlR4LUU+1OdF6URlxcLMGjNLPybdOZ/RQb54aMuoSPyBjz/9hI/3ZVJQfUboFc6CbD1OCpsyIG74iCDDUxUGiqFjVF2mi8z9HC//4x3e+NubvPHqAuzycsgPj6ekw4I6vyVMCbbASTT/LEQL19XaBbeYZPIai0mL28f+jetZt3ot3333Pd8dz6M2pxxdYzMNFh6oxbXTDdeiaaL1tPudldOvtbTCwtYeT1HDVJUWUWIzDpvhIzF8irswGkXtP2YPW79Zy8YtO9jfOIOF1y1gcagzpmcLb2waeR1a/Ubres72fuLPfh3YdRrOvqNw9gyhLC6CuvZKkjNbcLRwYN54F7QN+WSGb2bbhvV8s0boZ+tutseWYFxUjqZVVBDsQnAKEK3REaIGK+298F+ucaLRupesh7OGV7T62sopvJB0cCmQLYK2VtrUJnSZiUqhQXwS+b1XtD5bhcE2EzXZU3Ry2rV6gy7X4JaGtq0dlYib/vxK6RU6HSf/+SIuhp0az0IfI+Y+zG9EPvyrzIvSvfIEjywNxcXCjsDr/sRTLwvZQwu4xj6D9es+4Z3/7icxr6Zf3/dKYtyESSy8esmAuPHiWQoDy9Axqr2RqxO7eeJa2YhxdT01QmTUJQfcyCEsAtnqkf+62jAq38Knb+wk3fgqHl5/mO07d7Nt5QvcMt6/72+aGOmnlRjJQTI9vSTyfvp7ij+7JedGDi4oL6akRUOV/lqD/EKQA5We/y+r94h33rGT7f95gCVjPLE5+X59hFcUuvpzUna+iBv8pPe7ELzG4ucVyh2Fh8hsP8qxMl+6dMMItiqlPn0Df3xmH0bzX+Tl70VYt6xj7b8eYIqDVd/d46IFZ6QPdbd+zuvVdaKVVLaFTy4oHRgwEk/r7DzPOBLvZiw8Ghl0LtJBV2khZS426FwccBaKMTKW9zLoraGW5rZGCkXLzsXEFIuzXmvf/Y46rZAVUGxvTZuDHY5SNmQQLy0Hz8kBXjIAXjOZeu8rbPjyN9yakE5DRQ0lBp8KCj9nhqZRbW+H2KNE2ZpQNswfX7NGXJM/YmtkMyW1oqwqFC3YmkLyrp5OqLkZ9j7j8Rk2jJGiZNK1t1EeFU5mbRVVhtudgmjZWJoZ4ZEWTnxhGzWieq2/X1ocWeL0ec0UUZvBxOlMbizEIjuHtGqD/FKgf78fCa/B63lRWUtrYbm+wPvfOMNLjS0OzhaMHZ9B/GfhpFq7ow3w6zYUJiKugmYz0t8FH1tora2kKOoQ6UJPjfprT8NpFP62JTjVbmJzrPAvksJ5cyHpQGBuYYWzsyc5x2PIr6pBDqM6O7ItGUbIlAzRmkwjTfycfIZIT60OYwh0s2fcvB0kpLZS06O3ggxy/IfhrJrKxLNe221U5Te28uI8XKwtcbG/uO+pl5zWYupPfMPL74eTlC0Cp5e1oKsqJX+4JxY2FiIVKCgoDNGBSjvYtqMJu7nzmL1gMuNcrHBRFxO+bT/H9m1m154M8tsCmP3Ijcz196YjdycZCaK1t3MP+3bvJKm+jbxSVwJ9xTOEBUrqPbfRWI2ZrhUbTQyrdu/jyM7NxKRnkFknWgdNzlw9B5ITwU5cJ90p1/bMlUw2Z/bNswjqyif3RATf/vADh3duYdvO/RwttMd7TAiTLmCg0in+5PupjHDoK7wPLmaubQHHo7RYnuv9emQ29mhL4ihK/Zatx5PI1o7A09EKR8ufru++56kaozJqwqi9gM1fteGzYAZTpwXga2Um2jemNKV9TUzcYXZv30H48UjSmkwpLXVnVpiKpnqo1w8ECtYXysbG5liq6mmtymT76i0cPrCJ7ds2kZxfRH6DNSWFfenDjNk3zkRdso+c800H4llGJm1ojeqJ/zwa+7FjcPX1wFnYzk7Ruqw5/l8+Wfkd3+86TkZmPJnp8dQ4zMY/oJ2W7DSOfS3idN9Oduxtw/2qRcydNYZgV1MsHeqJ+3w74bs3sk3qrcWf2fdfxywvJxxdm6hI7evaEIaLwLc3FxC5+r8Uu1xN4MjRjHS5uHx5zkEhTRkkJtdR3jvupayvgUo/HCLuRBVaHxfKN33IscO7+GH7ViHfL9JxNQ5X3yR06S8qTWb98tnhShuodKUN0rkQfg4DlQbfqEq6tLQ0t6NSmwpnhtrcBrXjZBbeOIOJwb64Wdnh6udMc2klnSYqTO2DCRw/ixuuDcXZwlkUCCWikNfS2GqGuZUNbmNmE+wzkomjvfD0csfKyoNQYbxs1CqR6YUfc/FsDxOKyhuFkTARLd1gfEdOYWKAP2PHumNi4i4KT/czrxXvqcUcEytPIQvB38OUji4dDQ2tqE2MUYuWa7pqFEHjxjJ3tPs5VkYS4e1yFq0qb3y97U/zJ8NwtvCOxtlIR5u89pzvZ5BZOmJl1oKZcPUaa5yGhzHSyxZ7i59e9J1t8QdjlXi+hT2N9e5MXjCGID8HLI3NMDa1xVGVT12rmo5OM6ydPfAU+hnrPVxUPDywtXPHxc2ToCA3/UAZI2HuLG1sMBM6aimrQCda5qYiTTgK/x5+Ywjw7Cu8XoROGYeHaTm6804HApHuu0T8dkVsJ9lqOBYunoS4mOun1LRXpJFVaYLazg1/PxdsrW3wGjWTkGBvbEXgO6qqaRLp1Np9Nlcvnca44SIdine2EuHTZuejURlj1Ftv4tjKyRmjpr6vtWypoCk3nI82FeExdQkTxgTgfpHTDc9ZgHW2094l0kLvuJey1g5xnRFGIs7NZF7UO1scPPwJGDeeYaLi1Nwl0r2RzKcO2LqOYt7NCwhxt8a6nz7kK0b1yuHnYFSV/VQvgubydMoqa6luFgcdGkjZysct05k2bQJ3BptRllmk/x58atqREW+JS0AALo6iYB3Y+sxFc6Xtp6prraNq3x/5w2EHXIPncPfiKQS5WRnODhCttdSdOE7U7u95PWsWzz62kAXj5Pf1i0NWfq6k+Z1KOC5/rtQ46D1PVTGqF0Hip7fy0eptfJsgj2Sz4gZ+tep5brlGtLJ2ruWDu15nu5CeOjVCdjyOYcXbf2fF9TOYJOfxXEZceZuUiyozRez8wxN8meOO6bxn+PKhCd2nBoqcbezesI6nP2vm0a8+5NYxTvhdgkVxFGM0tFCMqmJU+40rxai21hRQU99IvX6Knkgt2OLi44ytjTFdjXVUF1bqB+Oc2cthjr2HB/a2llxET+ygcOUZVRkOLY3lxdS1m2Bk5YS34yVf8fnctDfSVF9PSW0njj5e2JmpML0EQwgVYzS0UIzqz8So1tXVid+BDVxERATOLm6MCb28jerPEROVkf67yM+1ULickHqSmV2rk+tAG4SXIUo4rhyu1DiQU8zleBO9Ua2vrx9wo3r8+HH9Nkfjx483SBQUFBR+Hsgt3WprDdOS+hm5w43cLk5hYNAb1cHq/nV0dFSMqoKCws+O1atX6w3rQCAN6ooVKwxHCv2NNKqX4MuNgoKCgsKFIqcuyf1Se5B7okonkXJ5XtLbX28/PfQlUxg8FE0oKCgoDAJ+fn7cfffd+i3fJJMmTWLx4sX6YymX5yW9/cnz0l9v+pIpDB6KUVVQUFAYBOQeqN7e3lx77bW4u8vFSayws7PTtzqdnZ1P7pEqf+WxlMvzPUa4h75kCoOHYlQVLg9ayyg5Ec/mH1Iob+mgwyC+eOQQxAZyjnzPpq272JJY0S0eSOpyyY3YwYef/EBkaQsNly5wCkMcOUhUbkI+YsQIvLzktvAKlzuDb1S7dNBWTn5OKcUVjVzI+uk/mc5WOppKSU8rpbqx9fwW0b9Q5DPksoVRkUQePcpRvYshMjqfSrnMncFbn1zI+w1G/A0Gmjxy4g7w34+OUtjcfsnC2aXrENEXw+6Nq/l6837Cs3qPymyitqKS4vwa2sRR9xh5ISvMIlWvzwjhsiis1Ri2PetA215JfnQkMfrziSSll1EvznTPHjjLtU0llMTtZc2nX/LFoVyya/spTXZoaK/OITq1hPKedKVPp8UinaaQX5hPdlYqcSfTa4+LIT4ln/JWHbpWkdZS4g3hO8rxyCgSCxtpbP2ZzhG5SNra2rrn7VtY4OrqapAqXM4MvlHVieKodDP/fmsdq7ekcCk3fDkrLaXUZ2zg5Zc2cDCp9Ed2J/mJtJRQn/Q5v75hCUvnzWf+VVdx1fw7WHbLv9lW1kD1yX3n+uBC3m8w4u+KoQtdSz1F3/+TDV1zCL3hIf52S7BeLo1tR3syBzZuY+W/D1MqpHLtpS5dCuGfvcYL84U+r1rM/Lmv8kl4Jvlym76uGhrLt/HvW5Zxhzg/f94jPPabDURoO/WVgLNe6zmDmbfcy+pfefDDZ1uIzCimrj9mudVlU73/HW55fiUb47uf0aUppjZepNNlz/Gfzz/gb6+9wN1z5nWn15NuOQ/+6r9sLdLQlLuRfz97P7fpwzCfRUtv4uHPEkksUTYpvxh2795NXFyc4UikNZ1O390rByjJX3ncQ4/89EFOp8sUBoefZ/evhRcOo1bw9rsrWDDei37bZMvUGkIe4+VPN7EvOpro3W+z7lctvPvH7zmQUKxvwfTJQL3fz55aNM3RbPiwnTC/EGaM89VLdS11lGx8nsdvf5LnPtzOMb20m7T1H1No7cOcldFEhP/A5leaiRW63R5eSG1WMlFfvkv7r9fx9u5o9n1xK8tGp/C7d6Opb2w/57U4eGM9eTGPqb8iPy1HtP4MD7yUOARiO+1B/hS0isqC7mfUFomW647VtN/7BHOnBjMmaAZh977FZvFeETLN6t1W1v/nHhaaH+bjR/ZgdfVveXOflO9m9w9/ZHJLM1YaxaheKpqbm/n6668JCQnhscce0//KYymXyEFJUn76IKfTZQqDw6DtUiO7O+THeTrlVmhJ7D7agZWHN2Mnep+6kHhzNllHN/HeH99h5caNfL8xguwmNRa+frgZNVJ95D+89/FXfLLyGzZu3MXOfVloR4zGSZtKzMaj7NpXiuW0Yfo9SFXkES+uP7Y5jia/OrZ9V4qNRR6JCdns3HSIkqR3eOejjWz4diPx5aJwdR7JMNs2xENY997HfPbJStaId9i4ZScb47TYeznh4mSl32nzDDpEgV2VyaZwK2bdMIMpYcH4uZljbVXLkXfz8Zs9Ei/3BipOCdsJyrHEeZga09JYVov3szrn+wXgZZLHkY9FS2tPJFFJ0STnFJFnMpLRHuY9uyb0L3VxHNpwlnjekY9uggs6oaMPzqajQ0ls0YftPyJsJWh93HBwbxWtpz2sfekNPhLx8q1w8blF5DZYk5+uwV23ig3rvmPVmo2EJ+ZR7zqNAPHg5sR1bFj9GW9/tEY8Z4twcdTae2FrUUd1WjSffJlEXeY7fLkqnRMtIp49tRgl7ebP+2yYetMcpod6YC+ygpGRMcZmVthZd6JptUVl6cdVi4ZhSyYH/x1PnfVYQm+7mpk+drhb5BAebYKtbRcOVHHkw3K8n3qQWWP9CXJopKmuhvDjsPDqTmI/S6Gxz2tdCR3vg7mRKWZ524g1DcPO1ZexHn2mrJ+OsYl+FygPtXhunCVdbVV01Wax8esmRj9zP3O8ainJbqGaAG64azYjXF1xF87V1RlHB9ESbxLp8G+5eCxfTNhV4xnj6Yarixdezq4E+NmLPH2Z7Q4xSCQlJVFdXU1HRweVlZWUl5fT2dlJa2ur/m+5MIRGo9F3DVdUVJCfn09JSYn++6s0rEVFRRQWFup/5fmGhoYzZPJ+EicnJ0JDQ/V/KwwIeUO8pVpBbmQS0TuzqLOzw1o4O5NK8tJSOHw0hwZR+KG2wsraVj8Czs60A1VFNKuO5pJf24GmLIG8pJ1EFEG77D2pSCE2LZXdGYVoq1PZvyeVvLxUUiK2s3vrHmJq7DCzEvdpyyclLpatx1KobM4g/PMvOJpcSVWXOGcpHtmaw6F96eSXN+q/tZ0vHe1t1FdX0GbUJUpukVki93Jw4x4SGuz0272ZVMcTFRvJtths2sT77fvR98ul0UiFiYU5pqbmmFtYY2Mt4kMtjMIA2FM9oqA+azyfqMNUGqiz6agog6yTYbMVYbMUFYFWcflhYvbvJs4QL/I6a0sz1NoaOsoiSa0wQ2si5F01VJ2I5evtKZS1dqAzMcfC0qb7OVbm2DUksCc2g+jMLMozDrNj9SrCC1S0mlhhYWZCZ2M99bmZNIyfjKeoILka1kAxMjHDOvAqrr56FjNCenoKZCFVSmWJo1Cko6hMCX+mpliPHI1/XSvqqkIKm9ooyx+Gu7MKoRLMXN1xcXQnICuPio4iCs56bZ0wxyZCh/aMHB1InShcq+rO2o9xUaiELtwn38WwrjTKI1axN1EU4iPvY0GIK242wig25VMY8wNfvPsu7wv3rnSfb+L7I2VoTD3xCa4kJ/Ib1n8vB3U1oFZ7iVaSFw4OcvM4hQtBGsOUlBS9cZWUlZXpGxw9yL8TEhL6lEnXc21fMoXBY2gb1fZs4vbGcTi8jeG3385Nwt1+QyDWdUVEb4uhTBgSu4k3sPT65dwjzy2bzaLxOg4cTCS/xYeRE2wJGV7Iwch62to7aUrNoNJaRcfMMciFu07WqzVlopCzxPGad/jTm6I1+Nu7mOhiTGb0YYqqY1nzcRzmk5bz0Ovi3N9/z1+eW8IYa3P9vjTnpFNYmOYCspNiiDhyhEN7j3Fgbxr1c4JFzb+K7MOxRKdaMueVd3jjn+/w5nPBuHTksmdLaq/BLYKzvV9cJk0WXky95TpGTbqZZXc+x//939M8Mt1Rb1gHBNtQxpwtnuXG3UJHbmfTUXk92pNh+4cI2z0sEYqpPBxBbGo7wSJeXhfx8s477/DCvUuY7S5ipbkIkym/47GXhPzVJ7ljujcpB45S3taOefBsZl2znPvkc267gdvnW5KfnUNSRqmo0PS+9gnuXTIGt7ZW6uur8RoViLutzY/r83SMVeAoWnF1Gozrms7szre0wtzEApfCSup03d9VT9LHtXJPWkdvf9rqm2more+fQWfGovXrOJ05o+vprMogvsiUsGduYLS1RXcPkdBHhaiA/LB+Pd8It166LYfYH99Ah0UgU281pTH3MPu2bGPzvsMcOR7BkcxKapqVgvx8cXFxwcfHZ0CcfJbCwDK0jWp1JbWN0RyIeJ8XFy5kiXALl/+Rf322n9zSKsq0TbTmbeSD5x9k+QJx7rZHWf76bmqSckQmb8HWPwQHz5HsOxaFRhSgacnleNpac8M8ORilF65T8Rp/PTdNlLuwiGNnV1xt7fFraUFbWUvuiPsJCwsg1Lvb+3mjbYbMr/jns/dwk3j3pU+9y6uZi3nzT7dxjZcpOvORqHo91ylkHCOajbGNSCFGXH6ymDrb+3WfHXS8zxbPc4PoEjpqP4eOGk4PW3UauQ2eVDv0kvVgE4BF6IPcNNUaL7llnogDGxEXUpumcsPysoNs/teL3Cefs+RGFr74DREHkmkUBqrq9GsvCXKkTxdd+pVvjPT7FJ2CfrBR9/kzOw76uFYOMvHwwkcYVfO6Bv1evP1F8Nzr8Q69Q8TFuFPjWehj0oo32HD4MAeFOyzdd2/x7lOz8LN2ZvKTG/noWyF77WpuavqcBdcuY96rOzhyoqY7uAo/yqJFi3jooYcGxMlnKQwsQ7z7V+A2nbB7/sGmqCiOCxeldyv54vWZjEhex0sP7BSp9P94Y6+QH9rInk8fZY6jdXet22ccw3zHcn/eQdJ1RzlY6kuXbjijnfV3/nFaNWiLC0jT6X7aCGH9QKVH+e0nG9kr33vvOna+dSNj7S24ojrLzhbP1sXUCR396lw6uhToWqBkI+/+bivJLOCZ7eI5xw8Rtell7gkbjpvB2yVHjsgsKaLUzQadmz1nJKuGOprbmykM8cXNVMUpG8r1da2UFReS72BNi6PdmfcbSvjMZvajr7L/u1e4JyqF2rJq+mNslYLC5cbQNqr2Dth2VmJRnUexagwjgscwZox0wxnmY415eyOFugCGjRrN5LAxBHq7Yt9STKVotejnDapdcHVzYKZ/MnHfhROv8kDn6YfH+Y6nsLLB1H8YE4qSqC2po6x78N35I7/5mrviGRBEiHzvkBGM9HPAUmWMsQxbWy66jIPsS4M20Syty8mk0KKLptARjBKXX9Cwj9IammoaqTMcDihni2fjdnRCR/nn0tHp2AfgZVWJXcP/4uVH6erUDwwr07li6zuK6dPGMCpoBO7aCpqEwZV72vaFmbmFSGIuFCamUSJahudWr9TGKIaH5otmXR7ZedDZ3k5VfCRZlia0OgUzwtmGkZOPkp7dTr2ohTWLCllhcS4nhgfgYhLKmLNea4/spOsURrWqKA8rWyvs7e0uTP/9TVsljQV7+NeaeLIKReDUNtjYuRDsYkaHkzWmpib67fcVFH7uDJ3Rv1vjOZF7QhRCGcRHxBIRUYvsp7PqqqStMJPDCSUUZ0YQHRVBRGoZJU0muLpbUJwcSV1zCVlpSSTHx5KaX0JUoSdzrhpNsK8LNp11GLfEs3FNC+ZTZjB52ghCrJrQVGWwaT+MmyCMmbBEdRphFBYFYyvez7gpg7jEWkrbnZl13Rg8U44RV1lBQmoSGbHHRIs5kfB8V6ZdNYpAX4dTWyA96Ef/Gp4xO1i05E7zZ2pMV00+9b3CdnRvEsX2IwieH8o8yzK2/Nj79ci6dBQcPUhuWTonmrVoVF74OJjq9/cbGEww6Sue7VV0tLeSK3RU25eOJpvQfHrYTC0wac6loTiZPUf+p/Pc0iLyKiEzW838ZaG4WKpRtxRRkFtEeKIp868PoVnEZX3VCZG+MkiMjiItJ4OIfEf8fC1xt4f4xF7XymehEUa/nG1fZuI5IQRvPzccRFbo7BCGOH0n23bu4of9KWTlFaFpq6bVeiJu9pnUlZYQfzCTtNQoDu3MoGH0TKZNncAkD2FrzBKJ2FtFbmo0UYcTSKtQ47R4MTcG++FomUpJYV/XjmaCq5p2TRnx331Mtt08gkeOJtS9H83U6WlIiPTp6mg8kREplNfnkhgRIf4W+S0ilRNFZbRaNHNg7Q/k56SQkBhHxLEYYmILqR0xk1kzAxnmbKkYVoWfO3mDb1T1KwJVkBmbQGa6yKwpKaSkZAmnwnvaZCZNG4aHeSMx335PRFoKSfJ8sY42m0CmzxqPd803HBaFwJHIFPJrNXQNm0GAmTczZ47A280GS5NOVKIWHXPAjFm3iPuNdROt3xY6NLWkF9owdrwNRkaiRWrmyoQpvliL9zNur6SkQhSuZj5Mnj6WSQG1hB+L4PiRSFKSkklJyyfVKozrFo1htLc9fW6c1/sZU4bp3+VUf3a4etpj1StsmZUjmDB/AbdfPxy783o/IZsagLWFDzYdR8k7EUNkRhttnlOZ4W+FuTDcA4Wqr3hWWWJs5oij0NGhvnQUZndm2EQs2TtaodKdqvN6YxtMnEKwM3Vg2rzhOJqbYtJRT119KyUNzkxbMg/vlkPCgB9n56EUMnLyafWfgptlAJNHOuIm4r+uvte18qXNjEQcdtH8zVZKvMdg5+PNCHsT0YrUUBezipU70kgvqQFdJUW5hZiEXMvkyQGYFWSTtmUzu9PzyWmYws33X838MG9cbCyx83KncOUajibEEldsg/3w+Tz19Cy8hS4chdHWZPZ9rW1HHc2lMaz6ch/qcdczfmww/tLS9Re901DvdJWZQUZSPHEizlP1eVG6Yqq1tnjOmIZ/2gaOxSVxJE7I08sorPPg2mdWMGWYA45DqmmtoDAo5Cn7qf4oXXRq27t3qpcjMSqTKTu2krkRV/HB/dNYEuKIVqv730jdk4hWopERJqamqIz7GqiiMBTQNldRvP4xHkmexfTZS3j5+iDUqgH+KtLVSWdZPPn7P2HuqkB+//KN3DIjgEs2nkpBQWFAUDYpPw/aGyuI+3g5/9peSZJcq07riJX1VG7/7FluDaom97PVrPngB450e++FLdaOE7nv3T9xfbAD3n32ESsMNl2dosJUH8PXf3mTLVUBeF79CO/fKb9oDyAFBziw8Tte+KyYWX98k4dm+zLKSY2y4JyCwuWFYlTPA127hsqkrcTmid8mKbHGzNKfKdeF4mnZSFVCKunxORTrfffGDLWFK6PmzWSYoxlyXr3CUER2PzRTGHOUjAYLjD1GcdVIp+5TA0VDEUW5OYRnaJX0oqBwGaM3qg0NDV1yMeaB5MiRI/odGS6P7l8FBQUFBYUfR29Ua2pqunrvgDAQyEW6Xd3cGTtWMaqXG7L+Jb8P6878iKww1BCKMhH6krrqupxXZrjCwlFRUYmmZWA2IJADQp2chtCqSleKLk9DruEih2IMavevhbUDwaPGGSQKlwsWaiN9pmhsvYJyxBWKXP/Z1tKY5rYuOrSXr76utHB8tXI1aekZBmn/MiIwiFtuu9NwNPhcKbo8HVMTI2zMjfRGVRSPCgoKCgoKCpcCxagqKCgoDAJynv6SJUswN+9etHTkyJFMnz5dfyzl+nn8gt7+5Hnprzd9yRQGD8WoKigoKAwCtra2+sGaU6dOxcHBQW88/f39MTU1ZdSoUfrzPf7ksZTL8z3Gtoe+ZAqDx8/PqGobaawuISOjnOY+F21QUFBQGBjkanZBQUEEBATo9wFWuPwZGka1S4e2vY229g46ThtW2tWpRdshznUIA3gpvms3ppBy6Bt+98oWsupb+17UXeH86epEJyonWm3nj2/9JVcO0unouFS6VLgw5FZzug6Rz7TohAK6VSB+RR7raGsXOhS/He20t7bSdopro11eIy/oyas959rEOaF7RZ8/DY1Gw9q1awkMDGTcOGXg5pXA4BtVuW1X2Ub+++wdLH/497z8XbrhRDfFRz7my1fv4JbfbCSlvkUxgkON6oNsW7OGf/37IGXi8JyTsxqTST6whpeELjMVXQ48dVlU7/8btz//NT8kFnfv3tNSTH3yF7x8wxN8+Pm7/ONPv+S+OZO56hS3lAeffYetxS3CuyGvGs5dvfgaHv88keSSgZkicqWyY8cOYmLkLsoKlztDoKUqWqbttVS2WdBRkE17ygEOV0ObbLDWx5GSlcGhhGbaCmv1rVilu3aIYTWC0WGTmD9nRPdOJ93SvtFp0DRUUyh02arocuCxcMHMJ4xZrCY/P4+sClHPKc8j7cBqcgPCcHcxx8LYFlOfRdz13K95Wrhf6N3j3H3rJIYRxw+v76LRbRbzH+2WP/TAHMxKqulqVIzqxVBfX09zc/fmg62trWzfvl3fJXzTTTfpf+WxlEvkoCQpP32Q0+kyhcFh0HapMVVb4Owid6mRW78lcyBOjbm2Fi+3dk7YTmeyuykNCV8SnZ5Lap0fljo35iwNxYkisiMOsXfrLo5ERxMTnUOzlSMW6maaitPYdyCFsrRdHD12jKzqNuqaGqk4tJadhyMo7XJFrRL+yvIIj6rGWZ1CUkwkEcdTyCltxtjTF3tTESktOaSf9Rkn2H+oAE3pD4QfLqa83QxzmxY0SVv5bvtBjkccJyatjLJmNR4+Dvotxoy6g31FILeTk3PN2rUGQUc15eUaGkShamdRxsH9ZVTn7yUx7gD7DkaQkJRMnVUwtpYdNGYeJnL3LvbGFdLeIePOFjMLW5ytlTX5+gM5Id3M1EhURkXVVdZgTCxQWTrg2bKbmAIPkS47MalNYc/6RGxWPMPC4c3UFkOz5QTu+eXtTA8dR6hwY0JHMSLAEvPmFDb/Pg7n2+9g3q1LuGriKIKDfTFvt2GEvyPWNjK1X3rOCMdlSk84EhKTqKqqRqVSIRfeycvL0//Kclga1qKiIiorK7G3t0etVgu/VSQmJoqwdyLXFOjo6NB31cuu98LCQv19Tpf1LOjj6OTEqNGh+r+HAleKLk9HbppiZiICN5hbv51hVI+rsHcFrwBT4hLsmTrWiKQd31DZ2oWx+xjqSk2ZvdQXbcoRjv6wnW37DpOQlkZGQgbVlv7YW1ZSl7aPd/+5l9qaCKIP7yG+SEN+RTMNkevYvW8HSdrR2NqpsGzO4dD+DHSN0cTFpxB7NI6sghrqvMcz2rNDNJAPcuiszzjEe/8Kp639IMci29HZ2mNrUUrqVx/wxZFEUlNSSU6porbDmtC5o5BDD66k0WBnGNXqcLZvjefQ8Xz8/XN476+HqSg/SEp6HBGHo0lPOEaK2VyCfI3pyDpExM4dHDlRRm1VIY12o/Hy8mWEy8AuPvJzoa8CzFgoz9HNjvgDqTSUxVDZ0EJMxhRueWoWgeYFZMbmkplbh62bEbVFhRQLV1TRSGNHJ+bqVjI2J6INtEVnbYFxlw3u9l6MCHTpN4MquVKNqjSgPQZVUlNTQ2mp3LWjG/n3iRMn+pRJ13NtX7IeFKM6MPQ2qkOqvLcJmYCPVwieK1cSl76aTQWT6LSZxsxgebZdGOAYtvxLFAYW1/HLTTv59vsNfPvxtZhniBZneArVzS2oylvxfvwb3vjT80w1riQuohiX327j69fvwrTsBPGJqdT09rf6EOvee5Abg8r5+r1vyWk4wjfnfEY+nUXbqAj7mt/8+x+8eJM9xnFxrN46jof+vYGvth/g4+du5VavairEW/8vef8M0DZD9kpq/R5n2SuH2PrN53zy7BySdu0ho6gdr1kLWHj/M0ya+iLvbNjJu89dzzUhNoaLFQYElQW4LWXesASa0r5lV0oLQb99gkm21tjL81XRJG/8I48vu4bbhLtFugdf5o+fp1NvPopJ1xxn7ydP8sxzf+X1TSn6LslWUULKgU8K54dsWcqGzEA4+SyFgWXwlynUiYK4aA1/+FczzuMnMGdsLYl/e5gPT5jic8P7rJjrgEN1Iu+uNOK3r5qy/uVVHEkqpsnFGnO5eKS2norq6Vx79yjGTrRhx5fGPPvRw4R27ObbNelEVwzj6T8vZUTxV/z+vTZcA4wZ5q3l6x5/bjZYVR7kyMY9/O1dDU987c+eP6wj9qzPsGTHFzqe/PdTTPS2FS3RDJK2rePdez8lPmA5j7zzMAsneODW0YGRgyNyxzd9/eUK4YxlCss2s3JtLon5cNfdnfzld9Xc8PxdXDVHVI7as6lK+Y5H3zDlnl8vY97IcjIORPD2ait++987CXKywrL7Lgr9gOxRONuScK1ZX7F6wwkS6kfx0O/vIEQkVNNyocuvkziWbc/tv5iPXDFWXySbCj3ZOuLubEFHVQ5VDVpaSuNIOLabd3/Ihnkv8bd7pjMz0FH6vuScKxyXEz3hKK2oo7mlzSDtX2T3sa3t0Jmqc6Xo8nSG8DKFauw9fZl43SIsy8cQPMwDH38LujunhQI62ulwmcC4a+/jMTmA4vnf8Itf/4U/v/kYdy4OxVNlgpG5MJJqY0zUoqZmJgoDc0txbISxqRq1sZDLW/X2J2JApTYTic8cM5HQO9rbaTvnM8wwsnDBwVqFqSxxVJ74TLyRhz74Ey+9GIh2+3/57Pm3+PeqOArF6Z9VS9VIRKa5CzZW5sL4imMR30Yi3s2NRPx3+1AYIpjb2GNq4YRaZYm9qNnIwk6PiTVWjj4MCxnFyB43wg9fVxuRf0ywcg3Cb4SQjZ/L7CXLeOSeGfjsj6OstLtnRuHHsbWzw9nZZUDcUDKoPxeGXFln7uCL/+xHuPvhR7l6oh8+Pb2DssC2scPGuBM3b9FiXHgPy+/scQuYFuqFg8HrhdJWV0NdSx21IwNwd3DC9UKe0daMTmWO0bilXH/rXCYGOWFcmkVubBRZjaIecAV9N7gktHXQVVVHg66Tns+yCpcB2gZaqxLZcTSXsuoWkRe98QyZwo3zR+OubadTzlU2eFVQ+Dkz9BoQaies/OZz7+9vZUaIJye3ixa1ZByHM9Kpkrb8SPZuP8LxYwYXf4K8ikY6DF5/FK0Gbe0JUqKOESWuDz+STFpdF843zyLQK4SwC3lGezFlJ46wec1+jh4ug+BQRs4XNXk/0cLWiLrAldPDcfGY2GJhYoJjYzwx0UeJyy6jolEpiocU7bXUl6QRL9J8RE/aPxalH32aXxLHxvWb2L9nb7c8PJKYyDyaJ4/EwdkW5eu4gsJQMarCYJqYCqcyPvP7o2ihGqtMUKstxLmJLH3uPkIcT7DzBcMgCume+Bef7c6kXu/PpPseRt2DAUxNVd3HPc+QH+9bi9Ekvs/L997ICnH9fX8/yvH2+bz18FTsraae/zMkNvYYN5fS+OF9PLL8WuF3BW9HiJbY1OUsdhMt7yt9nMDJeBZxIuJYxo0cCdcdP+K3t8xmFF6jgrlmykY+feIWfvf+dvZm6JcgUBhoTs8fEimriyd96594QqT5kwOVlt3Ns3/+lkOdI5lU9g4fv3JHt3z5Mzz15yRC7rmGoBGeilFVUBAM/kClrk5911JlTScqMwts7Xu+oRrQtdCiaaG63hhnD1vUXc00VtdSU9skxwN3o3bAwd4MC1M5ibqXv4YOWrWmOLpYYSKeUSWfIfyYGrdRU1aLHCqgb0iaWGNp64C7q43+2UbaRurP5xmiEmAsfLQ11VNTVEmT8CZ7e02sHLF1cMblCpx/ecZAJRlXMp5FE14uXVpVKX6dbbAUEaXq7EDX3kiZkNkaZCKyaK4uoEJElsrWA0c7W+wslBGK/cE5B4X06E3mj3Olez2mmFnaYOcqFFxZSH2rljb9YAGVqKta4ujlia2ZSuQrvedLzjnDcRlxpYTjYrhS46D3QCVlk3KFC0LZpPzyQTFGQwvFqP48jOrQ+6aqoKCgoKBwmWLU3NzcJb+tDCSHDh3C1t6ZkaPHGiQKlwty1RD5fVTTrgxrHuoYGxlhZWZES0cXWv0WM5cnSjiuHK7UODBRGWGpNnT/VlVVdbW3n/oFpb9JSEjA09OTsWMVo6qgoKCgcGWgN6parVb8DmyNQS5tJlvHym4KCgoKCgpXCnqjOuAWVUFBQUFB4QpEGlVloJKCgoKCgsIlQjGqCgoKCgoKlwT4fwF9SU3+GtQtAAAAAElFTkSuQmCC;" vertex="1" parent="1">
          <mxGeometry x="762" y="118" width="469" height="156" as="geometry" />
        </mxCell>
        <mxCell id="5J-S47VIE9dTWKWTMMJz-23" value="RegNo&lt;br&gt;FK" style="edgeStyle=orthogonalEdgeStyle;rounded=1;orthogonalLoop=1;jettySize=auto;html=1;exitX=1;exitY=0.5;exitDx=0;exitDy=0;entryX=0;entryY=0.5;entryDx=0;entryDy=0;" edge="1" parent="1" source="5J-S47VIE9dTWKWTMMJz-18" target="5J-S47VIE9dTWKWTMMJz-17">
          <mxGeometry relative="1" as="geometry" />
        </mxCell>
        <mxCell id="5J-S47VIE9dTWKWTMMJz-24" value="RegNo&lt;br&gt;FK" style="edgeStyle=orthogonalEdgeStyle;rounded=1;orthogonalLoop=1;jettySize=auto;html=1;exitX=1;exitY=0.5;exitDx=0;exitDy=0;entryX=0;entryY=0.5;entryDx=0;entryDy=0;" edge="1" parent="1" source="5J-S47VIE9dTWKWTMMJz-18" target="5J-S47VIE9dTWKWTMMJz-19">
          <mxGeometry x="0.4694" relative="1" as="geometry">
            <mxPoint as="offset" />
          </mxGeometry>
        </mxCell>
        <mxCell id="5J-S47VIE9dTWKWTMMJz-25" value="RegNo&lt;br&gt;FK" style="edgeStyle=orthogonalEdgeStyle;rounded=1;orthogonalLoop=1;jettySize=auto;html=1;exitX=1;exitY=0.5;exitDx=0;exitDy=0;entryX=0;entryY=0.5;entryDx=0;entryDy=0;" edge="1" parent="1" source="5J-S47VIE9dTWKWTMMJz-18" target="5J-S47VIE9dTWKWTMMJz-20">
          <mxGeometry relative="1" as="geometry" />
        </mxCell>
        <mxCell id="5J-S47VIE9dTWKWTMMJz-18" value="" style="shape=image;verticalLabelPosition=bottom;labelBackgroundColor=default;verticalAlign=top;aspect=fixed;imageAspect=0;image=data:image/png,iVBORw0KGgoAAAANSUhEUgAAAeQAAACeCAYAAADjYHnqAAAAAXNSR0IArs4c6QAAAARnQU1BAACxjwv8YQUAAAAJcEhZcwAAEnQAABJ0Ad5mH3gAAACfaVRYdFNuaXBNZXRhZGF0YQAAAAAAeyJjbGlwUG9pbnRzIjpbeyJ4IjotNTc3LjEwOTksInkiOi0zMTkuMTM1MTN9LHsieCI6LTg2LjEwOTkyNCwieSI6LTMxOS4xMzUxM30seyJ4IjotODYuMTA5OTI0LCJ5IjotMTM0LjEzNTEzfSx7IngiOi01NzcuMTA5OSwieSI6LTEzNC4xMzUxM31dfaCkaRUAAHt8SURBVHhe7Z0HfFRF/sC/aZtsNr33hAAJhBAIoSOgFAFFEUWxgYq9/m3n3emdd6end3qnnr1h74LSew8kpJLee++97mY3+c/bbDAgKigJSXzfD8Pm/WbemzflzW9+8+bNGEVGHu/RaruQkZGRkZGRGXy8vLzx9vbGZPHixX83NjbGzMzM4DV4VFVVodFosLCwMEhkZGRkZGR+X9jb2+HgYI/R119/3RMaGoq7uzuSYh5MIiIixI3YExQUZJDISGi1WoyMjDAxMTFIZC4kI6U85HSMHOQ8GDlIZWlubq43TE8qZF9fX71wMDl48KDoFTgwefJkg0RGor6+Xj9iYW1tbZDIXEhGSnnI6Rg5yHkwcuhfloNrEsvIyMjIyMicEVkhy8jIyMjIDAFkhSwjIyMjIzME+H0oZG0rrfVVZOfU0Kbtptsg1tMjjtQ1lBRVUVnbivwBmMwFoauR2soqikQ9bGsTdTW7ivpWNVqDt8wFoqudrrp8khLiiY2NJT2/nOo2g9+50Fe+JY2oxWFPr1RG5hSGgULuoUcoze7u050k/8H9LM2pJB74iocf20xGYwcdBrEenTiq2MzrL37FZ1tSqTWIhzpnzhOD0+eJIaDMIGGopz/K+7Oso7XhbPnsK14U9TAjQ9TVh7/iQGIZzQbvwaPvfg2HEtJxX70yiIY+Uhr6PRMGp0+bIcRZ0ZBD9c6/cfmlFzNz5kxu/dv7bMw0+J0LfeX7ejgV4lB3pnw+75w5D84+H/rucfiU+nBnaCtkSVmWb+a1e1ezfNo0pp3iHuSv/32Lr4Wi/b9HN5N+uqIdsYh0Niax+dElrF54ep70uuUP/pfXwodL12IE0K+e3n563hsa4hdeC6dcHOp6pUOTvnS8IHVOU3o7p5oWiHuNR2+7grV/fY8NGfqQQ5ufaTcefO8oR0sM4X6REnJS4/nwf63c+PI2NofH8umzd3HteIP3r+VM+Xy++dm281oe/O8WfrGJGE51d4QwtBWy6N2hqaWsxQmX4Eu54Z57uOekW87Ci2YwcXQIly0bj7OFGYO/tMmFQKTTwo3xy25h9W0iH9ZcyqJpY9HoJrDs5ttYJ/JmzfKLmOlnaQgvM+CcrKfGVKQmURK5k6OisVNL70a6mqirqqakrAmNFFR/whClLx0l1VTVtdGlrqW18CBvvBxJm9NMpsycRrCzIexQ5kztxl23cc+1E+gM/4idG7ZxqMgQ9udoq6OhvIbkchfGTZ/ElBlTGOfnjvNvfbROz2eD+Lzys23n9Sy/aDy/2EQMp7o7QjBZtWrV36VFQezs7DA1NTWIB4eCggKUSiVubm4GyWl0i6ranMK+Ezb4zVzEzXesYH5YGGF6N4ZRLiZ0N7dSXmuMp58DSk0J2TERHNh5kGNxCcTFFdKmEnKzRuqLSzmarOCSFRNxFv29/JPh4oiLOc6hTCWugWOZOsWLC/1lX0dHh/6D/zN/F26MsakVTqIjEjRJ5EOAFUohTS4aw71Pr2XxXNFwjnHBprOQzCO7yTUZg0qpwNJMPFxFOZzYHEODqp3k5EJyk2LISgrn4DGRByIfqkTOmKvssDNtprM6lf3f7eZoVDTRcZnkV7Rj7OGFnUJUGqPeO/m98PPlIThZTxUou9twduzgWM945vuqUHbmkJDcQEWTCVPCIPZIFabWSiytzDHVinyuy2K/kBkbFZOV305NI4SGwqFD4nduIP4+9vryPR+cdToiu1A5mOGiLCfy24NENY9hzurrWXrRBAKsfqpueIq60UpJ9F6yy1poNPfARSXZVBWk7Y6nsEpNl5MTdueh13z25dGv3ZgyibAgd7RFieSV66gz8iZ0ggpFazbRew9x+NBRIuNSSE6rotvNCyuLBipjDnHgmwPsSq/F2Fm0MxUaUV5F1BdFs3X3Mf0zExeXR5XaFIWtAosWQ1n+XPm2WzF9rj2Ve79m+6EcimsraenqpNHYAy/xcJme5cP1q/LgZNs5gTHeZujKU4n5fh9J3W7YWVlgRQ2VOakc2plMu5sdNfG7OHY4jvjccjo1lVQ1NpKTXk9VQQJFWbEcjm5HJdoaymNJiDjMzoORIj/6tbs2VlgNrkoZlvQvy+GhkA+U09rdjaW1lsbycsr1rg11cwYZybG89kEFU5Z505V+jEMbt/Dtln1EnEgkITqTOutRONqJ6zRWE5lsJhSyHz3pO9j1xfd8+u1hYtMSRIOZRU6HD+OmTmT2kFfIp9FRSnFBv86GpQIF7dRmhnNs/b/51vhyxnna4KHII/3oPl7/+16UE9vZ9HkEsYcPkJUVwT7x0CWEbye1IxArN1e8FKUU7t3MB59s5lB0LLGxqeSWd6DxDmG8uxILUyN+Tzr5rBu/SBO8RjngE2TB9shyZk0ch52ugNQ0oZDr2pkwqoAXXyjAdYI3XpKi7SijMXc3fxEyZ99eZSzavCGgkBvQtJbSVp7HjoNwyTOPcekkD3wsO2mvziXnjHVjgqgbHWR//QK701rIs57KXB9hpbWEs/7ZnaQ1WOAkFIHveRi4Oft0iI6Fuxch0jNtJNo2Sx/GBymozm0iN7WBsQucaRP1fsMXm9l+4ChR8cmkpBTT7DEJP9cGyo/sZ8+GQ8R01NNYlkNWpVDgmmLaiw/ywdeHSUgQbcexRAp0tpi42eDfdKC3LH+ufNtVTJ1lSean77InNoeMwgIqWrR0us9kjr8KC7OzG7Q86zw4U9tZ34XOpIGGnKNsf/5Nvq0ex9hAB+zak0ncuYOPvsnGau54GsK/I/rocWJyiykrzqGhq45DWzLITzlCfmEyB45bMG55CMq87RzYtoXPtx0jIV7kSXgiZS7jcPb0YIytrJF/if5lOTxmWRdt5dvn7mD5zJn6iRW97mH+9v4xeudXSAMqcWz4VwatNtfw96gooiL2EbXpKqyz00g83DdZqy/cx6Q1T2T1pzHEHA8nZsuTrJnmj6s+zEjABk+fYJZcs4gjiSlCGTTQU1JIRWMTR5bfyBJ/SzyrKrALuoZVb4s8iDhIzNtrMTt+lH27vmRbbDwf/LmD5Z9u4RspL/c+xx+vduLQfzdT0PJ7eVf/K/GeS/C4IP7Q9Tc+jW0kt2EYDvT1JHL42/3s2weLP/wv102ww1PfKygh9yfrxjZRN+yZtvgSTB2siErJpKdLTU9cJFGBUzCdMYV5TvqrX1icXLDv7MGuKJOs+mj+d0cuftc/w5tSWg59wncvhZHx4S4ysqwJWX0d6/71CLPnPskne8M5suEpnnnqKe588luipPCS+/hagt1b2XLobF+uK1FaB7Di8XuYs+QRHvzLh3zz9Vu8dJUHdsoBWAbzTG3n9c/z8tYm7KdezoOvrsX6u91k5CWw41Ai6Tmw5KP/sXpCEDfcfj0LVz/CqjX/ZeOhPXx4TyiTtftotJxI4L1b2b/zQZY5WzF23oM8+uq23vw4upuoN6dSV1XE8aSzflkvY2B4KGS/q7j+rx+xWz9E1Ode5593z0U/v0Kng/JSKjoO8sW7j7Bm6lSmzpjL1Cuf49MNx8muaqCmfzjXJXhPncUlv3VyxlDGwRGLiWEsOxBPY0UdkYUZooecybLZU7EwV4g8nYzv2NFMkBpJhTieOptZ9hrcS/IpyBA95ZpP+POyi7lUyssFt3H7n74kNaOEoi6trJB/AQcvf0IvW0vZ5n0UFZXRZJAPGwphtL8DNuO7efs/m8np64Q1NdFW+wt1Y/xExrfCuOMpRKo7iYzcyTgPO8b7eesvPWQQVom2PEdYt9t55ZEbWCmlZe6VLFr7FuER6eS1tJ+53JpSSNz0T30bM1M6Z80LvPtFFB0V1UNz4tOZ2s6Nf+HxFRNxUnpiHXAFf7iviiNvPMmbB6qomXUTKz1Et+Gn+gbiepNObzulyV//eZBVUn7Mupip93zC0X3JNNc3DZuvVoYKw0MhWzji7BNAcGgo0rrbvW40vm62vcN50rR8jRqNy0QmLlnNnffdx333P8B9D/+V5/61jpuWTkDUsR/CKewxt7LBbiTPezJ1wNwuhLnjjlAlLIEjR3uoyvVn7nRrzBVGIk+tMFdaYCm90zMS1cDaGhuzHhSiEe00ssUkaCnX334X90h5+dAfeOLJx3j+meVMtlWi6o1B5icwtfHGZcKVXOMTRWlVNVlVBo/hgv1YfC+6guWXhbLScg///V5YTqUtQtto0Sl+oW5YBuHv3YGX/X6OJOZyZKc/Xg6u+PucxeuXwaCpgRZR/1tdbHES2rPL5yIWXHsLd0lpeeARHnr8Kf770o1cOsEDR8MpJ2lK5NimPWzeVYvb6vtYd484586rWDLRBxdN19Cc+HSmtnO8D16OKsyMFShUzkya5EhHXSXlDRq6bFxwFP1z4596JyWup+prO7vVQhkfZePbu4kttSPoJpEf993FfXcsZaZom220Wnldh3NkeCjkX0LapcraBmtTE7xGhzJrxR3ccUefW8rFU3zQj5b1hWutRVPXQHW7eIBEI9NSWkRNexuiYz+CUAqF68mMKx1pSDlIQrqaBue5zHAH89N7vyIPKCuhxNyGLg93PJ1UOCksGDP/Rlbe1JeP13PzDdMZY6k4b+80Ryym1lg4jefSpU50ZueRn1pCoyTXdYsGrIl2dRed4lDb0U6jqHvVIv+lxSKGDHau2I6axJTpYaye70Bz+Nccjs4gs8kIheUv1Q0nfCa44eVTT8KX35GgWISXhwc+NoZrXzAk27WMtN3HKGrSoJw5GS/RFjga9TAqdDGLr+1Ly63CXcwUHwd+dMvtxWRlV5PX7MsiEfZW4W5cFEyQl6GLeq7l29hKZ2snv2adkfNDB12aCtJirQmYMYtJrmb0pCSTIfpeXX09C3F/XQ2t+u/hf9TZ6BbtRmsmMYktqB2ncLnIj9tvuZnVc7xxt1PIs7J/BSNEIQsN4ziacTZltOfFsGe3NNnE4FIKKe5bgasvnLKBzqJE9h+RwsQRHZNGoXg4LtyDMTCYWlgSuPgmzFNy6DBux3zJdAIlueTZUUNVYQaJUh5FxRG7NZFCrwBs58xihr8lE42jOSTy8ehRQz4mpJKYU0Pr6SudyZwRY3MljhddhVdLPT2VhVQam2OicMBXV0phdhJRIk9jYk8Qn5hNeZdWb10NNcydfPGZex23O8WSemQ/OxLqaTM2+8W64RI4BS/3IDq2b6Vj5UVCObvi0nvJwaV/HY+NEe4AO3ek0Wpsz6TFs3F39maGdQrZwu/gAUNa4k4Qm15OzZlWSTOzw9rdFQfnHrryY0mMjyU6VpxfVkPjuZSvNCKlcMZBXUljYQIxqVnk1Ij4ugdAhZ2SB31O3HNxKeU1eWRH72XDPifmXHsrN051wCp2L18fK6VKraNLSm+3aBUrE4k8kUBaWQstnf0G5fvS4eeCtaKJxmzp2iO3PR0MhoFCNtLv+yn+nRHJz9hIGg6byrVP3kawXRobbz19AkMadf3D3TkB0+ZNPLF8JvOXXcWTidZ0dVrhNkynDvfmwRlu3kQB7tOYNG6K/lvlyUH9ZtX0n+wxbzkzH6hj/MJ5rF6xjJlTL+fel6+m7rXV3LfMkI+Lb2TZ41tI/t0swHKunF5PRd7r69rlzL0sCCNL6X3dch67t5qjb9/HtSJPr7zvb7xeOgqfbjNs9Of2OulaxsZ9fw82/dOhRGk3nqteeo5pRduIWL+H3R0zfrlu2PjgNGoGC0OCWTRH/O1wIcZURBqKt7Hh+b4JTQuEe4OcuQ9zxeN3cu04e6zsL+bB9Q9gnfg2/7nWkJa5C5l563o2J5XrrUIpL04+W07zmDKqFYf8J1gpws4R7oHv88lscmTUWZevuI6JyA+Pq1i8oITqiMd56Mb7eXxLBY0d5/sN9Ol50Oeu5+GX3+Kjzd/xxk0v0fbQWsZNuIIbl00iLLSNt+56gyP1rTRI6Z1hiqfuJR5ZuIy73k0kpbzTUDcEfekYHU/upt44RkJ7eiEZ2vshSx+3dzVQVtWNmaUl9tJ7D4OXHl0bbS3tVNYb4+5jj0VPCw1VtVTXNOuHjPRI71AclViJ9rGuL5ymXoSpo6K+XXTyjEWjY4eR1hw7O+sfx3EBOKe9Tk/PA1PjH3pZ0ipLSe9w27utOE2/hHtuu5jRRqLfWvolTzxbDF5jWXzVRJz0Z9jh7u+Cva0S824N2o56ivOrhdWj652oYmKBqZVL72c4/eP4HfCL5fFz9bS9lsrGLlp7LPF2V0FDMSXVrXpLw0ShwMLaFtQKXJyN0AgzSq0GR0eoqBC/brZYqxScr7m3vy4dktXWSm1+Bc0iDeYO9rgqWn6+bhQfYv+eQzy61ZaX3r2L6W7W2J7HCnPW6SiuprGl02CdStpBiaO3F472KlRSpp4pnJHwULrg7eWAvUUXnac9W11NlTTUVlBhWNPUwsYGEyNLlOaWuJxN+XYpcPW01dePjtp8auqaaOq2xsrFBx97M0x/8uXtqfy6POjDAhtnW1QWIj0VteAZiJONGUqduJeGZoprTYTIFRszE3SG9Fa2/nQ72W5Ih2hOh2R7OtTpX5ZDWyH/TvnFh+0s6WqtJu+ja3mjZR0T5y5jzVwXLLUGhfyfNpynzOTm22fibggvc2bOV3lcaAYrHdVH3+DA0Si+tf4rr9w2Gi8r097XJOeJkVIevwU5D0YO/cvy92To/O4wMjHHyGs2Sy+ZwuxAoYwlobFoGq2DmDk3hMnjXXtlMjLnE7tR+IXMYe2lgbhanF9lLCMzkpEV8gjGVGlL4Mp/sXzWRCb2zaoxNgfHOVx9/QIWzx6FrUEsI3O+cJl4ObOW38vKQFDK2lhG5qyRFbKMjIyMjMwQQFbIMjIyMjIyQwD9pC4bGxusrKz0C1wPJtJC5xYWFvqJXTI/oFarMTY21r/ol7nwjJTykNMxcpDzYOQglaU0qdrf379XIdva2upneA22Qi4rK9PP7HZyGgqrzsvIyAwXpM681H4MBgqFgqCgIFn5yQwYXl5eeid/9iQjIzPsOHz4sN4NBpKxctddd8mfGMkMOPI7ZBkZmWHN6Sua9R33roz1g99PySXOJJORGWxkhSwjIzNsUalU3HzzzfoRPgnpVzqW5EuWLCEsLEwv7x9Okkl+/TmTTEZmsJEVsoyMzLBFmtjk4uLCvHnzCAwM1L92k44lub29vX6yav9wkr8kk/z6cyaZjMxg87MKubu7G61Wi06no0faS1hmZNNeSEZiMkePF9IiDrt7pecBLV2dlWTs+oRv9scRV/Qrt+yvSSXuwG6+2Xq8d4u483eDMsMcqa1yd3dn7NixBomMzPDjZxWypIibm5spKCigs7NTX+kHDGkxdHUNJZkppGcVUdLQb2vrrgZqKiopKmnQ7ysqdw0GiKZkIvcd5OtNydSJw/NV2t3qBhoLj/LNB2/y8a5YEgrKaakpIC0mhljhYoRLPFnmUqzNVGWn6/1jYpI4kVhCXZeOrrpMEvZ+x8effM83J2poFBp50HVyt07cXgnZ+eUU1Ri29TxZd3MpyCugpOzUtPW6E8QnZFPWqkXdKepzURYp/fxTCmqoEX4yvw5pW0GprZI+HZGRGa784pB1Xl4eb731lv4zA+l7qQFTyroOqNjM6/ffyB3/9xKvh1f/oHhrj7L186958fWjVIjD871JmczA0lGWRfbW9bzr9gfuv+Ua7gxpInnTv7h11mzmz57N7NmzWPHwy7x+RJR5j0botxg2/uF2btX7rWTp8tfZWd1CfeAq7rxzBffP7+HdlzaR3dw++FtBdrVC/Jv84ZkPeHlrCjVSJdW101O2idce+DP/+vu/eGP989wycxbz9Pff55aw+PIn+DC5gdLicLa+9DCrT/rNYvW/NrE11bCFkMyv4sSJE+zZs8dwJPpJhlG9vglb/Uf5+mT9J3KdSSYjM5j8okKWLGNJKa9fv5709PSBt5T9ZuHQVkn38S/ZVC4ac1n7DnOKKc3LYNdnCtYsm4a/t4OwxBuwdAtg2jtx7IuMIy7uc/400YLur7/km+xmwl95mvpLbufuTXEc3fJPXr4pm1c+OE5abj14T8J/vC9rNO+yK66NUiEaVBRWMO0h7pqQhkfbcQ5mgqajjbiN79IwdSbBSy9hvv9oHOY9xYf7j3I0Tkqf5A5yZO8L3Dkpl8iXD1LGIh7aLckjhXuH1QFuODT8yqF8mTPSp5zvvvturr76ar7//nuKior0MmlylySXXP8JYafLZGQGE5NVq1b9XXr3Ymdnh6npqSvBS4q3uLiY/fv309TUpHdS71EKK02OkCZK/BakoXClUombm5uIrAuaU9gXY4ajVTeu4nnYUuHJZYG2WKpzSRCWRUW7PTPneaKLfJd3PviCD7/4jq1b97PvUC7aMRNw0KZz4uhxvt+wm7TDH7D+y61k99hRmRpJzJev8t6WI1TYz8DF1gIbbT45UVt569k3+HLrVrZsjSGvzQyljy9uFoYbHAp0q6Eukg1vRZNZq0UV6IadfqA0h4OvR5BbpUbn0ELDgbd49o0v2fj9FpEnR4nLbsJkzBjc2iLZtCmbuPCtJEVs4qONTdjP8MPWopzMrRv46j9v84FI/1bh8po7ySwxp6m0GIvGz3hv/VZxrjivShiBToH4KlvFrbzLWz+Z9yns2HaMirT3hJVYgdbLBXvjQvLjE3k/xZXr71pIkIsllmbmmDv44TtuIlPGuuHpYUlbRjY15UWoJ3tS8L9EbC5dybSF0whzN8LauJitB8wIC/XFx9cF8456jMsjOGx2KVN8bfC0HcQdDIxEnVdY42BcQH5RN3kF7Yx2yuOz/+Zgv+Qq5kyzw6K+logsJ1bduYhgfx98RP12c3PF1cUaK0U+x97LE3kzgbCbFjLDW/LzxNXeDV9Pe2xtB3ctgOFKYWGh3klWb2Nj48kRPGnOS01NDVVVVbS1tellUrtVWlqqb280Go1eVllZqV9YRHIVFRX64e7TZVI4Camtk2ZhD/Y6DTK/P85Ko0qVvrW1lfj4eL1yjo6O1j8EUuU//5O9VLgGTiZgvDuq1M+ILmqn7vRxSRNTTM0U+hV0FLoWukqj+SKygOLSLLKPH+XgrjiyW3swqhb3u2Unu4/nUNIswhVH8+XOJDIq88iKSyF+TybV4hrSRuKKrjJyU9KIOO8Tms4DRibUZ+0lLfUEaTXiWKeBsmj2JuRwoqQFY6EkjE3MUPTlSUc55Xkn+OJ4Ee116cTu3Mj+I4lkNiowUxiJ8K0UHt9GXGwiWU2Gc4QzMxF+bSU0V2aSUaUQ0Qp5UzaJ8XHsiOrNl56fzfvd7Nm6l1hxrhTOxNgIdVUFTc1NtE+bTYCDOTaS7rTxwcFrPNPchW6TFodrb6XdVInWyQ53ZQ0V+X5YWVhhawOmNrbYjx5PQGGVfrP4JsQ1bF0YPX4UhVXVtLR3igsMPk5BS/CVtspK+YQd+4+R57aKkPHjCXQRjba6no7CI2z6eD3r336btyX34Td8siuLyk5XHL07aak4xC5hsX0aVUmbxoXx473w8REJljknurq6SE1N1StdCelXOpbkEpJiTUhIOKOsz0nnnEkmIzPY/KKFXFJSwpEjR/THkgKurq7Wb6js6OioX/JSWk7u1753OaOFHNmFakwYM0NtGJv3LpvrF+BnXUl5UQtVwkK+aOkE3FxH4e0xhqDxwUwcY4+3aTavxNsw16eZ1pwqytt8WPj033hgQh07N+Wi9p7NVXet5jqvGl7b3EJISBPFB9KIDdcw/okbWTR5MmH+HRSn15CZ3c3ky4KQPoD4bfb/ecJIlImlD1YNGyjQKigzDWOOm4aWI1/yjUkQ3pNDuGycO9aeYxnlNYbgkEmEeGrpaK/h4yQLbprURPSuY7R5XMycO57ksdVj8TQqYP/rn5BvEUrYQ8/yp1su5/LLL2e6RyNl8ZFkVVsSePd7/HHt5Vw9QUt+QSsnSo1ZIPLe9WfzPpkc/blvi3MnE+xhg64gitzSMoq9VnDTZDusFf1zVer2iHKNO8TxDB0NjoFcOt2Y5PWFuCyfgk+gUF4matRdtSS+lC4s0BDchcylS3QGmwp4O9aaSyZ5MdrdavDLysIVi+ZY6rJ28W2MDZPu+z+WhLjiSynFabHs2nCA9LIc0pKTSUpMJDG7itwOL2bPnopDTzg5WdHsiy4nu8MKH7NW6jpFCkwV2FgMorU/jKmrq9NbwNI6/APtpM+h5KUzZQaDn106U+pRRkZG8swzzxgkvUiKW1Kif/3rX/H09PzVw9enLJ2pbYPSL3niP204T5nJzde7YpaxlTv+1s1NtxpRUAhF1aN4/F8L8Cz6ir/c/QbfHE5Hv5qtmTXdEx7hnT/a0CTCFdb484fnF+Ilrvfkyeu56K+37mlYc5sIc2wPH72+l2xhxf3AFKYvv5XnNt/HbHE0pAaoTrzFP46oOaGYyzc3+RLx/B0ULHyCYGF5zlDkU5P4OXde+yqRNc000EOPXRDO02/ne1F0X3wEflIe3D4T99PzWZIZoqBiKx98ns8JKf9evBIvITLtk51L3vedK1x91AcciDrBZ6o/8OGNXjip+iucTrp1Ebx99edUjJrLjD8uZ25PBP+adphx79zORVeEMJZqGssjeH7aEca/s465QjamLZ/adFGWfxdl+eSVLJzjzwXZnqQ+imMHonj+MxXPfHgj451UqM4kMwT/EdUplO//DzMf3kTZlMd4+v6bePqKschTimRkfp+csxaVlLH0Af7tt9+Os7Ozfujyt75LPiNKT6xHXcbjl8RSVl1DkjQXo7OMxtRvePTWPXDpk7xwMI64o1vY/+HdzHNQcU4Dfq6zmbr2ZbbGxRF9cuLN53z8ynVME96K3lBDh3GXMFtly7zycCJ0KRwpnImr0klYZCkk7fqOPz2eQch/t/DZUZGOgx/zwVNXMV6cdt7srfOZ93rqaak5wmvLPqZ57krm3bWCeWfaY6SjA11NBYWBHljaWCKNEgvzn66qMtK93TG3NMiGIw5jcF72V3Yd/B9PmPWgyigk0+AlIyPz++OcNKk0ZBMSEsKyZcsIDg7WL0c3IMpYwliBwtadSVfMwig5jdL4VCq6NejUTeRrfBkVFMyMGZMZ7+eOU1cVtXTrv1E+K+zssempw7KxhCqLyYybMFlvpU+eHEDAKCektX2GnJVi6csYbyNGmSRwdPMJUnymYO3gKCzDdlo1WsqMxjJ1ZghTp01mrLMKS229sC3P8C7cRKhoxyDGKJJor07lRO+k01/mV+a9ysoGMyMz8pPSqRT3qQ8nLNyc8B28/pc9NM1bwdRLZzB5tCO2ZiKswp/gmXHUttZRKRKgbqyjIiVeKF8XzK0s9YpfLRRyQ2UpTp6uWKmUDO4eZb8BaYJebTgbdsdxNEkkzlSJma0nE9ysUDpaYmRhNvQ6gjIyMoPGWWlT6f2wtNOJNLS9cOFCpk2bhrRlo2QtD+Q3e0amFlgHLmGypw3OlhqaTEWD7RDIpIB6SuM28d0Hb/Hh11vZnd6M5lyWbVL6Mm68OwF2Jex/5y3ef/st/bfWb326na1DcVKXHktcRtlhZ2tCxneVeMwdi5ObDebmrti5uDPeM58TWz/i8/fe4rPtx4gqaD9zp0IoR6zHMTPMDou6eLaJ9OvTLtz2mEIKGw3hTudX5r25qzt2NnbYxEaQXaemRSsUalUmmeHb+PSr/SQ0FhB18Ds26q+3lwNFtoRc748u/Qj7Rbm8vX4rX+/pJGB+IB5u1pgLld7SVEVOej5+bkIhK5WGmIYQ+kldh/n+o/d535C3b731Ies/2kFcVR3pEdvZ9fnbBvl63no7ijofb1wn+iJvRCoj8/vlFyd1SZ8ASLOrJYv4yiuvZMqUKXplfD72Tj5lUlePDjorySy2wNnXi8BAF6GCpP6CI36uOposHNDaj2Ph3FC8ar/gcESicEnk1baiHTUbXzMP5kyV7CcrTBTOhE73wkpcL7vvemOsMG2vJ63IipAZoYSFeWNv3kT0V99wLCWJhKQkkoo0dCg9hfXnq3/vN0C2/69GodDR3GRK9gkVVz00h0AnJUqFPWY9rSgrvubb3amirJIo71Zh5h7KeBs35syyoqrKCo+TeSqpaUtcPSypz8smevsOjkhpF07j4C8i8cbDWeSfyANppMBYXUVpVQ9aYaFPPdu87ztXOFRGqOtqaNsVTt7E+QS4WqGqzyY/O5nYujZai9PJTu2NP7u6A7XPRVy5LIjGPQeJObCPw9mt1BrN58E/LSFEKGRlZzkFqVFs3pqM+5LbmeZvi8iGC0NXIw0N7ZQ22DHr4jHYCwvXTJKV5ZEedZyE9FSSDXmblJRNVn4nzouW4FFymPwTR9gRKeTJGSRlKwm7bgXz54zDR/6yRkbmd8svTuqSGhMRhvvvv1+/VqwU5nxZxfJ+yL8P2goiSPr+Wa7Jv41377qYK0JcRR0yeJ4LPT305Gxj284j3H04iO/WX8+kn5s0JSMjIzOM+EUj0M/PTz+By9XVVT+BayCHqGVGJkrPQAKuuIv7ql7k9Y828O7RYoPPOZL5Le++t4XXw4257/GrCLBWMgQHrGVkZGR+FT87ZC0pX0kJn6+VuU7nlCFrmRGLfoERlRMezm74TphC8CgP3H/NilRGJpjY+zImZAqXTB+Lh9IIE7l/KCMjM0I4OWTt4eEx6NZvRESEfo9SechaRkZGRub3zkmFLH1TLG23OJhIW6a5ubkzMURWyP0xMUa/09VA7uEhc/aMlPIYSelobmmmuWlwdscyNjER7aMLxsZD5wM7uY0YOUhl2WcL/+ykroFGmtSltLInMGiSQSIjYW1hhFY8aB2a871OuMyvYaSUx0hKx+Ejh9l/4LBBMrBYWVlzy7o79b9DBbmNGDlIZWlm2quRhW6WkZGRkZGRudDICllGRmbYYmFhwZIlS05ODJV+pWNJPmPGDP0yvxL9w0kyya8/Z5LJyAw2skKWkZEZtkjL+UqLFk2dOlU/MVXanUk6luT+/v76tRP6h5P8JZnk158zyWRkBpvhr5C71WjbKsnNqaShVfxtEJ+kq4HaykqKSxrQiEP5jcvPMGB51U23tpXanBOk55dR0TgAexhr2+mqyyc5MYOimhbaflQRZEYyo0aNIiAgQL8lrIzMcGXoKuQe0YjrtOh03fT0/Ixq6CynKesbnv7jN4SnlOvXoT6FuqPs+vobXn/nKJXiUJ6U+DMMVF71dNDRkMT2p67g7uc+5PMo/caNBnr0S7SeWsZCptOh02rRasWvVAcMPpJfj1Q39H69/t3dQtaYR93Bf3Pzynt5eVsSac0D2PUS8evEPXefcs9SfZXuRfwK13vvpzrpKwZxq+J8cb/dfekz+OnzoPdKMufOnj179HVo8eLFBomMzPBjiCrkZsqTN/PJPZew/J71bE8+g6KVGTZ0VmSRt+s9PnT9A3fevIpb5ki7JUtIdngcW97awt5tqdT1l/3pNu6ZN42F867gqpWvs6+2hQa9fyn5Ee/zvPC7TO//EM99dJRsu7E4zX+EDc9OpCEljoNH+q53ntGImnjidf7y3Ae80XfPug6o2MI7D/+R/z77T9796Dn9vS/R31+fW8jyKx/jk9RGysvC2fHqQ9zSz/+WFzazI21wPuMZqUhr7u/evdtwJCMz/BiaCrm9jNqKAo7lmWOed4iiimrK2w1+MsOMaqqLMjm2oY7gOQuZFDQKF2tzNLU5FOx4nqceEwpsbxzJDW361w3ajhayN/2PIvtAAlc9xK3XXsQ8j2g+3pZCXlkLNSlHyEmNpmXhQ9x450NcP0dDQ/kJNkVUYeo4isBFlzPNOJ7OvBjif+UKnT+LiTl4ziHIJBpNRW8cWnUb2fs/ItfMCjM3F5xNukWqQ7l0zd3ceu9D3KV3d3PbrUuZ6lZI0peHyC13JOhGSX6fcJfiYdSDrrrJEInMr6G1tZWGht5um0R0dLT+d8WKFcyfP58jR45QVVWll0mTuyS55PpPCDtdJiMzmPzs0pkDjbR0pplCiZPzqZVfXRZHdmYmBxpDmG16gEa3adi5+DLaTtxfT5d48rKJ2X+QY0eOEhMfzYmEZCILnZk2Pwh/Fw3NuXEc2LSLqBNxnIiLJCqjg05zB2ZMFrbX0Soaig+TmphJRkk3Nv72WIrrxfVd70QKqRmVdLt6Y2Uh4qvNIO/EfrbuPUaCuF5CfhtqUyU25i00pe1hi5DHxsaQkFVNZbsCdy87zEQafsuaZ+amRvqhTa20TsvJ9OZQ0dqNwt0OSySPCjL2ZlHdpKXbqoP2/vdyIpOCynaMRaNipxZpi6ugIDOO4uwYjsa2oRrtiqVZPRUnoojavodwKV3CVbc2kFnQQ0NNM66qExw7LOVfHCXN4n6sPXAy66QtZx8HDh/laESUOKdfXnWXUpRVTOKJDJpK97H/cCPdjraojAopOHGCL/cruPzeFQR7WGFlIhmVjbRVZJCSmUtug7Sk5jjCJjti2pzPof98i3ruWmauWMmSYCtcjZP57IglU4Is6Ew+QXZaB053PsXq+aEEO+SRVdxKbpUdC+aMwszKEePs7ZSrVdTbhTHTRyqN38Yp5SEtDmHlgWNHJKXV3RTV2zDGvpgdb+1CPfMapk93x6mjmdii0dz2x5uYP3M6YZNCCZk0kQkTvEW+5hD+agLtbqHMvG8NV0yfJPxGocIRTydbnF0GbquMU9IxjJHSUVhUSH5BoX45X2l535KSEtra2vRtmPTKoLCwkJqaGv1kLnt7ezo7O/UWtBRGkkn0vV4oLy9Ho5FGZk6VSWElFApzJoeG6X+HCiOlLGV6y9LEuFdjDEGF3EVt8hGyskupGH8Ny8y/I7o5EKW9DyG+FtJmulQc+5QvPtnFniNRJGemkp5bTklPEPMX+uOiTiV529es/+QAiVlJpKZnklOvwspVKGTfPF57PpKq8v0kpZZTKBrT0XOc0RzbwbaN29gXHsGJpFQy04tpdg3B20FLW+Iu9n/7GR8djicrJYnY5FbMHKxwsqgk9dPXee9gHEmJiSSkVFPbZcUk0SmwFan4LUMPpzxs3aKhaIxlwyubyWwzwSo0GB8TtVDS4Xz2YgwlGiXOY3voPP4Z72w4QtyJBFLjksitbKPJL4TJPfv55N1IYmIOUlySyrE4C8YuDUBRd4z47zax9at9RGSKfBJp67Kyp1YomaaiDLpaDrBnfxJJkftIb1DS6TiJKZ46Wk58yldbDrL/aAypoiOUkZRLpf9MxpgkELMznO82Hqa55Si79xvjHDYWN10uxWmZbOyZwx0rx+NpZYZUy0wsHbAbFcbFwT0U5Jjj4ObFhMkqTJpS2P68Gq8rZxM4yRUnU43QgW3Eb6xn9Ewd1SkdVGW7EXr3NLxFJqssmihJbaWl3ISAJRNE3itRNSeR1mpFhfEoFo+XSuO3cabGz8bOnOLMKvLjIzGyKGPXwfHMXjWfqQFdNOflcjSyCtcxStrrq6kpL6Oiqp7a1h5Utmry92fTqhCdNh8bursscVC54ecnLOsBVMYSI6URl9LRp5Cl9+9SO9KnPKVf6ViSS9TX15OTk3NGWZ+TzjmTrA9ZIcsMJFJZ9inkIThkXUtJQTPVpUrmzx7F9HnLaS2toyC/mLqeBtoajvD+g+/QMfk+/u/z4+zd9R0bXr+DmfZC6fZkEvX9RvbvaiTsleNs2CP8N77AI1fPxFu6tFY8ZDkfUOd7H1c9/RGvPbeAsQ3RfPJgLt4rn+bf+46yc9t6PvznFLI/3U1O1DeioS0ntf4a/rU/gu2HjvPmqkCmmwkFJ6y+T7dN4d4PtvH1wUg+enQV13nU6CdDnddnxEQJbldyybxS7C2zyMgST2GXmp4Tx4kP8KAj0I+J7iEErf1Aryh3SWn4+FFuXWjOZ1viaOvQ0FOyjWbLiYy9cxPfbbiHhY7NpL/zFhkaH2a9J/JIpEtyz982hxkW0XS0N6K5/DhfbBXydx9jprOOiANHqVHa4Xz5C/x7/c7eeDa8xnsPu7PzYCKFZQ2i6PrOPSTO/RtrZo3BuqkeTY+GcXOm4yksGdGlOjcslJg6uuGTX05Hazs/esvq6IJ9Zw+2JdVUiEMp7x2c3VH3mAgLtkYfZEBwnMskvzZ82j7m3Y8TcXr4DiYHjcFT8mspoDHqRR675lKuXjyXyyS3ci03/HUPGU1BjJqRS17Mn/m/m+7m5vfiqG7qEA2rsMzkWV1njbTuvmQdD5aTkRkMhl5Nq0ujsNmUMovJhPkoUEydxfSWEpR5eWSWiYartpGiMbcTFubPhL65QX3UVdNgHoTxpBVcOQWUwgo5BVNhgQTczdy+czvF9SpyKdJt5+0/3cgaaYLNpVex8s63OB6dQaHCChPrChoiPuMfK1/nSG0LLiuvZcbS5Ux21GFft4EXV/6HLRG5MGcuM4RfqLjs6dGeDwImzKINFTHC2tRodCREFzA72JupE0VCpJnmqet56spLuFJKww2P8tQbB9EVllIlutBqn6sIDp3J3ABxIZ2wuCtiSOmci8rLIOuP8yw8++efkyvONna9HZqTk5dWs1qK58obufZv26lNzqW+vZ2W08+9UEj3rDPCubL6/HeQ+uE5cSYB8+/AQjGPFaHmeNgZPKz9sZ/9FK9vP8KO8FgOSG7n13z3wlVMsFUSsvJlnnxfyN5/krdHb+Xe1QtZ+Pj7fBJRariAzC8hWay3rLtrUNy119+EpaW867bMwDPkFHJzbhL56fs4cPAj/vvIfTzyxLvsSjxMXHEuqdkN9HRpUVu4orKywPL0Rl/bhdZYiZGlAw7i+TGMAvyAkYnQFK7Y9J3b3S19wYLaey4Xr1rH7dLkm/sf577Hnua5F25iwaR5LLjyFu564S7WrTAh859P8OpfP+P7SDUWoVey7tWneeShUWh2vcvHf3yVd79NRvqgZyAUgHLcfAIsbBhVcpy0rlyissfgY+/KaMsy8qP28v4r0ZjMu4krbhdpuPNGrr4kBG+1Rm91dZs7YKmyxka/ebCwwjQttHfbYKLok/XDzBpF//wzNcPUxBRzTS1thft495+7qHKYwZy1Ip6713HrdXMZJ7LVTFh4utPPPR9o1Oia6qjydMLc0kJ0SU6jqYEWhRGtrvY4ikN9hW5rpdW4h1ZrK6TVhweqkissrbGwcRVptcHByhhF3xsfEwvRkfPCf/xEgiaGECy5oEDG+YpyMDVG5eiH1xghmzyTKfOu4NY7FzK+pJKWtEJKDJeQ+XlUKitcXFwHxTk5OctWssygMIRqmTRc10JxaiptXTqcAwNxUlphqfQnZJo7CrNWMrLKaFepsK0rEu1wG01qoYM72mguK6RGp0UjerFKbTsmtRWUtQjFKC7ZXiMs3KZ6zjh/VSgbY2tb7Hp0eAUvYN6K27hpjeTWCDePiQ5mWDr44jpvOddeO52x9kY0JkWTdSKRYo0Ks2nCmr5+PqH+NnQXZZATE0uOiFc7ECOPDkGMdzEjUBNLVGwiiZZTsbVxxEmaxVxeQmS6FZNWXM9Kcf+rls5m2mhr/XfEP7oVqVNi7Y2raSGa5hIKaw3yX0Lbgro+m8Ox3TiHLmb52ttYfdUyFk+0F2Xz09XI3MISExFnTVEJzTrdjxduOQUlJqauQlnl0dLZirSZj7alica8NHJ93DBX+eDtrMHaqZjSclG+oufTLjpq5d3t1Hu6Iq3JJFJHe20lGuNuzFyd9Qr8fPUNfjPSBL2WdGKS8sgqEjXSwgGl32yuXjadcdYKTEQHagCWTJGRkRkmDB2F3COaanUB6bmtWPov49a/vM6LLxncX9ZxsZc5DdkFlItGOcSikIK0eI5GRBMXG09Cci7VwnLW2HjiZdODQ3MK+w5HExMt/ONSyC2v/fG7RwmFCoWjN1Ps0sk/EcORg9L1pHPiiEsro6YmiZTYcHZtiic1S4vLZZcSNtcHX6sqKlOOsfnrI0Qfr0MRMpWJi4IJ8lVgJM0FGZDVR2xw8zPHwbqOpK9z6ZoehI2LnbC4hJUmLGXXUVZQnkiO6DDExSWKfCzVf7f7o1sxNhPKPYRQn1q6q2M4uMeQZuFyyhpp+imNYGyOscoN17FOKNoKKE2TzumX94Zgp2Pp6ILKworW6OMUtGhoM9xQt7qF1vJ0koRVWFldRGlhGhnp5VRrRxN6pfArTSFRlEdURDzHIwrpmeiDncN4AoJVeAYUk7o9mvioaI4dSKFE3YPlOE/sRffDGDWVJcWYiHvycnHujWyw0XWgbSwgIyGWE4a8jYuVZrKnUV6VxN7de9iza3+vPDqGuMNp1Hg4Y+nnprfyZWRkfp8MHYUszSauiiNDMw9rr5lc1P/dZkAwARYwNr+U7I4Z3PLnceTu+SePXzOPtU/8k/UVo/DsUWBjNI6ZiyYxeXIhb66dxzXL5vGnHYXktjrhKw05GRljYmKsH07ttZrsUdnP447X78cq7T3eum0el18q3GXLuPz+j9ldoaMt+wCx/1gp5JcIt5qP2gNRXbSC2eZlNL66mjUrJPlK/hVRS8P0G7jMTRg+kpk2AFh7+6N0DKU+yoyrFrnj5S4yxXoCXj5eLLT5L0/fvIRrxP3f/+ZW9td5EijSaibSrJ+Y0rfhpt6GdGfWdavx6Mpk2wOGNAv310+OE1veG/6kVdl3vqUXlp4LWTXmaza9cD3Xi/Cn5r0hXP9zJTz9cPVwY172MVKLO2no6BV3VqSQ8eWD3HjPq2ze+SYf/+8+Hnvoz3yWa8vY2/6OfeTnfCnK45pb/skzm8Zxz80zGOdvj+espQSMC6Lxj/NYs1y4fxTSZjaJNVdJmwgIk7mnnIyUHFob1Li7DLR6M8LIUKd+QMjaimiJ+y9/uLa3PHrzdznX3vA0X9QH4Fy9hcjXb+yVL1vO5Wu30hEQxMS5E3AwXEVGRub3x9DZD1l6mdvVSGVtN6ZKS+zsLfWfx/TSQUt1I9KXCOYeLth2VVNa1UhzexcmCjPMVTagUeDkZovKtJP2xjqKqnrX9jK3tsbESImFmSn29lBdJdSwiw0qS4VeNZ2Mt6yGplY1XZJMNLJYOOPpYYFRaxNNIq6+lcLMHbxwsrdAqWuhtrBKb3lLRp+ZtRO2Di642fz2T8d+cq9TXTvtTS1UV3djP1pYnmYm+jzSdjbTWiMsTWmIV5xnplRiZq7CRKfAxRWktRIUp+eptpmGmjpqa1uETdmLtYODUCcWmJoocHaz0Yc1ksI1aOgQ13J0VtJVk6P/9rld9J9OyXtHI6RPOTUi3Mlz9VdV05h5lNgvXuLvZg/x3PUzuDjAQfS/2uhsLKe4thOt9G5BoLC0wdbNFyfLNpqKK2lobhclb4apmR1uIr1W+vSq6Wxp7Jf31ti5OuIoylQpraKV8g73f1CPXegCbr15MWNPf0f+K/jZ8mhtp6bRGBdPO8xNRYdEX0b1VJTV64effzjDBBNTSxx93TBprKC1uZWW3somnAX2nh7Y26qwHKDOnMRI2UNX3gtYzoORhFSWffshDx2FLHOSkfawaVtLqErfxstv7aNz4g0sv/Rilk10MfieJ1pKaUrbwX/f3E918GoWL53P5ZOcOQ/6WFZkQwxZGcl5MJKQyrJPIQ+dIWuZEYuplSvOE5Zx3dzx+LtYCQv8lEHt84OREUYKK8z95rB4/hSmjT0/ylhGRkZmsDhpIXt5eQ36Sl3h4eFY2zkxfkKIQSIjYakwRtfdg3pApmvLnCsjpTzkdIwc5DwYOUhlaWp4VXVSITs4ONDVpX+pNWgkJCToNxWfPHmyQSIjIyPzy0hbLUprTg8GfauCycgMNCcVsre396BbyNLuK9KG4rJClpGRORekTxNjY2MNRwOLSqXimmuu0f/KyAwkF3xSl2SZywpZRkbmXDh8+LDeDQbW1tbcdddd+l8ZmYFEHoeRkZEZtkhbKUodemm3OgnpVzqW5GPHjsXTU7/dxynhJJnk158zyWRkBhtZIcvIyAxbLCwsWLhwIUFBQdjY2ODi4qI/luRTp049qWT7wkn+kkzy68+ZZDIyg42skIcrPd3opC37uuVZljIyixYtYsqUKfLkK5lhjVx7hyPSNojlm3j1hS/5dEsKA7jrr4zMsGDPnj3636VLl+p/ZWSGI0NnUle3Guqj+PajfURnlOs3RugjeMVDLJg5mcmuBoGgMeFbdh6KZn/qDyHd5t3CsrlTmevVTmtJJB++vpfslg7aDf4KlR1hNz7N0gl2eNsYhMMRbRuUfskT/2nDecpMbr59pn6no5+kMYGjx2sobHFm2XWh+vWS5Z7Yr6RL1KbcHbwaYYFzYBCXzR2N3cm6m0q7tPylqKcZW8KRdjf+YStOS5TWAVz64Dpm2+SQuf8Qu/an6vdrljhZd0fLM3nPhr5JXX0TrrZt20Zzc7O+LZkwYQLvvfcey5cvp6Ki4kfhpE8t3d3d+eqrrwxXg4svvvhHsj7kSV0yg8XQaZe7tdCaTVx0NpmFzfRYWmJpYYaltpD4nRvYeyCWFGEKdnd10py+k6374ojKN4SzVAhXT+6+zezdeYzInCo6azPYfzCb8iYtxlIYMy1GLdns351MQWXz72ubu44SslPTiYoroVUcDs7XmyMUaZMOEzOas/eSnhpPmqiTOnU7ZVFfEJ6SS25lBXVFGRw4VEirkRlm+vrZ65SWJpgZl5G26zBxUflU9vSru1lllBSfcZNQmbOksrKS/Px8wxHk5OTof6dNm6ZX0mlpaTQ2Nupl9vb2ernk+iaEnUkmIzOYmKxatervUs9QqoCD/R1yQUEBSqUSNzc3SdOCtG1ikhsTllzHI3+5i9VLF3HZbGcqDm8juVBDs8M4QlzrSF//DOsLAhi9dC1PPXYrqy67lMsuG4dR+Dbi05soNHNmumcD208EcPMTd3P3PTdxzcUTmeHVxqebm5kQ6o2ftx2DOx7wG9E0UF1SRG5mLoXitzQvngMJxjiMGkXIBFuMKrNJzSqkuKSU0tJq6lu6MLKxQWmioTHnGBHH88iq1ODibUFXjzUqoxaaKop7r1daJs5pQKOwxMzcHIVsPv800vaVjuNwrf2eygYdRV1jmWBXwb43/0dxyPXMnD2G0UadRFdO4ak3HufmVVdx1WWXifq5mEsXTWKsfRo7nj5MvdMsljz7Zx5aZai7jTZ42lrj42NriEjm5ygsLNQ7qc2SVhmUFHFTU5P+W2Fp1C0jI4OioiL939IIoJWVlX5YW1LIkkya3CW1O5IrLS3FxMTkRzLpehLSyGFYWNigjyDK/P4Y2k2viRLcV/DA3+/lorFWFOzbQm5bHN9+oCVs5jyWzA/GSR9QIVwYq/50KxdN9aAzMY3yHmG59OjQ6bT6Fci6mpvpqCgj29cdcyslw2vEuofu6sNsfflRbpw7j3mXLGHedS/y1YkCqoVvZ3kKqR/fyYplC5k3T/jPvZo1D73BpjIt7boKjn27kUPfvc6mr/7MTctWcPfHKSQl7mXbK49xkxR+3gJxzu38a1MiKY3yJLGzYdzFK7DqFnVy21dk5+7hy90LGB8wkdBgqWaJPBR1TyvVu5NO1ENdt/CRtmx0w8baBns7LVqdmZCJurtqFhdd5N17cZmzpr29nS+//JLi4mL9sfQrHUtyiRMnTrB+/fozyvqcdM6ZZDIyg83wsIWcXHDo6MEuQ1iA1TXkBczBz9+ZHxkTfeEKqyjTtqLLeI/nb1/BwqlTmXrp3ax6vpyrF4cy2ms47Torbf0fy7fPfURaUzCrP4sjLvoocdv+wtpp/kiv1ZWek5h052fsPXJcv4JR3KY/88Ayc97dkEBbhxPzb7yBRasf5dq1L/P9ke18fKeG7I8LabO5lmel8NGHxPWuwSY7nYTD8iSxs8JpPlP8WvBteZ9X3j+B4xN3ExY8Fr1Kbc6nPvw51i2ay1yp7kluwXVc+sgOkhqDGTMri4yjj7Bm+a0sfS2W2hapjGVkZH7vDJ1JXT87USmebf8IJy68lAkvePPB03DHk1ey8CL/0zZ07xfueVc+eCiNoIUTGD3WGZWmGXV9OTHNF7Fm7Uymjxcyw1lDmm7Rq6/fxj8ej0Q7Zh6X33sNM21Py6ubR2PdfxJbcwklLQpSXday59UrCFTv5/PP8zlR488f/r0IL3G95276lKhqDWah3jhJrwva8olNHccl667n3j8sZrwhepmfpjnzOw5t38abh3xY++/HWDTWFrf2KI7t2s3T/y1i/roZuFmZ68dvMLdH6RrEgjn+9BQcJiu3hLxqNZr2ahJSS9AELmfFgpms6D9zUeYnkd4XSxO2BgNpUZHAwED9r4zMQDI8LOS2VjpMocPZHjvpHVFtEY0NbTSePjOrL5y9FTYmCowcQ5l92SpuvO02brvtaq67KgDdgQQqyusZNtNnpO+MW5tpU43Cxt0TX0eDvI9O0TClH2fLx/tIbTZCq1ChsrfDxkqFU1Mz7eJ8rSGonr7rWaswcbDDSeSnytoOldsULl4URtgE9+HRURkC2Lh44ug7GVMTb8a5m2JtYfBQ2GHhPZvLb1jDzfq6J9yNV3H9wgBcLExxHb+IeVcI2XVXcP1ML5zsmskT9TL9RLH+FYTMLyO955UMicFwwcHBsjKWGRSGuEKW5gM3UZmYToW2m+7QEPwcfJhinEF2RiHppa36Ad3+4Yo7NHSM8UZaMM+wo1UvRiKpxiaYNLTSqdEazhsGSLN6zS0wV7eha2+nVdx4T0836sYGWrs0wsIqJC8hho++amHyg8/w1P9e55V/3Ms9yyee+nmTpgtdh5rOvuvZBTBj+e089u/Xef31Pncft1wWjI/hFJnzTI8O1NUUlddR3SB6k9ae2E69kX8+cysrlCaYV9VRZQgqIyPz+2PoKWShbLr7JmJ1tQsXy8YXPyMzv53Ri6/E3yqMa++0JCnuKHsPJVF5MlyMPlxkQiWqyUG4C0PQpP+kruoqWhNi2T/WjW5by+EzqctEdCvcvfGozaU1J4+Uyi7UbW2UxBwjq75WWFRGGNk4YzFhFlM8jLE26aK+II+8jCSyxOm91rEIU9NEZ1EFJd1Cmbt64V57kLL44xxM7Zt0JJxW5Je88td54EyTuoRTt9JdvpU3P9/PlvCCXllnJ13FxVS42dDtZm+YpCgjI/N7ZOi9Q77vM/alVKB2sMRMb+N6Mn/NWpYtncf00a44mAsF21hKwra3+GJXJPszWkQ4yUJuJ3Dpkyy/bBmLA1oxK/yWdTd8RqGpMd0qBSZaeywtp3LNG/dxVbAXoySZ/i6GOpKCbKNu59u8/s1+PomtxEFlhl9YAFXFgVx21VwWhTYQ88rDfJJtR2eXMS5+bljYBdLeMJEXP7yRIFsdORtf5ttP1/N98xgmrfknd7olkLHvMN/sy6VF2RsTo67mxltWsm5lCM4GkczPUB/FsQNRPP+ZimdEPo93UqGSZJu+4PFHN9PsZYeJqH+9vV4brOyDWfPijbR8+TrxUclkdIjnrUfUwi5nZt37ONdeMYd5o6R6LyMj83tk6CjkHmHLteUTdyyd/IoGoYIkJJVpT8Ds6QT4ueLc7/bai+NIycwnvaw3pIRn6CLG+3vjbdlCZ30eEQfTqOrQoNb7WmFuOYoZV4Tgaamg73XfsKEug8S0XBLyakUjb4q9KC/jTlt8/TzwcO6kIWU/0UWgFtmocnJCZeOGQmtL6Bx/7CxMaS9JJD8jgeQaJfYTFjDdo5WmglxS08t+eJ9uG0BQcAATA5yxNIhkfgZ1DVUVNSTnmZ7MZ1NJVphNTGS2frW5H1bqMkehdGbCglAUeXGUllTQW3V/uo7LyMj8vpD3Q5aRkZGRkRkCDPFJXTIyMjIyMr8PTlHIPT09g+5kZGRkZGRk+g1ZOzk5odP98MZrMJBWlZLW0ZaHrGVkZGRkfu+cVMjSlmSDvbl3REQEdg7OBAVPMkhkJCzMjPSfH3UNbv9I5icYKeUxktKRmZlJekamQTKwmJtbMGfufCwshs5UULmNGDlIZWliUL0XfFKX0sqewCBZIffH2sIIbTd0aOQh/aHASCmPkZSOw0cOs//AYYNkYLGysuaWdXfqf4cKchsxcpDK0szUSP+3PKlLRkZm2CJtmyiN7knbuEpIv9KxJJdew9nY9C4B1D+cJJP8+nMmmYzMYCMrZBkZmWGLpaUlN9xwA35+fhgZGePt7a0/luSLFy9mypQpp4ST/CWZ5NefM8lkZAYbWSHLyMgMe5YsWcLUqWGGIxmZ4cnvVyG35ZEXv4+33gynuFU9fDabGEiaEojcu49vvkugThxKC5KeH9SoW3OJePNhnlu/hZ3Jv3ILheKD7PzwdZ575VsixA2qz98NygxzpEleKpWKmTNnGiQyMsMPk1WrVv1d+vTIzs4OU1NTg3hwKCgowEyhxMnZDXq6oDWL6H37OXoonOj4WE6cdLlUa0wwc3TG7rcs9NsXR2w59TXZVJblsHFbC1OXTcDeUjFk1hA2NzXS75KoHewZlI2xHD6UQ0KeMaELA5GmsJyPHpu2uYyqlG28tz2DDscgxvkosWpMY//3O4kU5RsvXFa1mnYzZ7zspBgrSN+9l4gDhzgWn0laZhuqMS4oOyspS08kMbOEVI0Xk8fYoTIzGfBe5SnloVNDZQx746qoVpvg6GSF2cm6G09BaQlV9YXEbvshbb11OJnU9Ap0bj5YdZdQGH+MQzv3c9zgn9duhamFDU5WA/cMXrB6dZ6R0lFYVEh+QaF+ImpYWBjR0dE0NzfrP6O0trYW+R5PQEAAra2tFBb+EC47O1vvL7nU1FTDFdEPeZ8u60OhMGdyaJj+d6gwUspSprcsTYx7J3UNHYXc3QlVu3j/xc/YsvsoKYVZZKWlkK531XTZeeI+PhDvvo0Qfg3dwg5ujGPXvira1I0YmWlITFEwd/lEHGWFrFcqyamNVLXbM0MoZGk6zG9Xdp005Z/gxLef8737fdy3cg4LXErIOLaZ19/aTXKOKN/0KNKK1LTiQVCgHdqK79nx3lb27IskJlko5BMVaMNC8PEZT5ivAkt1MV9vySBg9jRcrMxRDvAuIaeUh07U08I9vLMhimK1Bd4BY3CgjZa09XzwfjR5NeXU1afx1QufkVCaS2ZGKhn6OpxHXnEHTjOCUeQdJmrrdjbvChedi2ThF0la6yicXb0J9h643ahHSiMupeN0hSwp2pycHNRqNYGBgXqF7OjoqF9bQavV6ts3e3t78vLy9L8uLi7U1NToJ3NJu255eXn9SCadJyErZJmBRCrLPoU89Iasva9gxWPv8uWBCHafdF/y3APLmWnX+3DptBrxwGjE39J2gd3oxN9dGnGs69ZXUqRVwHTSlncaNEKu0Yi/RdhuY6HNXZez7oFruHppkH6/4GFBj0ijlFaRPil5vYi0SmmSZD+VXn1eiHNFo6TT55sUxiAXV5K2udTqw/c6rU5aPU3KPuEn8lhjuJ6Uz73nSJcT55yMRyoHcV39OdK2mf3LR/yKk3p6SigvyOTABguuXTwFXw97aGlG5RZI2MsRfLNLKt8PeTDIAjZ9zdbcRo6/+U+a5t7Kms8i2Pz533hmVS7vfx5DVn4DeIbgG+DLtdoPOZjQSnlj730NGmZWMPk+1gRl4toezbEsHZr2Zk5s/oimyTMJWjSfWb6jsJv5R175fj+bT9bh3Xy/8Z/cPCGPuLeOUGl0CbdvkOSHhHuDlQFuOLa0GCKRORdOX9Co73jv3r10i/bhtttuY/ny5WzZsoXi4mK9zNPTUy+XnDTR60wyGZnBZmgNWTencjiqC0s3LyZM9kI0fT/QnEJKxDb++a9NpGx/WlhXb7G/oIXSmmrSX7qZv/zvfZKYgLWrHy6tiWRteJy7//Qf3n3vHT79aCtHkmsxmzQZn5btvP9eInnlZXSbd5E01C1kXQdUbeftp3aTUKnFZoofTvo33glsemIbKaUd6NwaqP2F9B7a9h7Hd73NC2/X4rIkGAfLPBI+fJXXH/wD//rofXHO+2S0mlJQbUtbUQqdGX/ib8++L6y+94kqM0bnPpUAVSPVu/7EX599gRdeeUOc8w0bNyejDZmFmzaa8O3H+exD0ejFPsVfni1EO9YHF5MiihNSWV8XxM03TWeUnTnmVm5Yu49joocltkIPGxtpqc3KoaG9jJ5gZ3Jea8Nr2QKCQj1wM+vExKiF6AM9hEwdhbuXM8rOJoxb0znUM5cwP1s8bQe25M5kjdhaqYVVpiM/pRBv1yw+egkCVy5nVqgZmrJyjp+xXkkXKCFhQw0mPmMIvHQcHsaSee+Mn58Xvn4OKMwHztwfKVaVlI4+C1nqAEqWcXV1tV4RS0PUWVlZ+uFrqWNZW1tLcnIySUlJP5JJVrTkqqqq9O50WZ9ily1kmYFEKsuhN2Tdp5C3HCDm+GEiIvezb/sWdkoutoF2bR1ddbns/zYbtyuvJsxdS31xFSnFPfhdNI9p9lXEldlhYu1AUIATKpUjDr6TCJ06k2mjLDBXdLCv1pFLXXI4eKQFI6GMre0gZagrZCNRUMYKKuO/odrEDK3ndMaphJLO2cb6E8LbezSzJ3lh/XPp/XYHhR22uMy6moUzJxIsrNGSre+RlNeFbsJVLL10FtNmzCIs0Iq23GSKS2qxumgt86bNYoZ7B9XNJhS02TEjzB2lQoW1RxBBk6YzLciLAOtKttZ7EWJdTFn0YaKTylBetIa506YSFjoKm/okikQ5pzgu5ea53jhamGBsYo6pwhKVQlLGIo1NaZxIrBT3aE3oRfbkflCJ++VT8RvnioOJWljgDSSvL8Bt3nhc/V2w1zTQ05jNh0X+XBTgwiin3/Ie45c5U+NnaulIZ2kCVcnfEVfUTvPoG1m0aCJBdvXUpMewd8M2kjIiObR7G7ulOnwwjqO5pvgH+aMRZZeacYDdicWcaHJlqp8zdjbKAVXGEiOlEZfS0aeQJQXb3t5+UnlKv9KxJJeQhp7b2trOKOtz0jlnkvUhK2SZgUQqy6E7ZG1shpmFaKytrPUr4+idygKFqYnQTQrREHoybsH1LL9yIQGOdvR0WjHmspu4ZsUcHNSttFTV0GVhgZWzK5adHXS1ttDaXkdVRRHJMVnUS8O5hqiGBUaik6QaS9hUO5E1rSRm1KATaSiPS0Ux3gvXIGGF/lJ6RZ7a+4YRuugarl4Zgp82l7SYOlqsgpmz5hZuuKnXXRzihYetCZaOowiYewvXXC/k14h8tjenpbCEdhPh5+qGSjRsPVI8bQ00NpeSHJVBRX0LamHt9Z4ryuP6uUz0tEch7knXo8PRywNrE2NO7fJJrUkp6XtiKG0wxzZsJmNVQtn1r5Wik2istMKmsRWtSIu0t7WpUoXK1QvTsko6REPbu9/1IKP0ZkygO/6eClLSLJmyYipjvOz1E+EwMsbY1AKlyuqHOmwl6rTSQlj77oxbPItJM4LwMRYdq+KDfPXJu7y/I4YTRSd3ppb5BTw8vMQzMX1QXMikyZiZid6jjMwAM/Qs5BRXxi1cxb1P3MlVly5jkeTmBBPo2EpNWS3RxV5ctXoS7hYV5BcZozHxZ9nlo7HT5hMX242Dkx0+Lo0UHPyeL77cR0xyEml5+RRUSe9avVk8t4eUZLAV1rHkhryFbMDGpJnEQi0FNTqmB1sS8+0BHGcsYuI4N5R1aaT+XHpzvfENmswl87yw6hbqq+owmyPssfE3yAxx6Cd1CSuuRTGRa64NxF4oRuOuIrKy2mlttSRsmpLqY5vYtGEPh47FiOtmk1XWSFPrKC4KM6al05mu/ueKS3aWJVBUXkmaYg6XTbDBUtGnbYV1rqmhLPkQBzbk0e0ZwtSVofjoSoj6uBDHZaF4jXXFvruFzsY8Dm+sxX3pZHxHu2Db1UhHQx57jxoTOn003p52DKTt8lPWiKVFJ80dSmLSvLhx7SS87UQd6iyltKyJ+MopPPrSo6y66kqWSXX4krnMC/XGTmGCvU8YwTOFbIofk3VRvPv1RnYlGGHt6MGkIFcGqukfKVaVlA5bewd8/MbgP3rsgDtfv1GD3jb+EiOlLGV6y3LoWsi/lZY00g5u4fm/ZxP0zDe8vv0Yu75/m/88vJzRwntoPVbnwNiLmaqyYWblUaI1qUSWzBCWsRNe/Ir0CgtOPM7STCz9Q31WdJbTnLmRvz14EKNL/sBTm0Q8277h6//dxnR71anv+/thJA25C3q6+09IExZ2dx1NVeF8eNPXtM1ewcy1y5nlIMKK8MbGUmdCf3sIE5iumnKKRnugFFamfiHETiGrLiPP2x2FpWWvVTpc0E+y66Zbyni70Tgu/BNffPdv7jPrwTKniFxDMBkZmd8fI08hS1g5oRg/j6le5thbCMO7JJ+ijARyhFfvhwzDESe8R2lxsUrh+Idx5EwORenk0KuMziW9xsL+cp/BRIujtJYd52iWQX42mAo7NGAu4/yc8RaasbOhhtLYcDI1an5qfrC1rQMKI3Myj0VTqtbQKQmlCXpbP+PpdTtRPfMsiy6dTJBe09qjMA9m2qUHqGyqoKTMEEdCJJnuzihUSn16OzvaqKssYbS7K9aWA/v++LwiTdCr3Mw7Xx5gZ2SJQSZKqLKUSmcbdM72opRlZGR+rww9hSyspsOfPceT96zjgZPuSd785ijJZ/OKTTUaFw9Ppjt+x8f/uJ8n7lvHPz/ZxZFyS5yF9wB/sjqAmGLv44GVnRclezuYcbEPru4qTM41vdI7aTNfZlw6A/vWJLY9/UM+v7ktidSfWkRL4Yy56wwWjIkg8oun+Ov963jyxbf4usAKS63RTw4Zm7h74+TsRGDKMTIr1TRpoL08l/yE/RxMPMKOr/7Dy399gD+I6z3xzCt8mGBEwI3XYhH3PZv+uI6H//QWr221Z9mKyYzysRPpaaOpvpT0hFw8nZ2xVA6dLfFO0l5GS8rHvPT4vTx6sg4/wON/fIOdNVaoszZz8N1He+X3PcADT+ylyX80/tMDhs+neDIyMuedofMOWaJHS0ebBhOFmXDm+lmNvc4eNz8/PPzG4O7gzsTJXlib6tD12GDn6kFAgAsW4tzOHmFFjg1gtJ89LiYVVLUqMTExx847EJ9x05kyyo+QEDeRTjf8Rrnh4emGSmW4nsJkyCjrn3o/ZKIwpdvYgZ5uT+ZfEYyXtcgbE5V+6y67X0qvvxc+XtK7VmkIWYGNoy09Xd2om1rQGvLZbcwk3NzHMHaUlKeuSKrOqFuDRspndz/GTRiLh0kRTZ0KurrNhWHujkfwXEK8RhM22R0bWzec9eVhOFe6aXMzulsa0KWEc8w+jPFutjgZt9Eh4u528sZLGu626I3f0t4VlzGhTJ8yBuPKejqlSWpW7jj7z2flNWGMslWiaMolNzmWr491EHblKhG3FbYDPN/mJ9/XiTqnFSk17V+HJFmXTnjpMBHWu/nJOqzC0tqVUTNm4Uu9CNdFi8hDhbklCquxzFhyMaHjvXAawIkMI+W9o/z+VM6DkYRUln3vkOX9kIcgI22v086KRHIPvcn/RYzlhhXLWDZtLJ7S2Pq50lZJWfxOdh3L4KuGebz61CLG2Cn1yn8gGUn7CMvpGBnIeTBykMpS3g9ZZtCwcA/Af8nt3NbwJp9v2MrXMWUGn3Mkdwtff7mbz2PNuO3BK/C3HnhlLCMjIzNYyBbyEGTk9X6lZTU7aS4vpt7YARsbO5ysf8U4c2c9tXWtNGsVOHi4YWMqepS9HcsBRbYshxaydSjnwUhCKss+C/mkQnZ1daVvJZvBQtqhxcnZleCJskLuj1Q4UlFIa0vLXHhGSnnI6Rg5yHkwcpDKss+wOKmQ3dzcRAEPbuFGRUXpOwKTJ082SGRkZGR+mbKyMkpLSw1HA4tCoWDChAn6XxmZgeSCD1k7ODjICllGRuacOHz4sN4NBtI+yXfddZf+V0ZmIJEndcnIyAxrTEykde4N7+DEr3QsYWxsrHd99IU7XS5xJpmMzGAj10AZGZlhi0ql4uabb9aP8ElIv9KxJF+6dClhYWF6ef9wkkzy68+ZZDIyg42skGVkZIYtklXr5OTE/PnzGTdunP49r3QsyW1tbfWKuH84yV+SSX79OZNMRmawGXkKubOS8txEtm5Po6rjZ7ZaPNtwQ5m2fNJOJHI4Ip9mcdjdKz0PiPzoqCBt+3q+2B1NdEGjQX6OVCcTvXcHX2yKIE3cYNf5u0EZmVOQ9jOWJqYGBgYaJDIyw4+ho5B7dKCuoigtkfjkHDIrWw0evXQ2lFCSnUhsZhUtXbqfVj7theQnHOad9yIpadOgMYj19MWRX0FZYQpZPxVuuNCcStSBw2zYkkq9ODxf+q67s4GGgnC+/uQDvjyQQGp5X1lIMTRRWVRFTXWLIc8MsswUkiMjiYyMJyauiBqNlq6GHFIPbeXLLzfzdXwVDT9XbsOFbq1IbhGZuaUU9OXBybqbRV5OHkUlefq8iNLnR5+LISY2k5KWLjo766kuSCehn39CXhXVLcN365MLTVxcHE1NTSeHrmVkhiNDRyHrOqFiK2/+31quXvcP/rgxg5Of2PV0U3z0A97/2xqufGIrKU2ddBi8zgkpjsodvPPqRr7ZmUGdQSzTnx7ay7LI2vYhH7g/xr1rr+H2OV76MujWtaFRR/HNa1vYsS3NkH8aoaOi2fine7jzkgUsuGQ1V179BjurWqgPuJrbb7+Se+f18MErm8hq6qB9uH822dUGCe/y5+c+5H/bUqiR0qProLt0E288/FdefPZF3v7wBW6fO59FUn4s6HMrWH7NU3ya2khp4RG2vvIH1p70v5g1L2xle+rZ7J4i81MkJCSwd+9ew5HoO3X3dv+kyVyS0+l0Jz/tlIaw++R9E8LOJJORGUyG3pC13yzGm7Xjk7+XzeXQIS2eXnuEE4XVRJX7MV4c/ur1902U4L6S//vjjaxdESxvdXdGSijNz2D3pwrWLp3GaC97vbSjLInk925n8cUP8sLRVDL0UqGOW5qIe+2vNFxyO3dviuPoln/yyo3ZvPLBcVJzGsBnEqPH+7JW8y6749ooFaJhjcIKpj3EXRPS8Gg9zkGREZr2NuI2vkv91JkEL7uE+aNH4zDvL3x44ChHheUmWW9xcQc5svff3Dkph8iXD1HGQh7cLckjhXuH6wJdcWiUXjzInC92796t/7377rtZuXIlmzZtori4WC/z8fHRyyXXZ1WfSSYjM5hc8N2elEql/t0P3V36fXL3RZuiMmnG07ebZONpzPOxoCr8TRILyigiCOMOexasmIizJo2ojV/yzsvv8fnmnWyWtLefK/a2wjIryGV/RAnG5d+zeeMmvtkQTmxWI6ZjA3DvjGfPvhJqm6rQdLcTm6zgkh9db5u4XgINdp7YODviMCTWAygkcfM3fP7vN3hv82Zxf5vJbe4kq8SCxrJCFHUf8/Z7m/nuu80kVgmjzWkcfsoW6iLe5vX3P2X9ZxvEOXvZczAH7ZgJOGrTiQ9PYduWcMpT3ubV98rReov8MyqkIC6Rd9M9uOGuSwhyscRSdNuMjEwwtbTGxaaLynpX/ALGMHWKDSZN6Wz7RwrKxVcx7ZIwJrsZYW1cwrYDZoSF+uLj64J5RwPGFZEcNlvEFF9bvGwHt56dV4xEZgil7GBcTF6hjrz8Nvxdcvn0v/k4Lr2KOdNsMa+rISLTkatvX0CQnxdeLi64uDjj7GSFyqyAY+/nofOawJSbLmGap+TniauDG37edtjYDO5aAMOVwsJCvZMs3oaGBsrLy1Gr1fp3yTU1NVRVVdHe3k5nZyf19fWUlJTow2s0Gr2soqJCL5Oc9Lc03H26TLqehLQ+gzQLe7DXaZD5/TH0LGRUuIwbjZe3A03fh1NSdYKDiR2ojZyYNNFF+EsmcwnJO77nmLDU8tW2WFsqMCo5wM6oFGKlCUjqdnTVxVRpLDGxFA1kRzGFiQf5dHsiFbVC8Uank5ZTQ7s+vr7rxZOWLB5iW1tsrS2xNSoiPjKFpPRK2vThLhTSsFsz+RFbiY1PIU+kV5oNqp9BamGGaXsRLZXZZNXbolQJubqItIQT7DieT7NeeahQWdn0nmPWhUl1HF9EFlBUmkVO9C727dhPfL0N5ipLzE1N0FRX0tTSjHrabAIczLE26E5Ta6E4Ji7luitnEOxuJ0pJohOdtpbyfF+szFVCmUjhbLAbPY6xBZV0trbThLiGjTOjx42ioLKa1vZf9bJhyOEYdCl+dj0YpX7Mtj3HKPS8lpDx4wl0Fo22up6OgoNseP9t3n7tNV6T3HtfsH57JhUdbjj6dNBUvp+t33zLhxEVtKmdGTfOEy8vkYEy54SkgNPS0mhu7h1dkH6lY0kuUVlZSVJS0hllfU4650wyGZnBZggqZKGS/YLx8hyN77EvhDX7MfvrQjB3nc5UH+HZIx6qzhT2b0qgynQyK//+Kv/77zM8f48lVYmpxEYX06bpxkxtydgbnuHRf77Kf568hmVjOzn06SEK2tSnvn/uu96XieTXCaV/3XVcd+0KrrvclYa4JJJjc6g1BL0g6CcM5RP5/VFKTccyX6T31Vd73b2XBRNsVYmRmSUOS17l2ReE/MmbmOJsTHZCKo1mFthNuZLlV6xmjZSuFXNZPFnH4SPJFFU1oW3vO/e/4tw1LAv2QNXWQpfIE9/gQFzMTDnnwQGFOca2DriV1Yl+kVrfmVFYqrBz86aprEqvkEfE1CWbiQSPtcBfmcbWPQ0E3L6ciWM8cJb8NE10lsdxYPN3fPftt3wruU272XK0mFrNKMYtsEZpksbx77ewcf8xwiMiiEgXlll9p/7SMr+M1MH09vYeFOfp6al/rywjM9AMSYUMXji52xM8aysvPvIOTQ5ejJoyAUfJSycUVGUZla6L8Joyg/mBYCKUgPu0OQTmVKHOLCLT2gmzoDlM8zZH2nbXxnsUfl5jGZtZQo1WJ+y6fvRdT32UjZ/9lfsWLWLRkitYtOZVvt+VQFF9i34G8wVDp4GKWJI752Dl1ZveU3CZgefkK1g5BZSS9nQSlqyNHb49PfRoW+kq3Mxbj65j9UKRrmvvYvVz+6hPyae+rYPm0889X4i4u6VJMb3/wEKJmYsbAUIhd7V30qIPNPzxmjiDwPm3ibybw8owczx7X7eD9Sjs5zzBOzv2s//YMY5JbtdnbHvhCibaKpl89Qs8/YGQffAnPgjYy/1rVnDJox/w4bHi4T8LfZCQlvu9/fbbB8Vdf/31WFpaGmKWkRk4hqhCBnsvf2at+j8mKa9l9nh3/LwNHgOF31Ws/stH7IqNJfake41n75rLOEOQYUVnGY2p3/DobXtg8Z/59wGRnvDN7P/gLuY5WDFgq/J2tKOrqaAwwANLaejfIOuqKifD2x2FSok8MGvAfizOy/7Crv2v8IRZD1YZhWQavGRkZH5/DFmFbGrthfv023jyzYe5epY/3n0WnIm4ZWEFOtVFUZWRQlyhNB9MQ21aIoU+jihGeTDKELSPNmEBlzdXUTp7IgEKs1OVUd/1WrPQNrfRahVMcHCf88PLxRqlIegFwcRU3N8Expon0F7Vm96zolsjjOsWinSj8A+awLSpwYz1csGuo4yaHu2powT9kN43mxmZkZ+YRqWmi95pLT+FDQrz0UycHUttSx0VVaBurKciJV4oX1fMrSz1ylfd0UZ9RQnOnq5YWSr53Q7+dYvcrD3CNztjCZdm3plaYGrjRqCzBWaOKnqUCuRpQzIyv1+G3izryC5U7l6ETB2NncqFURO8cLZRYt5RSnFBKUelWdHXhuJYl0VlSRkJKfnkp4sGbk8WzVMuZk6YA671eezdHk9TVxnpCXFExWaTq7bDd8kCVnpUEBWjQ2WHSDMknuF6BZnR+r2ao3Na6TSxxNnF6tzfpZ4vDLN6FXVxFOYXEx37w/1VtjSQli+M4W575iwO1Cs/Y9GxSEhuoKLVhunz/ahPjaGprZwc0XlJTTxBelE5sSUezJtmSlsjNLb3O1c4U6NGKovLidhaSMCyWbhZW6ASGrSruZzqpB18s/UgeyPyqKoro13XTbddMP4u8WQl15MZl0JS/AmiY2owXngZyyZ74WPdQ0NxMol7t1A26mbmj3fB03aEqOT+dVKaqW+pQCHJMpNPqX9xUl2KThJ1rYRuBw1Ru4+QGR9LelYK0VExRIenUmY7gXEzJxLqZycrZRmZ3ylDRyHrJy9Vk12qxMXXi8AAF055a9PVRGNTJ+VNjsy8eDqTJzqirswjfu9ejmcWkd88natvvZRLJlnTXVFItmjwUnIySU9LI7vNHZeJy/jzzSE46GrJleLwsMbV1Vpc88fXixTnSLMy06qtcfD2ZsLp9zKoSG9hlbh6qGgoPPX+dE6jMTb3wdPFhdDpPliJkMaaGsqrRf9G5ceUiybjXb+BY9FpRMSkUdTQTo//bEaZezFnqi1GRtaYmfc7V4pOZYymroZ2oTRyguYTIPLIxdKErroCSqO+4a0dRbQKy7u9qYy6FrAKWcr8i0bRuP8wJ8IPE1HQTqPZfO5/fDETxbnKzjIKUqPYtC0dz6W3MW2ULY4XdMjhPHKyTtqLOjQaB2nWuyQ7rf7p65LoOeUVa3BdcCkeZUcpTo5kryiTtPQc0amyYuq1VzBvViDesjaWkfndIu+HLPMj2gsiSdr8HKtybuKNOy7hislumBr/ipWLunVos7exbddRHjgWzMZ3r2OSk+oCdm5kZGRkhi56o0hGpj8WnoEEXHEn91W9yBsfb+C98BKDzzmS+S3vvbuFN44Yc9/jVxFgo8TC4CUjIyMjcypDZ8haZshgZKJAoXLC080b/+AwQka74/ZrVpAyNkPhNJrA0DAunuqPm4URJr/C0JaRkZH5PXByyFpSytLi6oNJREQELi4u8pC1jIyMjMzvnpMK2dnZWb8bymAiLbrv4upGSIiskPsjfYkl7Ulj2KxG5gIzUspjJKWjqbmJxsbB2R1LWqXLxcVtSK3WJbcRIwepLPs2F7vgk7qUVvYEBk0ySGQkrC2M0IoHrUPTu1WczIVlpJTHSErH4SOH2X/gsEEysFhZWXPLujv1v0MFuY0YOUhlaWbaq5GFbpaRkZGRkZG50MgKWUZGZthiYWHBsmXLTk4MlX6lY0k+a9Ysxo3rXfi2fzhJJvn150wyGZnBRlbIMjIywxYzMzOCgoKYNm0aXl5e2NjY6I8luZ+f30lF3RdO8pdkkl9/ziSTkRlsZIUsIyMz7PHx8WHMmDH6yakyMsOVoaWQe3RoNWrUnZ39nIYuac3k3zx3oYeebi1dajWaLh26/heU4tUKmYhnSE6ROJf76+lGJ8JqtUM0LSMBQz3VdHWhPaUe/TjvpTqn7Tq1Tv+o/l0ozvi89aapR6SlW9eF5hQ/kWaNFt0PiRPp1fQLYzjX4D2Y7Nu3j+7ubhYsWGCQyJwT57PdGOrt6W9hgNM2dBSyrgMqN/POw9ezet40FujdbOHW8NLWJNJ/6ya6HWU0pa7nqSsv5oEXN7EzrblX3hfvS1/x9fbUC7v38Zk41/urO8LOr77if28eoVIcDu6HbL8D+tXTBx57iXeO1Rk8BGfI+/pjr/LGY8sN9bnX3dK//l0ozvi8zRPuaT6JyKGsJZXUrc9xj5BfetJ/OesefpUdInEdUuKk9L76f9xy+rm9MQw68fHx7Nmzx3Akc06cr3ZjqLenv4VBSNsFX6nLTKHEyVnaXEIDDbHsONiBuW8Yl66+gvkzpjIjQEtRdCMdPeY4Bbn17q/7a+iqo63yBN/sqkbTUIuloy2WvqNxVRji3d+EkZ0r4yd76TdauJCYmxrpRwRER6z3AzVjcxRWbvj4uuHiYMnPllJzCjGx5eTXWDJ14Q+7OMn8ek4pj5P1tJSSQlGPzLSYjZuMqwWYtvyQ91Mu8kB7/G0+2FtFnW0wF1+2lPmzpjNjljPtUTEUl3fQ4uDPeLfBW0z0zOno97xNDWWGUwlRJTo6Omsx7mzgSJw1i29fxcXz5zM7xAWH7lbid9XgOmcUNpZKVLTS2akho9yXK2+/gjnTx+BpoxzQ3dGkdBQWFZJfUKj/VDMsLIzs7GwqKytRqVQEBgbqlXN9fb2+Xev7rDM5OZni4mL9IkgBAQH698bjx4+nsbERJyenH8laW1v18SkU5kwODdP/DhVOKcvzwflqN861vRpO9D0z51lXSGVpYtgrYAgpZGn7xVQOJ1jjHXYx19x8OTOCAwkObCPx8xw6LOzwmCseGGmbxtZMovbs48jBwxyPSyIlrZxuNx+sLMww76qkMjuaPRu3ExkXTaxw8RlC1tiGnWUt+2JtmehSQ5uVNeVmPszyEk2HFG9UF5ZuXkwItsG0Oon94vxjxyOJjiugpKYb27Gu+k0RBkO5ndpwiv801RSWaDCiGU17JcfCi2mv2M7RY5Eci4wmu7iadtuxuKhaKDm+hcOHoknILaWts4rKbnccrCywMv/d7kL8mzm1PPrqqULUhzbRkKuJ1AYy10eFRWcOyamNVLVbMHmaMSmvrSdOMZPgxVdx/eXzmDJxIsET/bAuTya3pJNyUTbTp7jplZdhXYAB5czp6Pe8TQgg2Lec8E0VaLWtmLtZk1Pozy1/uIG506cSOs4K0/pKItZn47lmDh72LkL5dtEjLppS6Metf1hGoKuNUNIDi5SOPoVsJBSA1G6VlJTQ1tamX7xDWuCosLCQ2tpavZ80kau9vZ0TJ07ofyWZFEar1epdeXk5arX6RzLpehLDRSG3Fx4j5th+dh04SnxcnHD5tKkcUCraaC3LJTyqDjtve3GuCcZq0SYWSbIaITOlIno74ae3G8YVlCYe48COvUTEnRDXawBnW1R2lj+9Jv1Zt1eBor2SFsWopig2gsitOzgotdXCVbe1kl/YTH5KGo0le9hzoAGdMKBUymYaT2nbs6lWm2Jma4FFcxr7D2VRlHqIxNijIh3lNJnb0RDxDeERx8iqg25rL1yUP6M/dCUUZBRxIk6Kd7uIN5qYmGiKm6RzXbE3riJ77xfsDBfxVIvrd7bTYOyJl50Zpr9hTWCpLIeuQu5TjFLvo0crLNs8ju+tx9Tbl4DZvjioqyk9vINtW/eIsLGkpmeQk1VCo9NEvF2NMCqLIHbbBj7+KoK0vHSyUo5xNKGOshYzpk4yIjxcxcJLXWkz6SK/tI3gsaOxUqdyJFqK14lR7o2U7f2U9z89wom0VFLjcyisUdMzeSKB1goUv2bXo3PklIetuxOqdvH+xznUNBahbstg/f+OotYc4XhMKgnHj5FZWEWh1RymjVZTdPBbjh2LI7m4gvqGGlqdZxEkHkIX6xHTTx10zqjIokzwGOWEzzgLDkQXERo0HtvuAjIyhEJu1QnF28jmF4sIWHU1c+YFGbZVlLpzjniNMaa2qJ3KPC1jlwTpR30Gv6P34+dNJZ43jbaAlG3VWNh0Y+phQW6KgrnLJ+JoqcBMV0NlQRnxxzWErJmNp5U5ys5SSgvLON4/XG90A4aUjj6F3Kd8+5Sn9Csd9606KFnJubm5Z5T1OemcM8n6GC4KuSVjB4cP7GXrwViy0kXbF5NMqWMgjlb1tGdG8/ZnVUwW9c1OKiPplUR0hJBVCpkHleHfE3Wy3agW7cYEHCsPEb9nN5t2xZCenUFKeB6t/n44ebriqfyJ9uSs26uLRHtlTGf5QY5v2sqO78KJk9rrzHR0ii6SY3KJ3n+UlvYYDoab4jrFHcuOAnJ27+C77QdIEOEyk7Op0IhOoo0C1/ZDvPivAxTmHycj6RBxaXlkdjjSGfs1EYd3EVutpMNhPKGeLZQL/bH9TPrDNImYPUfZ9L0Ub4SIN530mANkNPSeG+LaQMrGDzmUWEB+RTkNatC5z2C6n6Uoj1//BEtl2aeQB6MdODekl+ZdGjo7OuhsaaYzLoZEO3PqXO1xooHW+mg+eCQH9+V/5B9b9vDdt2/w1l9CyPp0NznZh9i/eTMH9zYz9aVwvtoRzo6vn+ehq6bjZbi8nrFXs8CrgznNn/BBvJYWjYhWkveUUpC4h0/+vhOX+z7nhQ3hfPP6SpaOy+Kld+NoatVc+EkKbUV0l+6keurn/PFNkb6PX+DeBd4c2LiT4g47Qq9ZxUVXPcjlq57nvU1beGVNMBPc5T2WBgSP2QQGjOf+7n/zbXwD+Q2G2tHZga6ulmL/mXj5OuF5+gJPDs7YdfZgW1p94d/z93ve2hrrKd62kSgLnXjeHETXoVs0sF2oRXr0z2NBHuUVRUQF+eEgrKwLWatMjE30BsRgucEZw/htOMy8izv+8SXfS+3id9/w3XMh1FcVE59aaghxJiQV4MbMU9qNDbxys5r8bzeR0zaRq94KFwbQBj56rJP0hBMciiyRasbZ8ZPt1WaK2/M49N67ZHb5MEvEsWNvr3v2ltlMt4hD3dGM7rK9fPLdX7hphpaSTSnERfqxRqTvcymNn6xjhm0LcRuPUSl6Jrq8ElyWPc19fxdxTHfg8Ftf0XXLJ/zt2UeZ4azj+KFt5Av98f5P6Q9hVTfX9sUbLuIV9/NW37mi/bcezaX338HUix9k3SNv8877/+Nvl7lhY3H+Rh+HnkIu3symF9dx3fzpLFx6JQvfUjLriqXcInrfDqJR0FXmUqTbzjt/vom1UphLV3L1XW8TFZOh7zUXmY/HOGQFV04B5c+8yPKcOAuvUdPI/2YLZe2isZGELY20qa2onnAXl09T4WkP1t7++Np747f3OCmdGhr1Z19ArPxRivu70nB/2Nhh7eRKgPhzoC0TmR9j5+lPyKU3U7F1PyUl5fzWuYeDTr/n7dLLr+amLeO55LqrxfMWjENLPg2RokN75cVcLj1r/7eR76pDefPfKxhnd2G30pwUOoVb1t01KO7a62/C0nIY7OJdF87O1/6PW6WyWrRQlNfnHD+YTEtDI/2mHv4yOi1UllLpvBiP0FnMDRSKQmGO29S5jM2tRJNdSLYh6C/yU+2VToNZRbRoU+di5dkbxym4zMKjfzteV01DcxSHI/7D4yJ9y6Q0rnycl97ZRU5xFRWm5ugC5jFOdIC9PEUcfsIQGT+Xmd7m2AuL3tnGHm/RsdT+nP5oaaf59HgdDefqb2rgGXoK2X4SkxffzO333ca6K8ZjltWiHyqyEA2AaU83Pd3GaLwvYdEN93DfI0/w0GNP8ciT/+TFl9eyyM2Ung4t1ZZ22Inn5+dGl82cJuEfEMwyt4NEZndSLU161eno7jGhSyksGCsTzETHx0TErTBVYN7cQkd3z4WftWxijpG4P3vD/WFigrGpGdJg2tDvw488TK28cRx3JStHRVFRXU1OlRCKOmNsZ497aTJVFQ1U/zD62UtTPc3mRrS6OeAkDi/oQ9j3vIln6f8eeZTH7r+eZdMD8ZGeN3MnLP2XcO09D3PfusWEOdrQU9qJytsehYnxBb1vS0sVTk7Og+IcHBwHfSe8c6JbrZ8l/f27u0modGHSOtEuPvwID91zBTM97LEW1qNQseeGRkOXmS0Kkc/WoudlJNJvprLGorOL7g51rwFzNvxke9WDUVebaFOthbLvjeMUTK1E3P3acW0XWptRuM++jjtFXX1Qavv/8CxP/1Ok8875+EtzCSzE/ZmbCX0h4jBXohTHVgpjTBWmmIp4FdJOHEJ/qH9Kf0zwxPH0eKUREulc/U0NPEOvltmMYez0pay48Rauv/561l2ko/h4PMdjC6gRBWlsbYN9jxr3cfOYddkaVt8guRuEu4jgQF9cdR0oasspFaaKtPj6T6JwwtlvNHPm2lC6L5bS8jrazC1EQ6PGqiqajGI1zR2gbqynsaORhrF+uIkaNSwGf9s66Gps1VtrZz20JPPrEA+wuWMA85e4o87JoTCtiEZTG8xtxzJrbCWZqWkkZFbSrg8sdedKSdsdTnZls+jRj0JaR+qCTrfre96k52j19axeGsJoZ9EoSX4KO8w9ZrLo6hu45qZ1rL1sAhPMi9n8SQR5bWrE4yEzFJDm2rTmkJTRic4xlEU3reG6Vddy2RRXnKzNel+zqbvoqW2kWdetV876dq26nFrx90kjo6/dEMqt28YW69ZsmsuLKaiRotDSUlpArZM1pi72/OblV4xErbf2wc20AE1Tbxw/i8oKS6FYXWyd8Z+3hpXX9bX9l7FofiAuIsgvPkdCfxj9nP4QlvVZzZoWedTZ1snp/ezzwdDt9ikcRU/8ItbeG0B35nGObNpDeG4NjVY+hDpkU3AiisP7I4g6LlxUFFHJJVSLxmWcuxWBLansPRDB8UjhF59BQWXDGRsPhYMHTlOW4VuWTntbA02WTtiLCjdRmUjEvkiOHo7g6KEEUis6sV45gzFKxQX/JOoXEflmI5p/o+p4ImNiSBE9k5ZOWS0PJMYKJfbTr8Rb3YJxfSk1opaYq4KYd9NEcZxK0pE9HJHq6fFw4Taxa3cmdTpbxoSNQRrFG8K21w9YBzN1YShzQrXEr/+cHeHxZJRKE6tKyM8uoKmhgJTYXCoa2s7eepI5T4gaZOGGo68jlsbV1KRKbeJxYkTbV9LUSoepNSqFBR7aXE7EH+e4qIvRMaJdyytD2sBSr7D7txtxJ0hpc8HTqhJ1UQwHdklt6XEO7c6gZZwwTIJ98ZTO+S0Yiy6fQwihfvX0VPfGoW/LhcssaRBGkCFcH9aeeDtqcWg7wd5t4n4iDOHj08goqkMtgvzi/B6F6Gg6+jDV8Sf0R4v6F0ZADfmsq6CxIJaYpFSyqtRoT66U89sZWm2BsanoxEhDBMa9w69mQv1NupeHbrbDIe9b3vzLRiI1c7nx5fuxyfqE9fcu4ZoVwl1zNdc88jn70m0IWjSZyaGlvH/XEm66Wvjd8jfe3BZHmZG4pri+QvSypBltvcO79qhsZrPuyasICPHCzMQb/8nLuOWfV9P68V387ZYl3PKn3RwuCOaJO6ZgrRqsgYvT6MsXU3HvJr1pODk8LdJl3F/mMIeQaRZ4Gb/Lczes5smv0smokpvI88rp9VRvT05h+drLmLNkAuZmJphY2OJ62b95YqkpZtHPc4dUT1dcIdyfSQi6jWUPPsTtsxz1Z18wfpSOfpxeryQ8ZjNp8TL+cWUWnz3wF778aj1vvf8F77y0ntTk9/nT2tfYHFNAhSG4zCBhogTX5Vzsn0Lp3kf1de2GtWv5T6bo7omOn5tdsOj8hbHmylQ+emA164T/o+/vJrzRm/GifPVzT05pN9aIdsOC0Tdcz3iHXPY8voRrV6/l3nftmRQaxoKZp0yR/TFn1V4phMyNmatW49ndG4e+LRfu2S9jSagW9yWeox/qZSDTV17DouWupD+9hNtWGcKve4q/fxRNjYjTRMSjb9tPr7vCGpfuxczMESv7uax79Sf0R0a16LycFu/Jc4WsL5/nV9Gc8A+eeeCP/Guv+Ft9/gyeobMfco9IlLaZmvpuTMyV2EjvsAzhtK1V1Dd00N4jLBE3Z6xppq6yjuZ20TuRAkjDH+YOuLnaYWWipqO5nrLa3o/6yfyaD1LMKbGbz0d3BlFbA7bCCrZUmvUOcUjfzXXUUdZkjJlShYONKER1I5Vl9XRIM/dQYmFlh7OXvfhLRCWdM8Ccstdp/3wRT46ZcE3iXp3cbXrf4+k66GjvoK6fTNtaQ3NDDfUdpiJbvHGxNUdpNizssCHJT5bHafWUzgbqWrr09dTNxVov1+nrbjMNbV29YQQqJx/sbKywGuT+3VmnQ+IM9UqqQd1d7aibqimvF+lwsARNp3jeWtHofa1x9BKWlpXFgL5zk/cCPnMedDaU0NDUQrPof0vvfM2trDHSmWNlrRLGRA/apipRbp3ivB5MLZSYKSwx7jb/6XZD1YWmuVHU33Mo33Ntr3raaKlrMMTRi8rOXrSz5pgam+FgeI707a50bksj1ZUNP1jEplZYWltJn0f/0LYrtGhOj6O5i06tuJ6zClNxf7UVZ9AfjiboxGPaJYXri1fbQlPfuQaZ2pDPbT0qlPYeuAmd0ffZ0q9BKsu+/ZCHjkI+T1QnbyLm4GZ2pBkEDQpUMxcwRfSEbhzrYBAObeQGZ2gxUspDTsfI4cLmQRVlSZHsfWMzieKoT5H2IqksL+asuYk5YQGMGuhVYkYAUln2KeQRZzaZmClRWjtgb29w/lOZPimE+cNEGcvIyMgMbUwwUShRifbVrq+dPenshbPB0lxYjYMxnDjCOGkhS3uJ9n4AP3iEh4djY+fEuAkhBomMhKXCWL8bkForW8hDgZFSHnI6Rg5yHowcpLI0NUwRN9qwYUPPpEmTcHBwQKM5dfBhoElKSsLDw4OQEFkhy8jIyMj8vjFqaGjssbRU6hdl7+kZ3N5WZ2en3iq3sBgWX/fKyMjIyMgMGEY6XXeP8W+YISYjIyMjIyPz25G/hZGRkZGRkRkCyApZRkZGRkbmggP/DwKpzFWE5UduAAAAAElFTkSuQmCC;" vertex="1" parent="1">
          <mxGeometry x="82" y="348" width="484" height="159" as="geometry" />
        </mxCell>
        <mxCell id="5J-S47VIE9dTWKWTMMJz-19" value="" style="shape=image;verticalLabelPosition=bottom;labelBackgroundColor=default;verticalAlign=top;aspect=fixed;imageAspect=0;image=data:image/png,iVBORw0KGgoAAAANSUhEUgAAAgEAAACJCAYAAAC1muv9AAAAAXNSR0IArs4c6QAAAARnQU1BAACxjwv8YQUAAAAJcEhZcwAAEnQAABJ0Ad5mH3gAAACHaVRYdFNuaXBNZXRhZGF0YQAAAAAAeyJjbGlwUG9pbnRzIjpbeyJ4IjotNTYwLCJ5IjotMzE3LjAzMDI0fSx7IngiOi0zOSwieSI6LTMxNy4wMzAyNH0seyJ4IjotMzksInkiOi0xODAuMDMwMjR9LHsieCI6LTU2MCwieSI6LTE4MC4wMzAyNH1dffTEv2wAAG6JSURBVHhe7Z0HeFVF+rjftHtzk9z0XukhIYHQexNQQAU7Ylu7rl1X9+/PXbe57q67brF3xUJTpPcOIUB677333pOb5D9zc4MRAoKSEOC8T+bJPd+ZU2bmm5lv5kwxamho6jIyMkJBQUFBQUHh6sLY8F9BQUFBQUHhKsPo+PETXTpdu+FQQUFBQUFB4WrBZNGiRX8yNjbGzMzMIBo4SktLaWtrw9zc3CBRUFBQUFBQGCiM1q1b1zV+/Hjc3NyQxsBAEhISgp2dHf7+/gaJwmCmq6sLnU6HiYnJgOvK1UpHR4c+3k1NTQ2SyxMlHFcOShxcOci0PGUE+Pj4oFarDacGhoMHD2Jvb09QUJBBojCYkQpTUVGBjY2N0nszQNTX19Pe3q7PJ5czSjiuHJQ4uHKQaak05xQUFBQUFK5SFCNAQUFBQUHhKkUxAhQUFBQUFK5Srg4jQNdAQ1UpaenlNOo66TSI9XSJo9Zy8nNLKaloQJksqXDV0ZM/0kppbCwlV8kLg4PODqgrID05jvDwcOKS0ymog44fFWDnwbnKP4WrnsvACOiiS1TUnZ2nOyn/wZ2TugRiDqzlud9sJrmmmWaDWE+HOCrezDv/XMvXWxKoMIgVfi4iPc5Iq15OppfBp8LFojsPdOcJg6iHC8kfz60lOXkt/7xkeaH7XX/8vvJY6k4fYRu0dIfhF+t+Wz1d4W/zmweXM23aNJY/+CLvRkLDhVpnZ5R/3e/3k3rxizhLHFxIPPT7OypIBrcRICvoos28/esV3DB5MpN/5J7m1TffZ51Q7mdf2EzS6ZW7wiWgjsKYTXxy32TmTT89vbrd7X/dxJZ40ZxRuHhUHGXLm0/z0Ipf88LmImqaRQtSUhevL/wvm/whw/H1Wt54+yhF4lAfiuTv+PjV+7jxgRd4OwLq26RwkGNIj9tP0/37Xv2Y75INfn6SKurrTvL2H9IYs+w1Pj8QzrZV/+HpSWClMnj5ufQVzxebs8TB5Mk3sOLXbyPUlB417ZPLTXcvYwa3ESC76tsqKKx3xDngWlY+/jiPn3I3sGDWVAKHj2XpEj+czM0Y+OWOFH6MGmtXfybd9jgPPSbSaOV0AoaNxNppOreLNHtUuDvn+ePnMrBTUa942mupbGwnN7uU6n1fcbSwkYpWIdc10lBdRkZmBU2XQzewDEdpGfmFtbR1ttJVEcyGr46RXO5K4IIlTPcQGmZi8DuY0aeHOZ299F7mBdfy4+z/9F2+TxEVoM7g92y0NtJemkNklhaHYX5MnD6BAN/heGjB5Jdu9dI7nsVhv7S1+4oDvbuXFTdOw0+Ew+xctc/lpruXMSa33Xbbn+RCQba2tgO++EN2djYajQZXV1eD5DQ62/UW4b4oa4ZMW8g9Dy9n7sSJTNS7EQx1NqGzroGiCmM8htijacsnLSyEAzsPciwimoiIHBothdyshqq8AoLjVMxfHoiTsH+zTvmLICLsBIdSNLj4jmTSBE+Efir0geyaa2pq0q8R0LeumKK2csRt9ESCxos0GqqjqtISnXYSj718F/NEugX6WNCRH0VqfBJ5qhE4WwolNC4nNyKB5NAkKlQNRJzIID8pmOiI4xw9HkFsQjI1liOwtlBh0VlKSXoke77fTYhIu/CITEpbTVE5OmJ7BVqBckVN2YUq88lZaUglOqWF4jIjJrvns68rAD9Xa9xNS8nLFnofa8z8BSoyEyqoE00qa0crzLpE3mpI42RYMRVVBdTU13AyBubPhxjx39bNk7EXMS+cdzjiqimuNWHCuDbCV2/leL4t7rOWsnz5fCY6tmPSKN557yEOHwrmeEQ8cYmldLp6YmXeRk1aWN96FVlAg7sntqIF/Usr0PNPjw4aeun95DEeWDYVUJiZS1zdcCYG2mLVcZbyyrqD1twoQlZ9x3cnSmixbaZKJFxVSRWmNaFs2x3CydBw4T+FrOImjF1dsG1NIzxcpOW50jfOTJR/Q2iM2cPRAxFEZhTR0l5BaacrDlbmWKnPr034s+NAX24H4j/KAWudMHDWbyO2Rk2nxhpH8yZaypLY/30EFWozqgpiiT+4nz2RhXR0lVJeXSHqixryUjOoKTjA7oM1dDhYY9qaR17kAb7ffUzEhyjLr/Dy4GIj0/LyMAIOFNEglM5Cq6OmqIgivWuktS6Z5Lhw3v6smAlLvGhPOsahDVv4dss+QqJiiA5NoVI7FAdbcZ+aMo4bMkFX0g52rd7IV98eJjwxWhQ8qaQ3ezN6UiAzFCPgrPy0EXAaPYV6kx0zF/liLUTG1JJzcDUH9xxkj/pa5g41E8abqNS/3s32zeF0edXw+b/2k51ykMiYUI4cCSEm7BgJzGL4UBWa8jiitm1h1eptBEdHExWWRGGrFSr34Yx2M0c2FK+kPTHPv/JspK7NlhtvdmTN4XxGenjiadVIWb4wAqI6mD8tj7XfZFOls8JX6nhHC5Tu4O2P0ygRFYTGtrvyv/RGQBGZ2aU4GKWw5utKRt17L4uvn8xYm3Y6WsspOrqddas3s/1AMCcj44iPz6POfRxDXDqpC13H4b70ak8RNgtmMUwYBudsfZ4H5x+O0/Te3BXvodZYGLWyf3UmgTcNQZd8jMN9lVduxhgXRbLzfxsIbqihoiKX7CIdtY0tuLUd5KNvDorKPZLoEzGkFDVRN3wsk7r28dFnIi3Plb5xJqL886R437ccOXiCsIw8CosKqHaayVhvW1ytz6/WPO84EEZNak4Djl5m1Ioyu1iW2xWihd/ehGlXKrtf/RsbM2wwcnZjhF0FRcHf8u4H0bQN96ClKJbkvds5kJJPcUEalU1lRB7PJFK8d03NYTbvAOfJvjh0JpO6bx3vrDtMtCgPoo/FkN1hg8nQ0Uxw+qXfTa58ZFoO7s8BPeRu5dvXH+aGadP0A2S63XP88ZNjpOg9yE6tCL77ezIN1rfyp5MnORmyj5ObbkKblkjM4Z5BTj3+VpFYF8iKr8IIO3GUsC2vcO/kYbjo/Sj0L44ETJjKqAm+7Bat/JbWdrpS4kmxsifvmmu5yVmHJj0H1xte46XVIn32rOH738wm8j+fcChhG2vWx3EyeCRPiTQ+KNN5+5Nc49zIiTVH+u/75uWC/UisJ9/HX1RvkpySQHC+QX5ZkUVqxH7e/W084/75OrcsHkeArEWppr4qlLcfzmDInX/hPZn2h77k+39PJPnzXSSntuJ9Nr2av4ib3EFzqT8lWNtgqbLCK1m0VttD+eqs5VUtdpOW8sKXzzN5xvP8/ZNN7N/+Nl/842mWPPylaBQd46S8ZsNLPLFYxcei9dzQ1HYe3foyAtyZc9edLFjxPLfd+yYbDu3h84fHMs7jHBX6z6XsJBGrX+JmUV7P7Cm3lz3Hk+8mUG83jyc+fYqRRbnkizJ4f0oSO79IYPJ//8atixewcvl1XP/Y88yY/Qpf7j3KV3+4jeWuKTQ3VNGy7CjbDvyFR2aPYEzAcm5+5dvu+JBu1e0EuDWw5VB3zaDw01weRsCQm7jz1S/Yre/u6XHv8NfHZuMnz3eIol9YtMXNB1n90fPcO2kSk6bOZtKy1/nquxOklVZT3tufy3V4TZrOfP3FCgOO1xBcbd1ZsPM48S2tHI8/gSUNTA8QCWKqBr85+A9zxMdG+LV3wHzyZJaYFWGSnE1W/kn2Bb/B4yKNp8t0XvwbXntLVAI5pYoRIFBprJh8+2O0JBWQExV/+c12KQUnY0sm3OXKqg+2EZpaSK2UNzfTUZROTsd2/vv8Sm6WaT97GQvve5+jIUlk1jdReza9ChxkGf18y6vTaS6kJvYTnr92HtfIa25+nuf/e5CO7AKKdB2Itv/gwmU6k+/9D1tFeR3aU27vfIcPn5mLu4kGE/ebuftOY1riP+D1v31PxPyXWDJUy1ntEXE/zwk3c/skYdD1NPJr44nZ9Fd9HE6TcXLvG3y0+iTNxWVKeXCeXB5GgLkDTt6jCBg/HrnPQbcbjo+rDXp9kdNI2lppcw4k8LoVPPLEEzzx5FM88dyrvP73B7l78Rhh//byp7JDbWWNrYUUKgw4am+cXOyZOmwn0RkxHNlvh0mzF0H+IjXlxkQaGyzMzboHgZmaYWylxd64DaOmFlosvHGddhMPyzSW7tn/49U/P8Hzj8xiqPSuf8DVi7GZBVa+d7BwaCmq5nRCcwwnLhes3HEYu4CFd97Go14nORgSxt7YMv2c+S5Rord4z+Ka23/FozLtn3qeZ178HW/++y6uHSOuO6teDZKM3thIS3szZd7O2HW0w0+VV71pzCLjxF7e++dJjObcyfKHxTWPruD2awLxFgaPiJ3BN3jOzBqtyzDGiPI6qKfcHjOcER42qIyMMVI5MHKUIxqjBvLzK6i38cTe3ATV2WolcT+1lQOOWqHn8ptfbQzHNu1h864KXFc8wYOPizh55CauC/TGua29/wY9XmFcHkbATyErDq1QOFMTPIePZ/ryh3n44R63mHkTvHHs7a+hgrbKasqahJJ06KgvyKW8qVG0GRQGBmvs3d2ZsFBF2vdriK7yRuU6hjH6RDqN5iZ0JcWk2Xui8XTGzUaNq6MnAUse5r4HetL4JpZd668vOC+HweP9ipEwg7S+TJnphq2unNTgZH1vgL5FVNNAS0MLjeLnoNV7Szs0Xv6MGDede68fjmXuUcKCQzhZ2I6xyLt2Rl0MHb+IRbf3pP39ws1jgre90KoL0KsBp5zcyAgSorIxWTgNDycnnH+qvOpNaxkl+Xkcibdkwq0rWSn83rtsNjN9ZXeZgQtJX+GvvboBOVn30lSUUiMLyU42EYbCWKZPHYJVeAiplW3U9cyckJ90ymup6+ykz8kUTXmkppWRWefDQhEf9wt318IA/D0tDR4UzocrxAgQRb/DcEZbF9KUGcae3eH6Fbb0Lj6HvJ7Vz3r8aappyY1h/xHpJ4LQsERyRAaSmUdhYNC6eDNq1s3otm6n2d8Nuwm+eMsTcpW0pkJyU+KIlukXHEnUoUyKZs7Be/J4pno0Y1cTxvat4Zw8aUjj2DRS82uQs+IUy78bm3FzcddoscpKIFe0ujpUTrh01YiKIYET+rwxuPXeRG2Bw6x7ucW7CpL3s25/Grk4E2QRR1p4GAcPGNI+IorwpCLKG1r1FcVZ9WqgaROVV3E6ceIdI/TxfZj9+yJJyelk6i3zcPP0Y9xPlVe9MbXC3N4Zl+HWGJfEkx4bTlhYDPFpeVSI9O28kPQ1s0XbKaQlMRyPiiGxqIGG1n7oRzgjDqSLJSE1m5KGMnJjdrLzUCd2o2/k8XtmMSZqI5sOibxc0USLDK8or+1q4oiMjiA2u0yk8WmmgAyHmwv2Tl20Z4UTExlOaHg8aYXl1Bi8KPw0l4ERYISRkXSGw9OQ54yN5LzzSdz+ygME2Cay4f5eAwjv/Bv/2ZpIZW9/j4zBtG4Tv71hGnOX3MQrMVraW6xwvZKGlQ8Szpp2GnvUXjOYNWYcC6cOY5i3fvSXfn4wKZ/y98du5VqZfkte5O7/WfDMH25i7rgFXL/iDq5f7kDkU9NYMseQxvrBRkcpFpdfrd8Az4zn0cxeci13PDodY1MLcL+Ju+40oS3xX9wv4uzHet+dx4z1faznzm/9zQ/PNgxie+YZ5jrXUf7hW/wp2Jd7330CbcwH/Ot2Q9rPXsC0+z9lc2yRvlV7Vr0aYIzKQ4la89teg+L+xPf1k5n1r3/z9CQVVqpzlVdyILMhLUSayDjBOgBvHy8Wa//BczfNZ57we8+/N7Gz3B1/kb5m55O+3RELjnOYMNUUj45/8/yCJTz6aRyxRRd/OZ4z40C6Zdz15F9YHXeQfy15hUw/f7yW3MWNYybywPNOrH/xQ3ZGZFAgwxswiusnr+afty3k13/dyPb42h/rpQzH0Abss354xlMbs0ipdWBob38K58Ro3bp1XfJbjY+PD2r1wC7icvDgQf2e1EFBQQbJacjFgtqrKSztxMzCAjsHyx8vCNTRSGN9EyVVxrh522HeVU91aQVl5XU/DJKR4wkcNPpVtip7/LVVCT+VFFc1iUxmjMbWFiOdGltb7ZnPUDhFR0cHFRUV2NjY6KcJ/iRywZDqNpraVbh42Ojj9VTerEqlNHQ1S98y4pGX72L5bF/cWrKoSNzEg/+vjHn3zWZikAfWqDA1s8PD1wVrMxNMZZpXV1KQX6lfRUzf8ldZo7V1xPv0Z1wBnNfe7WeL59ZaausayKs3F5WhHaaNxZRX1FBe1/ZjvdeaoJL5oxLc3Lr/q/vKb7+Anx+OJmpLyqmubqfTyRNvqwZKC0RLr75F/80XI2EsaJzx8rTHzlKFSV96dRG/EZ13OE4vhzDH2skZRxcHbHoitS9/srxydsDFzgyjllryhGVr72qDVoStq1m0rMuyKBTNXJ0oGlUijczUVph0muvLNZOfSt+e8s/UWDy6hOqKYkoaTUX0DcPTXoPlWT/G/5ifHwcSFeZaKxzctLRlFdLl5I21nQ02Js2011WQWijqdm9H7Gw0mPQKr6mVNSZGFmjUFj/S8VZDOIoNi5CaW/ftT6FvZFoObiNAYVBxwUbAOahPP0Tsd7/jn7zBM7cHMXukFnWjMAKSt/LgH+DeV5axYNYwzlHMXBWcV4F7GTBQ4ehTrwznLgZXSnr8EpQ4uHKQaXlljAlQuPywcMRq5FzuXToWP1dDQW1mjbnTWJZcP5bhbtYXtfBWuEroS68UFBTOitIToHDeXMyeAIXzQ+kJGFworWAlDq4klJ4ABQUFBQWFqxjFCFBQUFBQULhK0X8OsLa2xsrKChOTiziM9jyQGwHJbmWlW+nyQG4g1NLSgkqlGnBduVqR3a5ys5aB/lR3sVHCceWgxMGVg0xLvREgv/FqtdoBL9gLCwv1iuToOCiW9FJQUFD4SWpqakhPTzcc9T8jR47U7/KqoNAfKAMDFRQUFC6A1NRU1q5dazjqf1auXImvr6/hSEHh4qKMCVBQUFD4mXSvcPjDcjQ9v/uS9z53On3JFBQGAsUIUFBQUPiZXHfddUycOFH/29LSknvuuUffqypl8lwPPf7kOelH+u2hL5mCwkChGAEKCgoKPxM7Ozt95T516lSMjY1xdnbWf1aVA63luR7kbymT56Qf6beHvmQKCgPFObVOjgDV6XT6RWLkyHAFBQUFhR8jy0Y5w2rcuHGYmV2s3RYUFAaGcxoBsvKvq6sjOztbPzVMGgX9htwsqLWc/JR4YsLCCNM7uV1mItnl9Zy+i+QF09mKrqGQtOhIkrLLf9iWsue5uSUUl/exhafC2ZFx2lhCWloJVfXdW7meFSWeLw7t1ZTnppIUn0JauYjzToNxrmugvkqmRTmNuk5kTtU1CD3PjjfkpW4Xk5pLfvUgiH1DOOJjk4jJr6O944eypb2phsrsSKKSCykXYSouLiE3v/rHW0WfCm8JjUIHcy+hXqWlpekHCwYEBChGgMJlx0/2P2VmZvL+++/r5/S3trb2nyHQ0QzFm3nnybtYPn06M2bMEG6ucPfzt40xxNd2/bK94psLqYn7jBeXLOTh1zeyNb62+349z/3nOr7Rb+GpcN40F1GTvJ7f/mY9B+MMW7meDSWeLw4VwWz9z3M8vPJJXtxUSHWTYfPkugRiD6zjuRc3k1zTTLMwumrit7DxbysMeUm66Sx/7t+8faSMHtvhkmEIxx3LH+SGd8Ipq9fvCSjoojojmJ2vLeDaxz9jkwjTN9+s45/vBP94q+ie8D63juRkcf4S61VeXh6rV6+mqalJf9zTc9p7QGDv3tQeee8BgX3JFBT6m580AmQPgDQEPv30U5KSkvq/R2DITax4dRW7IyKICD1IxNZb0e49zOF1waQYvPxsTM3BbwnuWQcpjD7EEaUm+mVoPLD1v4v/vnUXC4M8sDGIFfoZFz8sLe1xPfwvtmXXU9jHVvAVR97m4y3x7NU+w1aRl0Jlfor4hpcDayl771We3yQMuOZTVeqlQYTDzcmDeZlr2J3X1B2O2njRqo/muxw/fHSmWHf7vOyIjIwUxkkyjz32mN7J31Im6RlAKOWnDyrsLVNQGAhMbrvttj+5ubnpF6MwNTU1iLuRlb20cPfv309tba3eSStV+pWDWX7pQBb5mUGj0eDq6ioe1i6s+3j2hZniNHocC5dOYqSbA65udcSszaXT3gmfeb64d7ZC5XG+e/8zVn2+mm+37mffoQx0I8Zgb6nCsjWL9JNbef+1d1mzdStbhNsanElaeQueLnXsOWbNLP8mKi20pLW6cO0Ii+7nHm/H0s2TsWPUGOUc4CNx/eoNG/l+ayzxuR04Tx2qr+SUdfJ60VZFU2mMSIMSLDW5JMRlsXfbMYoT3+XdT7eycdNWYktF681xCO6muRz/7C027A8nMjGKpJxCck1GMcbVHJWp0vI5bxpSiU5soqLGjGsmNvBNkTdBHrZ4q8vJyy4gOM6Y+ctVJHy+l6xGT4bfeCu3z/TFR+QxN1c3XDSttDfVcSLFghlzfNBqTPlxrh8gDOEoLutkum8hYaYzhS5oMcnaRXz4XpJMx9NWacf0KcbU1EBNkx0zF/nqjQJ9qdNc0B3eGJg/H2LEf1uZfyd4opXn+5HKykoSEhL0v5ubmykpKaGhoUHf0pcLCcleU7kxizwnewbkomiyrJMyOcaqvLycgoICvby4uFh/zekyeb8eAgMDlQXVFPqN86rFpXJLpZSWrDQIQkND9YorFbp3F9dFR/Y41NVQLSp3naUGS5ppa8zm5NcnyCiso0mlQmXUQkdNEnt3xZFVkklqxEGCN+8lolwlamxxvr2QzMRkToTn0SCC2ymKEZ8psxli10h78m5OFoq67FSDqJbK3EiOfLmakJx26jtUdFZnkB57hK+Fx6YfPCpIdPW0VCSyb0+iKOQSiT+xmz1b9xJeqqJLxn1tGjGREew4mUO97OY0NRGGo6h0TM0wMxP/TZTK/+dhjrXrCPyvmYNz9gbSMnPJrTWc6hLGdH0q8UWWWLmMZt4Ub32l2B3TjniPn8C4ySPQRiZR0t5Oi15+qZDh8GD0nNG07ImiOD2K0NRyMoutmDnDG5V68JvcspdUVtoSuQSrNA5kY0ki/0dHR+tdXzLp5LV9yRQUBooLaspLyzZGmNy7du0iLi6OxsZGfW/BRTUEmsspzU4iWg5kCo0gbH8KRUOcUY9yxbGzlsaKSNb8K442rylcc//93H/vUm6aZ0ncukOkph/n8NFwwuLNmfPq+7z5zvu8/49fc898f1wNt9fjPZfZw9RM0wWz+mgZ1a2d3d8adUXkpUSw4etsRjz0Z17+z/v879XrWDCihPWfhFHS0KYMaDsXTcKiMjXH9rr3+fu/Rdy/ei+THI1JiUylQePJ9DuWETD5Nm6+5yX+8Opz/HqmA1bqX9abdNWi9UDrt4RnPY6RnZxCWKZhUJwcYFdZTpWdFxoPN4ac/o3G0hJzUw3OeeVU6zr0g+0uJWpHd1wnX4df1C4SDn7JriwVZdobWOgnTIRL0kXx08jeSw8PjwFz8nkKCv3FBZfAsvUv181etWqVvgurra3t4hoBuVv57u+PsEwOZFpwE9PeMWfW8ut4ZFkAjs1NdBRnktO5k3deuo8V0s81t7H0oY85HppGTnYuOeZ+GI9fzq2TRGZVGe7ZB15jp+M9YjLZ6zaT1ygHUglhnTAyWq0oHfsIN02zwtMOrL2HMdTei+G7TxLb0kp19+UKfeE8Dc/ece/kgrONLUO6zypcZFQaKybe+hhtKQXkRMdTbpDrkXlSuHPnzMHQE2MvwjGGGUsPsWnVx4SnNzDs2tm4izODtR/A29ubRx55ZMCcfJ6CQn9xwUaAHDcg17F+6KGHcHJy0u8od1EXuegZGBi8hf0fPcyc0ipa65vo6e3E1BL8HuN3n23hoH6wk3THhPsLj462RlVbTY7B6zmxCcDXz58npx1lT0wrBVUGuYLC5YKJaCG638Td08qxN83iUKKUiarT3RO30jTq07NIOn3wa60wdNsayPP3wsXMhMHQxpTGzKTbHmOC5z1M9fYjwM9wQkFBod+5oNpbzoEdO3YsS5Ys0c+JlSNaL/oqV+YOOHmNZMzkOUxbcDu/e8CExC372bg1lly1OSb2trhVRFDXboO5e5B+86GgoLHC+eDqN5KhRu245KTrCz/duSYxmFhi6z2UwGvGUvv9LnJzi6i2tEJj1oR9xlaOJjRTXg+NpUUU1ZVROC2AkSqzy3a08qChuIrG6npqDIcKvwAjkfdUDoyYE4Rtcx1Fe4LJNVKhU41j2jRTmuqS2LojRj9trjsr5BK7dy/7N0ehmzYeN6HPg8EIMDazwMr3Du7/3VPcf/s0/Hu/lK0d1m11mJ2Wp/X5siSPfDcnbEUZdI5OPwUFhXPwk7MD8vPzOXr0qH6rYTlKdf78+UyePPmU/18yp7XP2QE9o/QnDcfOwp7hXu2khkaRnJ5HCWrsPDywKzhBckE9aampZCSFEx4VS3hOJ5YeDtg1lNGSlcCe7EKKE8KJCg8hOLGJZrUN08fDoUMwfrYvw7ztsFSbYWZlSeuxvRxrcMN1QgAz/SyxyA3nREYjhRkxxByPEYWPCrvly1jh74TW7CIbPZcz7dU0VaSyRcTpOBG3Z4ziliPA46op1stGYS3SOPd4MDml6WS1dNBk7I6XrZkyQPBC+FGcdsez2kZLR34OBSm5nDD1Z8XyGYx06aSptpjslHjSstNICA8nIvwgEbEV1JqPYfrya5juLccHXKK47x2Oa/2wVjviNdIDdzcbLHrr1TWj8bFooaMwg4i0bLJEno6MEPkzPIX0Bis8Zs3kevdiju9JICs3WxgG6cSFxxAeXg1ONljZWmBueKSCgsKZ/KQRIKesyFkBsuW/bNkyJkyYgI2NDSay2/EX8iMjoKsDWkpIyTPHyccTX19nLIzNwMGPUdpMCtPSiEo3xXvO9SyZbauvTEKPHOZ4bCyx8anEVjjhPzaQSaM1mOgyWLduBwlx4lxkDPE11liM8Gf5VHvR4rdi3NRheLlaC5NCjZmJPX5DdKS1e+A1PIB5U0czZrSaqG83EhoVTnSuJdZDr+GpZ2fjJQwAZYpgLzqaaGuqIlHE6dhxVkJghYnKifFTfcQvYQS0llJQ2iVapkI2bThWFt5o246QmRpKSFIzze5TmTFUVESKYXX+9I7TnnjGBhdbUzSOFqS3enD9vBF4+AQyUtuAaeERPl9/hDiZT2KzMR2zlIUPPMF9Eywu7dTMPsNhoLdeTR3PxIlOWJsWcvDz9QSLPB0twpJU64LT2KX87r5xOOjKSAuPJDEhhkh9OJOEM8Z92ii8fOyV9SsUFM6B0bp167rGjx+v38lKzv3vjZzyEisylfDDk08+iTQWpJ+LtaLVwYMHsbe313fpXzS6uujskjMWDMdRH/DasXai1XPZ8sQEg1BBQUFBQUHhJ5tgQ4YM0Q8CdHFx0Q8CHOxLWuYFf8THT09i0iSDuyeY/AZvHr1jtMGHgoKCgoKCguScPQHyc4DcREj+l4MCL/YgwP7oCajLiyYzOYqoAoMAT0ZM8GPMeG+UNbcUFBQUFBR+4JQR4O7uPuCt/JCQEP0+2hf1c4CCgoKCgoLCeXHKCJBz/mWrfyAJDw/H1dWNwLGKEXA5IG1EE+PuRelOjblQ6Fdk55s0zXvttHtZciWFo7WlhYqKgdt9zM7BAXP14Fk18EpJSwVDWp7rc0B/Iz8HaKzs8PUfZ5AoDGaMRc63tjCmsbWLdp1iBQwEGpURpiKj1rdc3vF9JYUjJyuNVV+tMUj6n1tvX8mIkaMMR5eeKyUtFbrTUiSlgoKCgoKCwtWIYgQoKCgo/EymTp2qX0ZdYm5uznXXXadf90TK5LkeevzJc9KP9NtDXzIFhYFCMQIUFBQUfibDhg1j4sSJjBw5Uj+DSi6qZm1trV9TRZ7rQf6WMnlO+pF+e+hLpqAwUChGgMLgp6sTWsspyC2htMKwZe5FQ0drQxnFKVHE5FRS2/wz7t7ZAfX5ZCSnkp5XTo2y3/RVhWzJ+/v76yv5i7GSqoLCQDIIjYAuUeZ30KHT6bctlq6js9cKgGelU7+eQafeo3Ci4ujokNf9ssErXeI+nR0/vMvprqNTvK8yPqZ/6WyGki188r/1fLsjgYu64WNXLUVxW/jy2aXc9uZeQrOqz9A/ndCjbr3SX6DXh+7zwp/UsfYGiPmAPz/9PL97dyshFf2oEFIf5fodQu9+QOYZw5oeUu+lXvZ+f8O7dup11eC31zkZhh/dTuGCiIqKIjk5mTvvvBMLCwuDVEHh8mDwGQGVR9nx1jP8as5kFhjcr97YzI7EOoOHPugQlUTxFj7891rWb0ugsqWI2pS1/O6ltRyJK6Le4O3CqSBp25u8efcP79LbXbdkMY9/EUdCsXi+wmVJfeIhoqJj2B7wD7546hqmDy/lxBd/4OXeaf3iJ3wZIlefqqKhYhcf37yQlfpz9/Hky98RrbKibcLTvP7CHPzVRWxcd5QS4btfJtymfceXH37Ai+/3eoY+z/yVPz32/1iz91N+c8N8lvV+/zkz9O/65rZYkgoTSNj2Oo8L+XWG8ytefJMPjw3clLcrkdzcXL755hsaGxsNEgWFy4NzbiDU38gNhMxUGhydXMWR7ENNJ/jD7SQWa7CdvZgFsyYycbIdTfUeeNo6MnroWbYCkRPYjcwwsXDB08cFZ6tmWkuiWbe1iRFTRuDlZfczt0w1wthEg7XLMIYGBDFxeCf5Rfa4jprKdbcsZsakqYwPGssoVyssVVf+lxUZzWozI9pFzSMakwNHl9xhMoHDJ9uxcPVkTJCnfsOZX04uibuOEHWyEbub7uf2cU7YlAWTJGrXMqfZLFo4WejfSFS5eajNLehQt1B9+G3CVMsInDmL8e6tdLQXcajRh7kjPXF1VVOXHUN5Zhotw69lpFDXX7o3kpmJ0EER7206g8DYhOrsMKqKE6lx735GybH3OJZWS6XDGOYMq2XvXh1jFi5gzrXzmTZ5qgiDdJOYMF5DbWgYsYfz6Zy9nPmzpjJ5iitqlQtm7Y5MG9t/a2qeEY7LFBmOmupKYmLj9cdyZ9WGhgYyMzP1vSpyg7W0tDT9xmtyhVV5PHr0aIqKikhPT9dPwx43bpy+vJXjCHo4XVZZWan/L/EfE4i9g4Ph6NJzpaSlQndaDiIjQGpUMvv/G02T63imPXEvN04Zx9hxQ7HEAQ9tC53NJRwPq8LG0xaVqYl+l7rSvCwhK8fGSUdpeSdmGlNM2/NJ3buBbcfzaW4vo6bdmHYjFQ7tKRzavIsToaFERKWQXdKEsZsXtipRtgqlPhMzLOw98Rw9nrGBfoz1qCUx3Znhk+dz2303Mi1gDCNduqiM3kdGUT21anecLGTbrJjkvRHk5eVS2CgKjBPJlKYeIDQsTLgI0gsqaLIeKfwKK6wlh7SIEA7vPsDJqGiio7JptLTDXKvFcmCT4yc5wwjQ1dFSniziNJ0WWyvMbSxQ00xbUwFR3yXSZGNJZ2suBVH72br3mAhbhHAZlLWZorJRo65L5VBwKVV5h0mISSE5vxPr4Q5YiPhL3bufEwcPEyKuiY+PpUbXSmQcmHaVYNQUSfBhea8IyoycUFvaYtlWTEXiHraI54SHh4lzhvR1dcW2NY2ICLmtrkiTtDCCwxuxHO6CRW0oRw9kEl/hwY0PLGKYpTGmDZW0OfjhMeU6rp8dKPTPlppdsbSoTWnS6ChYdwzV/X9k6aKZzPBpoKU2n60nLVkyZyhaewdMSmJoKMsmxuJaZvuoMBfx9Us4o8DVOKHtzEZXk8PRDC/G+5Ry4rv9FGp88b1uNtM0BeyJcOO6+25myfXzmTJO6O64IOF88XQoJXVrDKnJFgT94VmWTx3PhKBhOGldcDC3xMu7//bbu1KNADmiv7y8nKqqKn2lL/dXkduvl5aW0tbWph8vID/fJCYm6mWyjJX+pMEg5XLRobq6ujNk8n49KEaAQn8xyIwAWavUkrY3lXpRKRt5W9PZboG9pStDhjjjZJ5FQugx3vuyhHHX+WNrocKsPqFb9kUO44Jy+HZdDtU6Y+xty0n87isOJBVRXJJNpZEVRqZqbNP3sWbdNo5HRhITkygqiWZa3QJFS16j31f9nMV1n61R+c7VJK7/JwdSGsjRTmS6p5A1HOXrf+4iNT+D4sY8vv1gP1WlRzkREU3EiSPCkCgg12wq43y7aEw4wpEt29iy6wDhcXEkiMqrymoodi4ueNqpBtXWxWcYAW2VNOSG8Mnvv6XedzQOQ4QRRBn1+Yd567fhqMYPw9okg6zD3/HpxqMkiMo8ITSW3A4bjJ2tGVK7j7/97TjFRfuJTSgip8qWEXM9MMrcxu6PN7F73zFCk2NJTU8Tlbk3eck1tFdFUZIfzL4DUSSc2ElyVwA2Lj4MURVQcuJrPvzuiDDwokmIiCWjpJHaIWMJ6trPlx8dJyzsIHn5CRyL0DBycSB2WXs5ltlOtstU7lskKnERPmNrH5wcHXA2rqA8I4FMYWSmR5tgPcoSS4s2ElapGPvcPIY7mGOjaqKuvJ60A3UELB+HnYUWq6ZcKhrqOFQ3mhsCbbH4hT1EfRW4FlZmNNW1Er71EDb2aRw94Yqj30wWLnJCU57Erj3FWLua0dVRT2VRIcXFJRTXdKHStFCeICqoQlFhBToIA02F1twRL3fXfjUAJFeqESBb+D0VtqzEZZnW80lA/petf+n6kkknr+1L1hvFCFDoL/Rpafg9CBA1PxPxm5pBZtj/8ezdj3HPx6KlV9tsGJjV7eun0eI2cjLLXniWwAnP8vu3v+fDN25noSaX1X9sYtEHG/h4XzA7v/8LT9/gwLG3t5DX0EyL4eoLQ1bRbsxYOB9TO0siE1OErdBKV9RxIkdNwHTyBKarm0TrsBGPJzbxr29PsPebN3lqqhO7//YfTtYe5qt/J9NgdRMvyXfas5OdXy/HIi2J+OCLPACuPzB3RzPkWm5bHEx9TQl5BSKRRAHZnBTFoXkTsXF1ZLT/DSx5YQ27ZPike/8WRrs0sOtoiig1RcGY/hmVPk9w0x++4O3Xr8e3JoV9r/yRkokPcN83Ir4OnWDb1m38v2sdGdawjTqLQEY+IuR79rH3P/dgVpxOVGwCTW5j8b/vM9ZuOdj9rFUvcP8CNV9viaCxuY2u/J5rN/H9d0+ywEGYcOXFqO2tGBnoj4sIzg8GVz0lCdv45onruW3JDmqWzmHqvTMYYTh7Cq2NqOSt8EzPp0xYRlKHtDb2qKxsySgoEnqr/2J/8dEG4OntxXWOH/D5+3tpnDmXwEWz0HckG+L07edXcMei2SyVbslilj6xil0J1tj5Cn3seotXbrie5X/fzfH0Cv17/nigocK5EQWnaLkPlJPGt4JCfzHolg1ursyhsrqOmooCalP38sY3J6kNeID7r7HHT1fEf9ZY8sqHKxnlYIlF9UlOHg7lP1/DK7+H1eK/d9BU7rjdBdOUrTz9V1jx0jLmjKkkY8tq/vzsWkqHu6AyM8ZU1yQscBtaTRbz+t7fMNPVhnPa2h2icC1Yyx//14ijfMavpukrDj3NwWx+O5KYNFsW/28xfLCI3Y6vEeRrj2txGP9eZcyzHz/CWFct1rpEYrbv5IMXjjD+vYVE/+97UrOKaHKxRiOnwrXXUFI+jcVPPcCjLy1mjOERgwFp/Z++bHBXSzVNB17mmaTZjJs4l3vdC4jb8B9C5rzJrWM98DVOJv7QZt5+YyNZwr+uuZIyy+n4iYrrtTta+MvvK7jhhXu5Zq4fHp35VGfs5uU/5DD/qXuYPUvIpG3YE/dv5GMRMItbHljESLMGyPmKl99pxXnCdO5e4YV5+g7+/vLXxFc30NBaR52JO83D72Ldb9tZ+0kl9j3XGgaIlO74Ld/mOFMx5B7+fL3sjeqhg7amWmqKsqlsyeHouyfR+QqdcnQk97VkZhx5hWluNjiSQeKuY6x+tpesIoSQI6G8sdmJv711CyPsLfklS8CcbYlWXU0yRRFf8v/eNWfpM3dxzaxReOjE+yZv4mkRp7PvmUXQWE9hEguMxA3MnfBwt8O8o5r6ylLKqpsgbzcffneceLPJzLjhHv5+q5/+3v3BlbRscIeulYKSaoOk/7GxsR3wsvlcKMsGXzkMymWDNQ5D8BwxloCgaUyYcyP3P7IAv/wS6hNzyTf4uWDklC6VLSajl3Lbg7/m4V8/w6NPv8zzL7/EH/+wjEAbDZYGrz8LjT9DPJpxtz3A8bhMju8Zjru9C0O8RA1mYoaRxhortTA8ZGyr1Jhp1Nh0tdDe0EKLgwjrort4QL7TE8/x6LN/4g9/fYgV147BrfvugxojMxF3E28mqKEay/IwYsX/+Gx/pg21xakjgRNb97B9XyWudzzDfY+JMD50MwsCfHBqa6fdyIQujQvWVuaiRS1u1qmjs61JtMOd0WgMst6o7bGwFIaUrMRl88hMhVq0lMyassg6uZdP/huKyZy7ufEh8ZxH7uKW+WPxam3TT+/r7H3tT2KCysIe5xFB+AXMYIRrLu1tGeT/MFarm6YGWtqbKfNywU4krv51W5ppa2+lys4GS1H59tcHNlOVOZb2bqJ+txNhMvshrkScIuLUfZgfowOFbkkXEEDACPGOwpNG64LzECEbO4GAqTdw+93XMkMYdp3BCaSJy5Ue3p9GLfKws7OIxwFyg8kAULjyGDxGgPzmXp9EWGwmqbm1ouVij2bIDG5ZMoXRWhUmra20tLbTVVFLXUenvrBqra2mprwYWTaf0fEqP1oLv02iEmhVa1BpLHAwNcNnxgqW3PYAd98r3e3cdtskhmpUv6i1Bg54+rvi7lVN3PoNxKkX4u7qjqe+GXYaddU01DWQ7TIMF08HnM2NcBOF8oQlPe8knSiYx3lhb7hkUGMiah/XKUx3rMaqPJTw9BLS7GYwRKvGqj2PjMwKcht8mHffA6wQYbt5rj+j3DRyJYczMdVgKiopb6MoyiqqKDvHrNAf0VpOWVE+x5OsGLf8Tm4Wz7lt8QwmD9fqR22crb0ijQJdcxsVJaU0iGPpryk3gfz8HHJFQ7kbOS9fnOuyxUJrjuvQdErK22lqFo8tK6a8soic4V44mZrodahVpG9zUy0mXh5YCtmgGtvZlENqWhphieWGdJvE3LlTmOrjgEYESAZZadspKFxdDB4joFMYAY2JHNm7hz279hMRHkpEaBgRhxMpd3fCYsQIvMzUuIoWWUxsOGHyfEQMSRkFyI45Wdifwlgtyjg7XFpSyUmJILqgngZjFWNUEYTsC+X4MXGtvD4qjtj0Mhp0oqA3XPpzcRw5QVT8/rTs2U7LjTOFQeCCfsJVRzO6mmySo8OJks88GElydhONi65lTIA/U5xLaMkJ4+AewztJF59FXvnFXhmvv5AqZM+wQCM6ywtJD6/GRLTA7c3NUJnZoXV1xs6+g5bMUOIiRdgi4skoqqDP+l1li9rJjzlDk8mLD+PIwe74kIuxZFeKivdsEWJqhbmdCy5DraAohvRY+Zyz6EYvtO4+mDU0UZ2QQE6raAWLGrAl7SiRx3az9ah89nHhthCX74WR6UzGj3UlaHEp2UcjiRY6dPyIeEZ2NeaThmFvZopKpFh1eSn1lZUM93TH9FKsHtclzOHGAnKTY4jp0adwkY/CRRjzYjl54hBbNu40yIU7Gk+eMFVMAofqe54GXdeggoJCvzJ48ryhRRlYt4Xj79zF9dfO4folN3D9fVtpHuVP4NIVTJk4kfuWRfPRQ8u5W5x/8r2t7K/0wNfEGDMjw0Aa2U0sB6z5XMetS0I4+v6D/N8rGznUMoUH/nYL1R/fy8t3iHvL+9/yK+56dTvJtec5MLD3M07HSrTcvScze8wY5k3zwsHO0LdQn01N6D958TbxPvKZD3zJ+lgPXnn9NkbYzOT239zPaNsUtj1leCfpHvwXH+1KHPwDA3th7zeeztYRqIstuPV6NzTmogJ0mM04n0bs837HgyJcNwr38o4cMhoc8RHxKOPTRKSdHGvQHaPmmGtHsPSZxzEN/Zj3H+iOj1tuvYU391WRV3da3Pekh7UcKOfJAus3+cM93fF8Vt3ozagARpl3MiIjlojiLtpE/WnvbET6oS/560r57IXCPU/46Gvwv+VGlkweQ9DKp1C/dz9/ETp053Nb2Zc+hpcfnYjWSuhvVzl52RnkZVQwxNOt340AIxmuH8Wf+C+MTuPsVbz7mzu5U+qS3i0Q7mHeDhXGWG0qzVsfNciFW/khx6ssmXzH7NMGRyooKFwNDKKBgbIjsp36kgKqahqo17f6ZNFmjp2HO3Y2lph3NNJSU0ReRQu6ji7MNBrM1JaYdKhwFiVYtWj2yW5/WzsLIRMtx/J0Smt1tKsdsbG1wUnVQEFuOU2i5a//fGCixtTSCW8PW8xNRWEqZWejZ9BeRSemhmf8qKu34BCH9x3m9ztteP3tRxjvosW69iQnDxzhX582c/fvF+NtYyFCo8HC2g4XH0fkAqNGujrReqykoqIe0RjtRm2Pg5M9Tqc/4xLT18DAU+jD0URjmyl2PWETrq2+lBo5EM2wbKNaq8XESIO5aDnb2UFZKdg5W2NpYZgO2RPPheXUNrTqe0NkRWft6ISuxQQrrSHuT0sPK42OlvIcSurEq4hT59KNH+K0mcKDq9h5OIo1do+y/uFxOJvWUVZRTVnND6tAal2GYG9rjValo6O9norMImrbO2g7PS1TV/P+hkRC6kbx0h/uZ4wQ/sJlAs4+CKuzjY7WOgp6x5+UtVT/WMf19OQj5+48VF1B9Q/KhlbErb3QN20/KtuVNDDwSgjHL0GJgysHmZaDbnbAwCOrmUyCP/iek/HZfQw+tMPVdwrz7rmdiaLSUp/FUig//h5Hj59ki9WrvH7PMNysTDHtmb3Qe0aDwf/lyDmNgMuUtopoooJ38tmGWMyveZbHFo8lwKOvwRznQNcEWTv5+PO9RBuNYdSim3n0Gu9ThtAvQak8BxdKBajEwZWETMuzVGlXE7KYNsZEpUYtWo/mZzhz1Coz0Xo9d4FuZDsU74BZ3LlwFE7mwgCQQrUrrsPGct1ifxx7ZAqDCpWjL6OC5nHH9KHYWYrW9M+qtcVFxmao3MYxccoUrp3krZ9t8rNupaCgoDCAnOoJ8PT0HPAVA48ePYrW1hG/MWMNEoXBjJGREVZqI5rbutApi8sMCGpTI0yMjWhqO9vwxssDJRxXDkocXDnItDxlBNjb29PePrDj0aOjo3F3dycoKMggUVBQUBjcyO2Y5Rr/A0X3qoFKv5JC/3DKCPDy8hrwnoAjR47g6OioGAEKCgqXDXLb4J07dxqO+p+lS5fqx2wpKPQHl3xgoOyBUIwABQWFy4XU1FTWrl1rOOp/Vq5cia+vr+FIQeHiogwMVFBQUPiZjBw5Eg8PD/1vMzMzfYNG7sgqZfJcDz3+5DnpR/rtoS+ZgsJAoRgBCgoKCj+TSZMmMXHiRP1nTXNzcxYsWICzs7O+0pfnepC/pUyek36k3x76kikoDBSKEaBwedDVSYfcUrofZiV0iXt36tppv6Atq0+jq4MOna5722uDSOHqQH5OXbhwoX4An4LC5YaitQqDn45mKNrEW2+s4ast8ZQbxBeHWgpjNvLxIwuY95ddBKf/jMWa2+oh/G2ev/9pnn5zC0cv7gsqDHIiIiJISUnhnnvuwdLyF+1HqqAw4AxSI6CR8vQjbHn9SZ58fQtH0suF5DyoiSZ4116+/jaais5WOiuO8O3Xe9kVnEmNwcsZCH/09tdaTkP2Xt7+717Cz/e5Cv2LfongKkoKKyivarqo2902ZoYTExnGt8zjrlkjGOb0w5qO7U01JH/3An/99yrW6HWojqaaE3z3wtO89OCDPPjgn/nrWwdJNlHT7jWbZdNsMK5I5fsdQv/E9f3SI5BzkC0bNvIvqePiUP8MqfdrVvHeX99jx4kt/PPpJ3lK/3497hH9u646kk5mWSbpR1bxZyF/xHD+N/9Zw7fRZ80hCj9BY2Mj2dnZ+o2u2traDFIFhcuDwWkEtJRSkh3Djh0nOLFjBzHZJZSezw4/zfmkJSRxMiJfvzVsp5EpZiozzEyMz716W29/unpaKpPYvy+JnNJe6/krXIGUkxsZR1JkPTbz72HFjOF4GTZ+aq7MIfPIJ+wIOcaOfXEkpJVTVZlL9rFvOFncJYxDC4zrssmMP8LXYeU0OYxn4bK5THSoojZiDycLofWM/a0vAsamNBXGkBXzwzPKE/cQHhVKZF4VuqpkDhxIo6hWh7GFBRannDkq00ryIsI4uSOCLJ0FZuZS3kBpcTGpydKkUPi51NbWkpCQcGqtlcLCQsrLy5k8ebLeyd9SJukZQCjlpw8q7C1TUBgITG677bY/ubm56UeoDvQ6AdJ61mg0uLq6GiTd6MpiSElMYmPmEKYbn6B9xFTs3XwYqpU2i2z71FOamk52RhbZBQUUlZTSrNLSnHOCsNBMUkvacPYyp93ICSdnV7xdzDBuriM3tQZjByt9ZW9CC03V1RQmV9Lp7ISNnSPurlrMdSUURR9l09Fa7NzVqCzNaGtqoq0ogwpjB9RmJuJ6eW0FBUmFtGhtUZkZY3o1ruXR2YquoZz0hAp0GjWmGjNMaaejrZaC2FLazFV0dVRTU5BBfGoOBSKtCgoqadCJ+DcXhleruDarQbSusykuLKNENEbNHUXlJNK3rHf6FhfS3FzM0fAOzC3Byb6O/Ax5rwJh7FliotKg7qinoSSNBPGcvHx5royq+naMtFo0unLy8+uoLC+kujyfzLx2VFIPWiI5vDmOmDR7bnz2FsbYGCOSUoSpjPyEg+zfsYo060k0VrgyxtcNV1URsZ9/Rf39n/DwA3dw+zihF3UpfBBiy+0zvbF2dcI47ySNuQlE2S5ntrcJmoutGDY+2LbEYlQRw+Gq6UzxbiBq/RckGfvged31LHcuZkf0KO7+7WM89vjd3Lp0KUuXLhFuFoHepSSsCSY8zJzp77/Js7cv5aYbAnG2cELTrMbfX7/5tcJPUFlZqa/wJXKxs2pRjhQLQ0qWn3Ll1awsobeibNPpdMycOVNfvoWFhell8nOBLG/lQEIpr6+vp66u7gyZvF8PgYGB+nMKCv3BoDQCqkUBnJiaRfyQO1hu+gnh7UFoHYYxwUt21bbS2XGcLx/+Da+98jp/X/UF6zZto2zEPAq+e4+jO9ezPeQAW79dT1hpCTu+z6e9IYOa3DD+8eujWN81FVdrcyy7sknav4/3Vm7CZF4eH3+UTEl9E2qjVHb96Q9sig5jz/YNHM6qJjU3l+qvXmK79V0MdbXG1UJeu5m3V35C0fxr8XSwwE7V/e5XFU35VMV/xzPLt9M4biguo1xxMKqkruQoby5cT/VYH4wbj3D0vZe47Zk3+eKLL/ji88Okdzjg6GuPc8FGnno5jqyTf+KbL3fxfaia0XeOxU2k7ze90/f7zZQ5BpKfYwa53xO961WefVXe61NSrabj4j0Kr6ZI4r9+iluefpN3P/xUnNtJcHIj2lnT8av/nn/9O5J9mz4gZNeH/PGdJkbcPQX3rH3sTmgi2nESv77ZFzthABh3dlAV9S3HIyLZ6vYa/1ncSmaaEZZu7Vh3NXH0HVum/24+vs7m2KsaaahqJulIC1OWBWBnYYtVYy5VzfUcaQlkWYAWC9XF72yzsTairraLbV/HMi4ggW8/F8bGsFnceKc3NuWpbDnUQcDMkXh7WKPulIMp5YBHI4yMSsg4UkZZuRb/BybgaWQkjFcnfHy8FAPgAuhtBGRmZp6qsGUvQHx8vL5XQCL/y08E0vUlk05e25esN4oRoNCfDMLPAeXkZdVSlqdh4ZxhzJx7A3X5VaLFmCfONNNck8ym51+hcMpDPLYpQj8o59iBvby2dBwPP72ShSte4Pb7/sPGI/tY9esJBHkKw8EmEO/AUdy6YCexCS1UyLFf+Tmi5VnMgSXTCRAtVnv9s23w8J3K7f/3AhOmvMAbn25l7Tt/5Z/3zmfxrQs4FJtAibxYf20th264i8XDLPDQ6C+++tB4YDFsMXfdcIjamhJy5BaMVRW0JESyc8FE7FwdGRO4nFt+v0GfTnr39QoC3BvZfChZNrkh+WNKfZ7i9r99zar/3kiASN8dp6fvwV28doMTI+s2U60JYNQTQn78EBEf3IdZYRqhUfE0eIxj3CNfs/fIie7nbPo/nlqi5qMNETQ2tUFOz7XbObD7GZY6WtFRXoy5gxWjg/xxF68utzIuP/oWW+JrSfR4mP/c5I6txTl22LexxVJthXdyHqXtOqGdUmSP2sqW5LxC2nX98T1AIPXZx5MbHd7m/f/uon7ufMYtmY2fPGeI0789tJwFkybpp6ZNmj6PSfd+zMYYa+z9GjBq/yePz1rA9Fd/5kBIBQWFK4bB1xNQE8vxkwWk1Liz8NZJDHdtInFjCl2mNjj5O2FXHspn60VLbsly5s4LYoy3C86yO9/cDEvyScrQUctQlq2cypDOVIJDdVh6DGXyOC2Ozcm8n+3H1KG2WBTGkJldQNeMG7nBOY/jYcKfmzfjx9th1VbErhAtc5bPZNK4IbhZC2tJ3Uzo+9kMnToU6kPJTUmkYsyD3Blkg7YfWnuXBUYm+mlRjk2hbCgZilrrzGiTclIP76Fqyh0sCPTAW1VGQWII3320nv0nT3Ii9AQhWZ10qWyY69/OnmA1U2+9mWvmiAratpG2glA+Pz19HWyxaU/kcGgntn6zWXzzfCb62OFins/h8C5snd2ZOFaLqjyK7z9Yz96jx0S6i2cllZHV4MrNU1sIjzXBUX/tHCZ4azE3MaYheQ/xtVa0u0xksa8lRlQSu+EjtuwM5kBYIhmhe9m28xBHQuNILc8nLbOOpmw1/o/OxkdrjqVxNWVpBcRtLsX7kVl4CZm2vZTCokpOhBtz3XUjsdZ/IrnIGJuhNmnB0qiIrSe9mHbjQuZM8sJNvE+T7AkQcTrxxmu59voFzJk2jWnThZsygUmjvfF0d8JjhB+jfMcxXZvNsT1bWCfyW06nA9NEvlD4aeT3excXF0aPHj0gTi7prqwhoNBfDLraqzEnjozMOELiI9j/9cd8tDGCzNRwMrMyiMuopKOhgvzOsTiJisFZVM7ni7m9Bx4TluCcFkdtbQpxxW1UVztz4xQ3NOqfiAZz0bpzG8d8dQhlFYkcjainLNuK+VPdUKvO0VK8CjBRmeM2dTmuNdW0F8eRUltDXKoj1433wF1dTFLwEfZujyC7wxKVxhJLRwfsTUzRNjTRYKKi02E8Pm6GtNQ1nzt9bUbh7OaBj4P4bSTSTGuNrakw/lpKKE46wZZV+0ioM0KnEs+xs8XayhLHmnqaurrQ9b72rBihHTFbtJ6nMc/PSf/91tJCLQp9FSrhZFr/SFNaWmjraKPW2QYrYVTo13sTz9JvMGNspB+M2l9DRcy1triNnoSJ6XARJs0PcSXiFBGnM5bexl0PPMAD0t13Nw/cGISvixYnryCCrhWye+/igfl+jHTvoCxe5Ic9iRSIy/up7+KKwsbGRr82wEA5+TwFhf5iEBkBcpWWVooS4igpSKCgLJ7da75l3Zpw8o3KyGksIU607NrVVtgaFdLQ2Ex9XzMG2trpaG7ljFNaFyxGzuGuzkQaikI4XmFCqfE4xtkLy/70WJArxjS26BeP6Z6OJlqZmuFMu6GCiuwDnAw1oqJtJtNGgWpgO08GH6aihTJqIdea1+BYcZyQojLidbPws1dh2xLPiQOxHEt14fp/vMO/3n6Hf//fndw01Yc+7TcTM4xF+tqdK337oimHzOgwvlhbT9DTf+F3/3uH//751zx+Q6D+M8/ZlNxMpaazvYOGugahecZCAx0IvOlpnnjtHd55R7i3/s07f17Jwtm3ctPSO3h0xVRGOpTT2NCJHASuqyqnuq6CnFFeOJuaIr8K6WqraWyqo2aIJ7YmJgyqoSJt1ZSVl5Nb0ijSTbztqOU89sx9PDjOC9ecIvKEl4s5/VJBQWHwM4iMANEG6SokKTYNy1HLeGnVcY4fN7hVL3LjKAvSUkuocBvDLNVqEpIziMlu1w/GaW/X0SEq7i7R7jIqr6Ult5h8XTutHaJFdmoFOHNUamcmzymk6HA4MUVd1Ab54SbO/LgtL9pu4jrjtDzKquuo0nWIe4vKXmPFxFseoW3vYbLrimlbPo+JwvfVOB7wx8jYc8MvqJbOwhjCjxRROGcyzmqViHGRHi5DsfcdQ5BjO0ad7ZQmxpKWl62vcM5A3+Myhjmnp69IS5kGooF9FsRzrJ0wHzOdCe7GaE3aqcrOJDM5llRx9mwVm6OzGy1V9aTFJlEo7n3uVrAnDm52TFywn6i4BkrL2qnMEs/IzSBrmBdOpiYivFBbU0VLfTV+Xu6YCdmAI+NIrl7YoTPkjV55pDyYbTt38e533VPZ9K6khEq1EbVDXU+Ni1BQULh6GDxGQEcbFIUR3TIHK6/pzNePcjLgF4ifqhPf5BTi60ey9PknMD7yDn+/uXvg06wFi3l1VwXpxnOZMNUU9/Z/8vTcRTz4QRSxBU2Gm8ieUjXuU2ZTnebEEFNrrp3bx4jbXoPddv9zJY8//SZvySXgZDer+xSCRk9g0eRRBCmjqX+Eo38QHU3DMc3VcNfN7lhoRHXiKNJjSD126b9hmUinqcI9/l06SdX2DDFc92M0aLQjufml09L3miW8ur2cs45hMwyUW2z1Ok/fMJvZ4pqV/9zAtlJ3/WC5s27LckqvogkrEg3ln+gLtx8ZwOT7n0H1xgpeuHYSCx7YwJYEf157ZhI2VtIclINa08lNLWWIpzumJpegSu1rYOCk6cLdy1+D22isSqJ+/b0GuXCL3+ZAmSXT75qrGAEKClchg2cr4S7RXmvMIiJeh7mDE8NGOfHD2m2V5MfkUFLShc2MIIaRRczxJLKKq/Ur+pmqLfCZeiOBHhaYlMeQJQr1uFJT7ESYjFts8Bni3n2/nmccq8XI1ZUhQV449PFcdVsTZXHbiMxuosnGn2GjA5nkJppYGet58a0M1GPncOf9iwn84QUVmvJIi6+gtF7DiIV+OAuRrFDq8rvTI7p7nRRsPDxQmzhib2GO3GQtOhpGjvXCzUWLXvtOpVGv9FWp8BkzhpZqFe4eBt04Ld3cnVqojt9PaC60ilOWjo5YWruiarNEqDfp6aDtQ69Svv+KbQdTOTLxWVatGIGjZS+T4Qzd0GLaVEjctlCym1ppwBEnrxFM7AlvznY+XRPMoWIn7n3lReYJoXl/1apyUauafEJE/A3viT8pq8ok5GAipc1tvRa6ki9hx6gZgdi1lwojOIm07hlrAhs8/AMYHTgKb0WfFRSuOgaPETDI6WisoPi7h/lj2mL8Zi/mkSVDRPGpcLnTlHOII4f28N/DnVx7x6+4bdowhjhc4JzPDlHdFkey49uNbC9yRjN+Cb+7W1S44tQg+t6moKCgcAZKGXWedHRBaWMn02cGMD1QMQCuFCyGTGTcxOncaRnHntgCCqrPdzRiLzrahXJEczipA3MPP26+LhA5CUHJXAoKCoOdH/UEqFQDO8xN9gQ4ODhcFj0BCgoKCgoKVxqnjAC5LGVHx8DOEpYru8mFihQjQEFBQUFBYeA5ZQTIjTDk6m8DSUhICLb2TvgHjDNIFAYzcuEbjcqIVl2XfsqeQv9jZgImxka0tJ91fuRlwZUUjoryUkKOnzRI+p9Jk6fi7PLj/VUuJVdKWip0p+UlHxiosbLD118xAi4HRL7H2sKYxtYu2oUhoND/SKPLVNjm9S2Xd3xfSeHIyUpj1VdrDJL+59bbVzJi5CjD0aXnSklLhe60VMYuKSgoKPxM5GdUa+vu9S9NTEz0PapyPxQp673zX48/eU76kX576EumoDBQKEaAgoKCws9k0aJFTJw4Uf8p1cLCgpUrV+o3/JkwYYL+XA/yt5TJc9KP9NtDXzIFhYFCMQIUFBQUfgFy5cXFixcbjhQULi8UI0BBQUHhF5Cfn09NTY3eEFC2/FW43DC57bbb/iSn6dna2mJqOrBb4mVnZ2Om0uDo5Apd7dCQSui+/QQfOkpoZDhRkTHCVYOTDZa2Ft3Lyl4oTdmkJuWRmtOMnYcVKvGMsPAiqpqM0DpanbmuvK6OlsoUDh4txVhrgYWV+uLvBy/pCe+53mWQYWQEajMj2jugU84OuJC4ugzDOxgwMzHSD8hs0xkEFfFExecQXdCOq6edfgMrI6nj4THERKZSZ1JN5PadhIaeJFyfh6SLEi6LRkt7NOomGrLC2b9xJ8fFuUjhUstaaTJzwtO2/1LkjHBcpshw1FRXEhMbrz8ODAykpKSE1NRU/Xd9Z2dnkpKS0Gq1epeQkHDKX0NDA/X19fj6+op4j6StrU1/Tq6VcrqsN/5jArEXfgYLV0paKhjS0vD70tMplL/qODtXfcZn733M2m/XsGG9cJ+uZcuxBJLKGxDVyIVTF0/YocNs3hZPdaeOzsYM4kRhmZpVceZ2wxJdA61VqYQcTaWgooEzs+RFoie83x/mSGg29QbxZcWFxNWVEN7BQFUaUUd38P2OA6TVQbswxhpzDxC8dT3frt9JQvI+Pn3jHb747AvWyTykd+uE201kVg6ZqVFE7/yOtV+v4TuZv779hNVbD7A/usLwAIWfQ1lZmX62U0tLd6lSV1dHY2Mjnp6eeid/S5mkZwChlJ8+qLC3TEFhIBh8nwO8bmT5bz5izYEQdu/awu7/OJN55BhbdyRQ2dVFV4fcArVNbzG3tYnfuo7u7YK7OvWLHXXodMJJP1LeJVqsneKU3A5Yh67ThHbHpTzw5K3cstgfO7nvqrxO3K9dfz/x38QJqxG38uprtzLT3wULcU+duKeulx9dzzP1j+0+1/0+wo/cslXeVty303Bth07KT7tWvps43ynfTb/tq7iPuLBL/D51P7nVq068f/ejBh/mbtiMOjOuzju8P+zzrHC+iPheEGjGQs0OtkZ20NzWQeqR7RRaWOBx20qWeFqiGf0Qz771Hd/JPKR3h4X7nOeuV1O3L5iQQ1quXxPChn3y3Bc8e/MM3CsrDQ9QuBBk+SJdDz0LrkVFRZGSksIDDzygd/K3lEnkVOw77rhDL+9ZKK0vmYLCQDB41gnoaISCtfzxf404Bk3ljl9Nw6WrGZr289bDURhNmMrMu1xQ7/onr6xNp7pR9gu4MmTSddz+8q9ZxC4+X9NMfUUIRm3ZHM1YyLOrbqD1qz+yecMxjhSpcB3ijO+8azCrGsKchdO4bpkn6oqTfH3/GxyoqKFU3NFl6AgmLr6FglC47VYoLq4m4lASdroQjmZCiw58r/s1S1c+znKfGsr3/oG/r4smKlta+dZY2o3njjf+wmL7GKIOF3IiLIPh9hv59rBosYlGQve1v2KJSwr7/vgA7x2sIK/dAs8J8xi3/Dke5j0+2BLXfT/tCOzG3s3fXl3CCFuNfr/6S8kZ6wS0FFCbfYS/fQSLb5RxBYkXEN4Jd/6JV651wUZuO6zQJ33NyW4r3M/J4FA+PTiEl5+DTX8NRRcwg/kPTWBM4S6e/iuseGkZc6YP1W9i9ANR7PnbQSKjTJm69jlmmgo7zqiZhnpplJliZ3+BGyddAFfqOgHyM2q7MNZlS1/OEJAbosku/9bWVn15amPTvctIbW3tGTKJvE4azqfLpOtBWSdAob+QaTm4xgTUJXD4ZDsWrp6MCfLEoq2Jqsi1bAzvwGzkaCZNGYajpQP2PuMYP2kak4eao1Y1s6/CgWud0zn47Q5ymm1wnn4LC6aNJcDfE8eOIooqLWi3nsDN9y5lhk8r6QkdWDrb4GSVT/w3HxFvdzNBc+cwe/Z0Jo8bxlCbWg4famK0XxMlSRmkJrfhdfMKZk2ezlS3Zspym0kpMmP0XFHIqiyxdvfHf9wUJovnjdKWsLXKk7HaPApDDxMaW4hm1n3M7rm2zoTsRnumTnDBuj2XhEI3PANnc/2NEwmwKOHwFymYTprN5GsXMtHdA9vKApzmTcJBo6b/iujz44wxAW2VNJZEs25bEyNHy7gKI/Z8w3vrYqb6j2CIg1oUKOLGCn3S1/dXE3OtsJmrqQl/n5isEkrsFzJ29ixmDhceS2PYtWYH8UkhBB/azZ7tW9i5ay87YzuwcXNF3ZBIfvImtp6IIbjUHh9nB7wc5fz1/h2hcaWOCZDd/9IIkHR1ddHU1HSqN0D+76nQ+5JJJ6/tS9YbZUyAQn8h03LwGQG7Y8nOzaSoJI34iEjRks6lZdgkgqaPJchbi8aohaLUfOqammmuzSWnqJyQQjtuGt9I5IlCVENFZX77XVw/VVSgZhrsNVXklFigsxjPPU/fyHiLbCKiO7AQTSRL42IObsph+EP/j6ULZzBzUhC+PnbYtKSy9xjI1Yxry1qp1Q1lwVOPs3hyEOOHdVEcnU16ch3u189khGUb1TklVFXWigxcLvynsi3dmZkjmqkvKqOkyY2p9/+Gm2YFMcGtnqzsRrLLLZiz0B8fqwqiUpwYNmk+N906liFd8Wx+J4IW93EEXrOQ2TMC8LXswGrkSBEWM/0gsEvJGUZAew3NFansOtoTV5VUnm9475jLGHuVYgD8BH0WuCaWmHXVo6k/yuYQG0YtXs7Mab4MNRPpUZ7Erl35qFwdsLG3xkKlRqWxQGU3ggC/kXg4dqBSN1NTb4a5USMVWfHE59VS0WXNCGdLwwMuPleSESA/L+o6jXAXRvpAOJ+hw7C07L+0uVAUI+DKYXAaAduCiU1IIC0njfSMPHIslrDy7kVcM9YWihJJOLiR1Wv2ERYXS2JmFtmlncIC92LR7C7iM7zw8Q9i/hxPrAzPkCPS4xJqKG2yY+r8YViLZxyRvQ2WjZhrOjiS6M+K+8bjZavqHq1+esXWoqXFZBhLbvDFVii+sbVo3UamU5dZjelkX1Sxm9i2YQ+HjoWJ56eRWlhDbcNQZk00pr7FiXZVILfe7oudsbhWtIRTU5toOP1dZM/HRDc0xs1URYeTnttMY6cOcwdL1LZDcXexxdLEmEvdaf6TRsCFhDeoVxopnJWzFbgqM6EfGthz3IP5S8YxztcOjUyPqkx2xYzk9uce5b6HVnLjtUtYuHARC6eNwMPOAhunkQybKGTzZrJQG8/uvdvYcKSEijYX5s0cos8D4nEXnSvJCNBaWeLpM4Jhw0VcDoAbTAaARDECrhz0aWn4PXiQAwNf+JA1+4+xa/cedn3wAEsC3NHWJ5J4cAt/+1Ma/n9ZzzvbxfmNH/Cv525guLjsnOZLl+yqM/w+hZG+UjNGDhrsOv/Bd11yoJ5oDbQWU5+ygT8+fRCj+S/xu03ifbatZ93/HmCKneX5V3DyxfR/oqK3X8j9a7ezat9jzDc5wjeLV7Dyzvc4UNlAjcH7Zc+p8CoMOHKwqrDepL5jJjQ06An+9Pbr/HG6L8MjEokTXn7cEa2goHClM/iMgHNh5YjKbw6TPNXYmUNdfha5ydGki1PnNErLq2nJL6VI/Oz+Miew9sbBQcP49o/ZE91IUbVB/lOkJpDWZkyGbxCTvNXifWYzeogTXtbQUl1OQfhRUtpaz38KXF4pdeU1VLYU0pD9PR9vziKryIfpD77Is+89yz3Dc6ip6KC5z/mMlyE94TUcKgwglUfZuXsXH25MNggElWVUq42o8XbBTRwqQzQVFK4uBvXAwB+1pk3UtNVXUJf0JQdCTnBg5zZCk1JJq7GitcGRa+dAgmjK2Jx+rYkFzUXRFCR9z46QSDIrGklLU+E5YhTjJ7jgapTD/u8PceLAVvbs3sLJ6BhKuuxIEvcKGg+1OQmE7dlLaORh9m/fwq6dhTS6jmXGbQuZ5uFIe/I3REYfY9+u3QSfDCO5wYziYldmTTKhoVZcL7vCF/giZ/4a9/40scAPazMbGtK2kZS4jyNJGWQ1d1L41VpCju1lX8hRYgobaB+9lMWzxuClNUN1iU22n/wccEHhFUaZiS+jXcxRmfZHB/SVwVm7XnvH/UxffLwMnwP6Ghi4fbtw0dTY2VCdE0fmrq/Yun+fkIlzO2Ip1QzDb9E8pg210S/I1R+pcSV9Drjau8KVOLhykGk5eIwASZeO5i5HvIZ54u1p++MVAuVgKFFZ2JoUU9qgwUQYBbZevniPnsKEoUMYO9ZVvL8rQ06/VlQ85upm1MLVNlnhMGQsPm7DCQwYzogRHjg7O9JYVE6nqQnGKjVaB1fcR03CXfwfN6KZ4qwiMnNbsB/mgqU4r7YJZMLc6cyfMwYnM2vsTXKpaVHR3qnGytEN94DZjPUczsQgN6xtXHFycWfUKBf99D6jzjbauqyxlTJfN8xVDmjVFXSIDNVu5orD8HGMaq2i3dyMTpUFtp6ikrxmOXOGWWElKt9LzRlGgPw00mVEm7Er/oGuFxZeExecho5ljJswAoQiKvTNWQvc3nE/1htnOwvMpEwkTFtzO2YWGpG31Kj0TsSxiHvv8RMZYmuCXWctFe2Gc5Y++E2dxrSZY/AQmaa/UkIxAq4clDi4cpBpOXjWCRiMlGzl63XZxJUP5enXl+EhRFdzd6nM+D9aJ0Ch37mS5tcr4bgyUOLgykGm5SXuYB7kGJnol/M0NTXptxaSgoKCgoLCpUIxAs6FwxyW3rWSZ5+Yg/xgoUSWgoKCgsKVxKnPAS4uLsgVrwaS0NBQHJ1cCAgcpJ8DFH6EHBMgx2XIPQ70YwIU+h1T+c1OxPvl/vlFCceVgxIHVw76tOwxAlxdXQfcCDh58qTe+FA2zFBQULhcqKmp0W8dPFDIbYblwG0Fhf7gkg8MlBtuKEaAgoLC5YI0ANauXWs46n9WrlypNwQUFPoD5TO3goKCws9E7hwoXQ9yILGRkdEZ8p5jeU766U1fMgWFgUIxAhQUFBR+JosXL2bixIn633KN/3vuuUffqypl8lwPPf7kOemn934AfckUFAYKxQhQUFBQ+JnY2NjoK/dp06bpW/qOjo6oVCp9hS7P9SB/S5k8J/307iXoS6agMFAoWjdYaSmhKCOGrdsTKW1uVzZ2UVAYpOh0OqysrJBjq2SFrqBwOTF4jICuDmgtJTcxhsjjxzmudyeFiyOztJ76wbJEZVsVZdlJxMckklLaSnuHYUaFTrxjZTHJKaU0tHfwi2fQNeWQFX2YDz8+Tn5jG20G8aCis4X2hmJSkouprG859yZOPembVUxhWf3gDM/lwAXon66+jNLMaENe6naRSdnkVg2C2DeEI7rXux0/nkR6fjUNUq/q80kJDyPs1DnxOzyF/Pp2WroDR31pJnHi3Mne13bffUDJyMggLS2N0aNHD/jS61cEF7PslHpVWExWbhWt4vCKmsTYT2EbPEZARwsUb+W9Z3/FrXPnMf+aa7jmmkVcM/8R/rEpmvhquYXvIKDyGNv+9yKP3fMM/29zPlVNHd3vVZdI7MH1/Oa3W0mpbaFZ7/kKp7mY2tQN/O7lDRyJL6bOIO6TnvT993rWbEtUdhH8uZyn/jV16qiO28Kmf9xnyEvSzef2F//Lu4dL9MbDJc1PhnDcM6cnrws3/0X+8lkwifUF1MR/wW+XLeGGefMN55dxw80v81lUJQWN4t3rkonf/i8emz+X+bPnMm/eb3n9yxOkGW4/0OTl5elnDDQ1NemP5ZbNcsq1HPAnnfwtZT30yHt/AuhLdlVwMcvOquPsXL+Btz48Tok4PLVr7JWAzDNr1vPv945RLA4vVtgGn7YNuYk7X13F7ogIIkIPEbH1Vqz3HuLwumB6bYB6aXHxw9LKAZdD/2JbTj2FV0WN3wcaD+z87+I/b9/FgiAPfvgCqtCvnIf+VRx5i4+2JLDX+mm2irwUKvNTxNe8HFhL6Xuv8sLmImqaL3ER6TKDSff9+4f3+3oOXm3xvP32EYrMrOjwe4zffbaFg/Jc8NdsfnM8yS9+RHBEOvk2AQQteYB3vnqB6TNf4B+f/R8vPTobP8OtLzWRkZEkJyfz2GOP6Z38LWWSngGEUn76oMLeMoWfgeNclt93F//v2bnK1tjnySXfRVCj0egXKqJTbiUcz75QExx9A7lm8QSGu9jh7FpLzNo8cHDCZ54v7p2twiIKYf07n/D5p1+zdnMw+w7XYjdtKDbmZqgbM0k/voV3/vQWX2/ezKbNGZRigeNQYWXnH+WDL04Qvf8rdmxZy7bQVEo1LhSt+TOrVq8nuEBYV46jGXaudTkaUolObKKy1oxrJjfxdb4XQR42+JiXk5ddQHBMF/Nn1XJwZw7FteDkY495zztvSCOvMJOamkS+/PwwaUc/ZvX67zlR0EBJVRUZX/+Jt77eTErXECzMdbSVZbA/JB/joo1s3rCJ9d8dJTy1BtPRAbiZg2ltNEc3rOHD/3zMN5u3sXlzNNW2HlhraqhMjuDTL+OpSXuLL1enkNEs4mC0Kxd1yZG2KhqLo1izsRhLTQ5xsZns2XKUovi3eOvjzWz4fjMxpTJOh+JhmkPIJ/9lw/4wwuMjSMgqIMd0tH4XQbWylfD581P6F2fM/OVmxH++n9xmL0Yuu4Vbp43Ey9kZF2dXXCza0LU0cCJZw8w53mg1ZlySDmx9OBqpZCjL7p7NCPF+rq4NFISXUR5XgfscC04EWzJ32QymTPLFx0WDlXk1Ie9k4nLdWLxGe+Jq3Iaqo4hdIVpmL5vEWD9X/RbW/U1lZSUJCQn6342NjZSUlNDQ0KBv7VdXV1NUVKQ/bm5upr6+nvz8fH1ZJ2Xt7e2Ulpbqew6kXPqV15wuk357CAwM1A8cHMw0Zh7l+JYP+dNb34hyaLNwoWQ2qNC4WGBVHiLK3UxMHK2xdbBE1VpOfX6PrJOK5EMcXLOGbeFxpMQfI7HeAXPjWtpSdp1Zjv9UGVaXRPjJDKLiC7CzzuQL8Yy8mM/Zs+NrPl61mZ37DlNkNw0XG3Ns1KXkx+xn3cv/4GPxjO+Fi8nMJDm/gYNbTys7Zf2RvY8P/vwWX63fwHebDWXxyJG4NYbw/caT4poNBO9exapNB8UzRlC0+1O2r/6U70NzqHWexlDx4mb151tmb+DrtZtFfpbXThHXCp3b9Blbt+zmUFQ08fGRJOpG4OlghYPlL8vBg7vfSXaf1VRTaamizUqDJc20NqYS8sUqjieUU9FlI9Sinsb03Xx1JIPcilyyww5wZPN+YutsMLe0wbQyhvCoMHZGZdJaFi+UbTfRovXU0FhFReIxvvpyFzF1ZnQ25JIYHcWOE1n6bu1zf5cyR+syHP/5c/HIXU9apnhujeFUp04UcOlEhiaRmF7e3bWll6V1yxKTyEmNYO+6A0LZVXTJ5wYf5PudYWS2m6OpTeDQ0WiOp5TQ1NpER1kepW0WmFjYoG7OIyfmIF/tiKO4OZvIHUIR4kppsrHBRmuBjVEukcfjiY2JJzv1GLvXrCY4z4QWU0s0atOLbxXr6mmtTOLgfhGmHBG20F3s27GfyCrxriLubVp74jSbeiMTTDXmmJmZY66xQmtliaXKWL8zocKFcg7965LGdCoJxVZYuvgyb7IXVkLcHc0OeI4PInDicKwjkylu0w2qz1aNtdU0NjeiMxZ6YZCdor2Njroaih21mAhjX25VPRiQlbs0AiSygk9MTKSurvvDmPwfGxurd33JpJPX9iW73DAyUaES+VrOgtC71iwSUhLZHSPK3Z4yolSUF9Jz73KjtJEOMzNU5qJsMBWGnrUNVqJCLIw62Hc5Hlemf95Zac4nXZSxoaKsrSyLYf+aLzgSX06pTryTWTsmpZGs3RlNckkxOaL8jzy0j2jDM+R7W5nUUZN5etnZSHVOCsFfRlJirMZMhk/I6otT2L09hrKKRE7uPsiJqFzKWsQzisNYu2oLx7LqqJP1TEYU3+yKo6TlQspscb6r59pEcW2HnEaCmdocldoCrbVWGMWiTL8IBejgMwKaSynOiCM8JISQYycJ2Sda68NcsfR1w6mzhqbKKNZ9Eo35xBU89Ppb/OevD/Psskb2rw0jJTWME8eiiEiyYM7v3+If/32LN573xak9m/3bkqjt7KKzuh3P+Q9z75NPcOdEN1L3RGF1y+948um7meBkTFp0AlXiNX5ycIrWA6vR1/GUVxg5ySmEZ9af/wj+tk7MWi0YufIvvCCfa9lBYXYr3o++wV+fvR6rmhKyM4QF2NvfX9/iX6/cypKRLRxatYfsqnC2rYkhq9KRcXfcwR23L+eO612ojoglLjyd8rZaUaoWYDrlVR57+dfctyQAL8Pj+42mEozMLLC/7i1ee+Mt3nqlJ07TaNB4MPXW6/GfeAvLVz7P//3fUzwy3V5vCCj8DM6mfx1Cc6sqqLLzROPhhvfpTWMLS8xFYeuUX05NR8elHaDZWkNtYTIRIq8fF+7A9nBSOrownToM984OTBrzyBQtnlBZFhyJICy0gPq5fti7iALScItLgey99PLyGjAnnzfYsfAcQ8D8FTwoyqI7ZXm0yBPj1hKOhWXSIs6fffyJNUPGTmTK0lvwC7iTF//2L168xQV1QerZy3Fx1U+WzxLZu1ydgPGoFVz/uCiP/vEKf7hvKsURURQUxhFxLJSopDZ8xTNeF8946623ePG+Jcx2Pa3sXGQPCdFs+CgL2/lLWCTDd9NE/BwbCfnqEDmNrTTX6XAafS2LHxfPuGcyxXtD6BqznFtkPTPdk8RDRyitjWDneZfZ4n3+bLj28ElKW60YNX8eQXNuYfaCR/j9G6/zwuKhDHP45bNRBl8JnLeTTf9+mjsWLmDBDXcw511zZt64iAduGINDczMdFTXkjrifSZOGEugp2kR2jngFTsb/UDRFianEmY/GJOhGbp4g90oWbR+/cYxoNMY6NJFIMzXtvjPxGyKu8bRFO9SfQP+ZTPdSY+fpjLO1LT6G1zgfpOU74ZZH0aUVkBeTQNn5jrTSOmImnju557kjxjPedxyTPUxReXniIzK98+n+RNPH2msoQzxHMjIph/L8PHJag9nw9as8sXAhC6+7kYX3vsXGXdHkVtVTpR2KJvBBbp5qhYed/qn9j/NUPHrFPY4XHqcK50+f+icbBkZGGHWJYlIORjtdJ/XHXXRJP5d6g+zycKK//QP3CP29TrgVn7dgNnYZf3xiFm66RkzSvuK/z93LzQuu4Zr7XuOh3SN47Y83ce1Y9wHp9j8b3t7ePPTQQwPm5PMGNULXOqriiN74Tx5d0J2WC594l683RNBaUn7hA/Qqy6k+VzkuvJxXg8vMEnwfYq6hrsBcg5m7J77GJmgrksmuc6fSrld51cPpZWddLY1VCcRXfcfrK27idhm+W57lhde3kJldTIEwplt8xuI1Yih+nuIZ3sPx9Z/LlJ56RpSDvsKPWUkhJRdSZouyU3+t+Gkm36ufGHxGwJCbWPH7L9h1dDP7P3yIOaVVtNY1nXvk+aXCRFjobjdx17Ry7E0zOZRokA8UPXEVHk74Kfc2rw2iAVIK/Uhf+icKONw8cStNoz4tk6SKbq+nqKuhsa2RfD8vXMxMuKRtTJfpTLr3TbYIvT0pdfe73/Hi8gD0X7/NrMDvUV75dDMHDnzBp09fy6jkfMraO66OmTeXExVH2PLxFtbs03LrlnAOnhRpuetNfr9iOkMMXi57tMOxn/M7Ptt/lKOnytqt7N/1DEsctdgbvP0kg7DMHnxGgNoOB49hjB4vWsDzb+fVh01I2LyPDZtjyFGbY2KrxT1/K4lJhaSXIgyEGkrSE8iaPBrn4UMY1ZpNR+oRDiaLc8JcrMlKI1/TRUPgCPzF7S/qICgjEX0qO0bMmYhNcz3Fu4+QI8T6+fLFVTQI605+qu1sb6MiUbx/bY3+U8PPpVFYkkV1pRTMCmKUhwdDG1LR1TXSYBVAQECPG4Kns3bQfDM9g17xovAL6Uv/jFToVOOYPsOMxvoktuyIRtoB3d2nOcTs3sPejRHoZozHTWV2aY0AUdFbOfrgK/R2jNTdkR642Vl051EZNnNn3IeOwm/SIq5bMo+nbqzhy9+tZ39MPiLrKwwWdPVU6yxotxvNrJkBBI4NwFPVKsq92u7yTtchVK+UmqZW/ToO+jI7MZosXRuN8ryksYVO4adc+G21tcP6rOX48ItTjtsOxcOyHJu6H55xViyt0Jh34FQSRl77EBy9e8paX/x8XbE1M/7p9zER+ixa9Y6/tMwWZWdrURXl4ud5fRI5DwafEdCDqRa1cwDX3D2P0aosUndvYt22ODJV/iyab0VlxE6+fe9t3vlwM6v3tjP6tsmM8JvAlAAPfB0K2f/+23zwztu8+2USxWpXghb74ypu2x9TRjReU/AdNhxf+zYqjc3o1I4haEgTjZm7+fztt3nvo0/5NryU0nrdhUV4axXN2Qf57pMP+EDc5531EYTXObPwVzMZ4jyOa6Y6YlETyXYRD2+L83r3zQGOJJbQPVt5ECHiBesARjoWUpm4gTWrN7E9sY7m9oulylcvP9I/oWGduOF37UIm+Jqgi1rHuz268fZ7fH+yhDrnySxbPBqnSzUz4EJRO+HsO55Fd0zEp+IoB9dvZNveA4RERbBlfTC5ucHs2nCYI6HZ/MSwMYX+wFJUqJ4a7LvC2ft5d7m7+lASKaVtGJtao7YfzdxRRSQeWs+nQg8/Wb2ZnUmNtLV3dX+QMnfFzt4WX81htq76kPXHG+hycDxLOT7m4pTjGh9G+7sz0u6HZ8g8sm5PKHGnW5hqF9yGDGfhVB0x67/gy3cN+enj1Xy6PYHi81nR1UiUf1Z+TP8lZbaMZ4d2LKp3sFrWKWHFolF4Xh9GzsngmSKoX1GujLQCDc4+nviOcsZCVhwOvoyyzqYkM4vYTDN8Zi3hupl25IeeIOp4CJHZTdSYzeXJFxcR6OKBj7stlub1RH6/idDkRNLKRzB+/gLuuHE4Nk3VpORrGTtlGJ72nTTXtlBUa8e0ecOxN6qhTJQgnWpnxk/x1o+o7rPCbiun6Ax/NjjbmmLhZEW2zoelotUS6JBDQWYUe/eGkZqVS8uQKbhYDGXyaHtcXLTU9PXcyR5YiTjIkHHgrsVF20h+ZDjx6SkkJYqwNLrhHLiE/7t3IvZmTgwZZU1jSSaRe/dyXJyXI5MTy7TYu1rj3vsZ5v1U2Hc2094Tp0FajIy0mPWOl95xNXUoVhovtO3HycmIJCy1lVb3qcwYYom5sKQVzpOf0r92T5aKNPcQrZUR2ibMSkL4etNxvf4kJhagDljKgvsf454gDSqTSzgmoM9wGOitVzKvCl1Wq4VuOQ5lvF0sJ08UUNXcTJuuhrBtUTRrGikvUqH19GT4eO/uzwkKA4eoJM2b06jL2cv3exP1ulbnMAIbez/GDR3NpHmTGWsbzbETURwPiSa3uomuYTMYqvZk5swReHp6YWXaimXLbvYcSqVMM50JUwMZ7912Zjl+k+Fz0dno0SszrWhha8kXOhTUo0M/0is/Avxcsej4oa6IF+9da6zF1MEPG7PeZaclWlt7hvpqiN28jaj4GKJlfsqqJLfFhekTLSiv0OLuI+qtEUJP+6xnHMT9phAU6EDr+ZbZ7bXiuFcdZSPqh65sGsuD2XMkl1qX6Yz1thP1xC8r3Y3WrVvXJde8ljtZqdVqg3hgOHjwIPb29gQFBRkkg4Eu/UAXXZuOjq6+VlUzwtjEVBhMJsr0NgUFBYUBRSmfLzaKEXAGVdSXHeeTFX9nV3mtfnnGHzOUmXc/wJ0P38J8J4NIQUFBQWEAUMrni41iBJxBC21NRcTvCCPHMJDlx9jg4TcG38CReA3+6bsKCgoKVxBK+XyxOWUEyHEBA71xRUhICM7OzoPMCFBQUFBQULg6MNq/f3/XyJEj9UsmymUvB5L09HT9mtjy+QoKCgoKCgoDi1FHR2eXsTKCQkFBQUFB4apDmZuloKCgoKBwVQL/H81GqedGafwlAAAAAElFTkSuQmCC;" vertex="1" parent="1">
          <mxGeometry x="762" y="358.5" width="513" height="138" as="geometry" />
        </mxCell>
        <mxCell id="5J-S47VIE9dTWKWTMMJz-20" value="" style="shape=image;verticalLabelPosition=bottom;labelBackgroundColor=default;verticalAlign=top;aspect=fixed;imageAspect=0;image=data:image/png,iVBORw0KGgoAAAANSUhEUgAAAbkAAACHCAYAAACLUydBAAAAAXNSR0IArs4c6QAAAARnQU1BAACxjwv8YQUAAAAJcEhZcwAAEnQAABJ0Ad5mH3gAAACJaVRYdFNuaXBNZXRhZGF0YQAAAAAAeyJjbGlwUG9pbnRzIjpbeyJ4IjotNTkyLCJ5IjotMzI2LjI5NTE0fSx7IngiOi0xNTEsInkiOi0zMjYuMjk1MTR9LHsieCI6LTE1MSwieSI6LTE2OS4yOTUxNH0seyJ4IjotNTkyLCJ5IjotMTY5LjI5NTE0fV19732y0QAAYEFJREFUeF7tnQV8ndX5+L+xm9y4u9QlaeppU29pqQFtkeIwHAbDBuzPYOy3MWAbtiHDBqNYixTq7k0l7o27u97ovTf5n3NzU0JJhZK0afp+2/PJfZ9zXjv2nOe8R0zS09M7AwICsLS05EKyf/9+nJ2dmThxolGiMFDQ6/VUVVXh4OCAlZWVUarQnzQ2NqLVag1l4lJGeY/Bw2CJA1PjXwUFBQUFhUGHouQUFBQUFAYtipJTUFBQUBi0DH4lp9OgqSknI7OSJl0HHUaxgU5x1FZJYX45ZVUatEaxgsKgpLssZJTT1FROvpLvBwYdemgoIjM1kaioKBJTMylqAP1PKqtz4Ex13WXMAFdynXQKRdTRcaqT8h/dGWlIJn7fOp54aiOpdS20GMUG9OKodCPvvLqOLzYlU2UUK5wLIu5/li49nEwbY0iFvqIrv3flf6Oom19SFp5YR2rqOl69aPm+61l/+rzyWOadXt5twNL1Dr8677c30hn1Nk/ds5LQ0FBW3vM078aA5pe2Pn5W13U931nzxa/iNHHwS+Khn59x4Co5qYBKNvL2b2/i6pAQQn7iHuWF19/ja5Ggj/9+IymnKi+FfqaB4vgN/PfOEObPODVtutzqlzawKUk0RxX6jqrDbHr9Ue696bf8fmMJdS3CApA0JBkqt0umLMj3+GId/3z7MCXi0PAWqd/x0Qt3cs3dv+ftaGhsl8IBjjE9Vp+S9+984SO+SzWGOSs1NDaE8/afMwha8Tf+ty+KLWve5NGpYKsyBjlfeovnvuY0cRAScjU3/fZtRDalO5v2ygXIuwNXycmuxPYqihtdcR+3mFseeoiHTrqrWTh7OsHDx7N82VjcrCywMJ6mcCGwxN4zkKk3PMS9D4r0uGUG44aNxN5tBqtF+jwg3M3zAxnrcWGnpQx6tPVUN2nJzy2nds/nHC5uoqpNyHVNaGoryMquovlS6KaS71FeQWFxPe0dbXRWhbH+8yOkVnoSvHAZM3xEDjMzhh3IGNLDio4e+V6WBc/KY+z9+F2+TxMVvM4Y9nS0NaEtzyMmxw6XYWOZMmMy40YPx8cOzEyMYc6XnvEsDvvFVuotDgzuDm66JpSx4j0szqRlLkDeNXv00Uf/4ujoiLm5uVF0YcjNzUWtVuPp6WmUnEKHsNWFlt8Ta8+Q0EXcft9K5k2ZwhSDG8FQdzM6GjSUVJniM8QZdXshGZFH2bd9P0ei44iOzqPJRsgt6qgpKCIsUcWClcG4iTZNzslw0URHHudAmhqP0SOZOtkXkSaXPbLroLm52TBHrvd8YY6lrSteY6YwcZJIj6E6aqpt0NlN5cFnb2W+SKPgAGv0hbGkJ6VQoBqBu43IbKaV5EcnkxqRQpVKQ/TxLApTwoiLPsbhY9EkJKdSZzMCe2sV1h3llGXGsOv7nRwV6RQVnU15mzkqV1ccB2GLpr293dDFI8vEadGkE5fWSmmFCSHehezpHMdYT3u8zcspyBV5PMGUBQtVZCdX0SCaxPautlh0inKkySA8spSqmiLqGusIj4cFCyBe/HX08mV8H+b7c36PxFpK682YPKGdqK82c6zQEe/Zy1m5cgFTXLWYNYln3n2AgwfCOBadROKJcjo8fbG1aqcuI7L3fBVThMbbF0dhAf1aBXHu6aFH0yPfhwT5YNNcRHF2PokNw5kS7Iit/jR1k72etvxYjq75ju+Ol9Hq2EKNSLiashrM6yLYsvMo4RFRInwaOaXNmHp64NiWQVSUSMszpW+ihajrhtAUv4vD+6KJySqhVVtFeYcnLrZW2Fqem21z3nFgqKODCRzlgr1OKPBvtpBQZ0mH2h5Xq2ZaK1LY+300VZYW1BQlkLR/L7tiitF3llNZWyV0Qx0F6VnUFe1j5/469C72mLcVUBCzj+93HhHxIertX1AfDHwlt68EjYhoazsddSUllBhcE20NqaQmRvH2J6VMXuaHNuUIB9Zv4ttNezgaG09cRBrVdkNxcRTXqavgmDHhO1O2seOrH/j824NEnYgThS2dzBZ/xkwNZqai5AycXcmdQnel1ezErCtHYy9EptSTt/8r9u/azy7LxcwbaiEaIkJpfbGTrRuj6PSr43+v7SU3bT8x8REcOnSU+MgjJDOb4UNVqCsTid2yiTVfbSEsLo7YyBSK22xReQ9njJcVsqH/axu6A4lzVw5NNLQ7cs21rqw9WMhIH198bZuoKBRKLlbPgtAC1n2ZS43OltEyP+tboXwbb3+UQZmoANWOXcrt4iu5ErKFRepiksbaL6oZdccdLL0qhPEOWvRtlZQc3srXX21k674wwmMSSUoqoMF7AkM8OmiI+JqDveWrXSU4LJzNMKH4zmg9nAO/SFn3zPdWnvgPtcfapI29X2UTvGoIutQjHOytbvIyxbQkhu3/Xk+Ypo6qqnxyS3TUN7Xi1b6fD7/cL5RXDHHH40kraaZh+Himdu7hw09EWp4pfRPNRF3nS+mebzm0/ziRWQUUlxRR6zaL8f6OeNqfWyvxnONAKO30PA2ufhbUi/q5VNbRVcJC0zZj3pnOzhde4YcsB0zcvRjhVEVJ2Le8+34c7cN9aC1JIHX3VvalFVJalEF1cwUxx7KJEc9dV3eQjdvAPWQ0Lh2ppO/5mne+PkicqA/ijsSTq3fAbOgYJruduV934HZXdpO/mW9fvo+rQ0MNH2W73BP833+PkGYIIA3xaL77eyoa++v5S3g44Uf3EL5hFXYZJ4g/2P1hvTvcGk40BHPT55FEHj9M5KbnuCNkGB6GMAp9hyvjJk9n1OTR7BRWWmubls60JNJsnSm4YjGr3HWoM/PwvPpvPPOVSItda/n+qTnEvPlfDiRvYe03iYSHjeR3Ij33yzTd+ghXuDdxfO2h/vu+cKngPBL7kDt5UfU6qWnJhBUa5ZcUOaRH7+XdPyQx4dWXuW7pBMZJLUEtjTURvH1fFkNufpH/yLQ/8BnfvzGF1P/tIDW9Df/T5asFV7LKG9QXu6vT3gEblS1+qcLa0Ebw+Wnrpnqcpi7n9589ScjMJ/n7fzewd+vbfPqPR1l232eigX+EcHnO+md4eKmKj4T1o2luP4duRxkB3sy99WYW3vQkN9zxOusP7OJ/941ngs8ZFNb5UhFO9FfPcK2om2d119ErnuCRd5NpdJrPwx//jpEl+RSK+nZvWgrbP00m5F+vcP3ShdyycglXPfgkM+c8x2e7D/P5n29gpWcaLZoaWlccZsu+F7l/zgiCxq3k2ue+7YoP6dasZpyXhk0HurTAmRj4Sm7IKm5+4VN2GkzUbvcOLz04h7HSXy+qO9FKKW3Zz1cfPskdU6cydfocpq54mc+/O05GeS2VPcN5LMFv6gwWGE5W6Ff8huDp6M3C7cdIam3jWNJxbNAwY5yIfHNLGDuXwGGuBDiIsM4uWIWEsMyiBLPUXHIKw9kT9k8eEuk5Q6bp0qf421uikssrV5ScQKW2JWT1g7SmFJEXm3TpjQwuBzdTGybf6sma97cQkV4sbH9BSwv6kkzy9Fv515O3cK1M+zkrWHTnexw+mkJ2YzP1p8tXwQOsUJ9r3XQqLcXUJfyXJxfP5wp5zrVP8uS/9qPPLaJEp0fYbgMLjxmE3PEmm0XdHNFdR29/hw8em4e3mRoz72u57WZTWpPe5+VXvid6wTMsG2rHafWtuJ7v5GtZPVU0WLqNtPok4je8ZIjDUBknd/yTD78Kp6W04qz1wcBXclYuuPmPYtykSUw66YYT4OmAIY7k0NP2NtrdgwlechP3P/wwDz/yOx5+4gVe/vs93LY0SLRpeoRTOWFpa4+jtRQq9CuW/rh5ODN92HbisuI5tNcJsxY/JgaKlDMVWU/tgLWVRdcgA3MLTG3tcDZtx6S5lVZrfzxDV3GfTE/pHv8jL/z1YZ68fzZDZXDDDS5fTC2ssR19I4uGlqNqySQiz+hxqWDrjcv4hSy6+QYe8BPW+tFIdidUGOaMdYoaq9V/Nles/g0PyLT/3ZM89vTzvP7GrSwOEuedNl8NkELd1ESrtoUKf3ec9Fo4W93Uk6Ycso7v5j+vhmMy92ZW3ifOeeAmVl8RjL9Q6CJ2Bt7AIgt77DyGESTq5onddXTQcEb4OKAyMcVE5cLIUa6oTTQUFlbR6OCLs5UZqtNpH3E9S1sXXO1EPpffJOrjObJhFxt3VOF508Pc85CIk/tXsSTYH/d27VkH1Qx8JXc2ZGVpJyLZ3Azf4ZOYsfI+7ruv2y1l/mR/XHuG01TRXl1LRbOIGL2OxqJ8KpubRDtQoe+xx9nbm8mLVGR8v5a4Gn9UnkEEGRLkFFqa0ZWVkuHsi9rXHS8HSzxdfRm37D7uvLs7PVexYnGgoWK4FAbf9SsmQs3bjWbaLC8cdZWkh6UarDlDi7ZOQ6umlSbxc8DmcRsn1H6BjJgwgzuuGo5N/mEiw44SXqzFVJRTJ5NOhk66kitXd6f9XcLNZ7K/s8hVvyBfXXAqyY+JJjk2F7NFofi4ueF+trqpJ20VlBUWcChJWLnX38ItIuwdK+Ywa7Ts7jDyS9JXhNPWapCTefpldOVZkTmymNxUM6EIxzNj+hBso46SXt1OQ/fIU9nlXFlPQ0cHvQ5GbS4gPaOC7IYAFon4uEu4WxeNI9DXxhjgzAwCJSeqO5fhjLEvpjk7kl07owyrBhhcUh4F3Ss6dIdT19KaH8/eQzKMMK8jT5AnMo3MMAp9j52HP6NmX4tu81ZaAr1wmjwaf+khV3loLiY/LZE4mVZhMcQeyKZk1lz8QyYx3acFp7pItm6OIjzcmJ4JGaQX1iFHzV+cAjvwcJgwD2+1HbY5yeSLVrNe5YZHZ52o+JI5bigHAzuPm1la4zL7Dq7zr4HUvXy9N4N83JlonUhGVCT79xnTPjqWqJQSKjVthorwtPnqQtMuKufSTBLFM0Yb4vsge/fEkJbXwfTr5uPlO5YJZ6ubemJui5WzOx7D7TEtSyIzIYrIyHiSMgqoEunb8UvS18IRuw4hLYvnWGw8J0o0aNr6wQ78WRxIl0Byei5lmgry47ez/UAHTmOu4aHbZxMU+wMbDoiyXNVMq3xfUTc71SUSExdNQm6FSONTVJ18Dy8PnN060eZEER8TRURUEhnFldQZg5yJAa7kTDAxkc54eArSz9REzsWayurn7mac4wnW39VjgMrNr/Dm5hNU9wx3fxDmDRv4w9WhzFu2iufi7dC22uI5mIbqXQROm05qZyz9ZjI7aAKLpg9jmL9hdIFhfgxpH/P3B69nsUyrZU9z27+teezPq5g3YSFX3XQjV610IeZ3oSyba0xPw8fsw5SK08/UBz+Y+Xk8j2HOssXc+MAMTM2twXsVt95sRvuJ17hLxNlP83hXeTI19AGduWz1Nz/e2zhI4rHHmOfeQOUHb/GXsNHc8e7D2MW/z2urjWk/ZyGhd33MxoQSg1Vy2nx1gTGpjCB27R96DLr4C983hjD7tTd4dKoKW9WZ6iY5KM6YFiJNZJxgPw7/AD+W2v2DJ1YtYL4Ie/sbG9he6U2gSF+Lc0nfrogF17lMnm6Oj/4Nnly4jAc+TiShpO+nW/88DqRbwa2PvMhXift5bdlzZI8NxG/ZrVwTNIW7n3Tjm6c/YHt0FkXyfceN4qqQr3j1hkX89qUf2JpU/9N8Kd9jqAbnnB/v8bsfckird2Foz3CnYeDuJycng2trKS7vwMLaGicXm59O+NY30dTYTFmNKV7+Tlh1NlJbXkVFZcOPH2bl9zwXtWHlgOrucO01Ikw1pTXNImOZonZ0xERniaOj3c/vcZnyi/eTkxNCa9tp1qrw8HEwxOHJvFeTTnnEVyx/y4T7n72VlXNG49WaQ9WJDdzz/yqYf+ccpkz0wR4V5hZO+Iz2wN7CDHOZvrXVFBVWG1ZBMFhuKnvsHF3xP/Ueg4Bz2rvrdPHcVk99g4aCRitR2Tth3lRKZVUdlQ3tP83jdmaoZFmoBi+vrr+WvZWtX8H5v0cz9WWV1NZq6XDzxd9WQ3mRaKk3thq+uWAilKHaHT9fZ5xsVJj1lq/6sA/7nN/j1DoHK+zd3HH1cMGhO1J7CyfrJncXPJwsMGmtp0C03Jw9HbAT79bZIiyjihyKhZmiE9WgSqSRhaUtZh1WhjrM7Gzp213XmZuKW5dRW1VKWZO5iL5h+DqrsTntx7Cfcv5xIFFhZWeLi5cd7TnFdLr5Y+/kgINZC9qGKtKLhe7yd8XJQY1Zj/c1t7XHzMQatbDwe+bxNuN7lBoXUbKy7z1cbyibpir8jL7cNLUx8wAJ3z3Pq/yTx1ZPZM5IOyybhJJL3cw9f4Y7nlvBwtnDuLS3Zfz1DJYNKi/Ue/Sar4x+fcFgSY9fw2CJg0v/m5zCwMbaFduR87hj+XjGehorIgt7rNzGs+yq8Qz3su/TyknhMqG3fKWg0AuKJafwM/rSklM4NxRLbmChWHKKJaegoKCgoDDgUZScgoKCgsKgxWT79u2dtra2mJn14dCkc0AutCy7wi7n7oCBilygubW1FZVKdcHzxeWK7BaSi+Fe6M8GfY3yHoOHwRIHJjt27Oi0s7O74JVZcXGxIfJcXQfEMgUKCgoKP6Guro7MzEzjUf8zcuRI5I4wCn2LMvBEQUFBoRdE3ci6deuMR/3PLbfcwujRo41HCn2F8k1OQUFB4Sx0rdDy43Tj7t+9yXv6nUpvMoX+RVFyCgoKCmdhyZIlTJkyxfDbxsaG22+/HdkDJmXSr5vucNJPhpFhu+lNptD/KEpOQUFB4Sw4OTkZlNf06dMxNTXF3d3d8IlHDtqTft3I31Im/WQYGbab3mQK/c9pY1uOqtHpdIaJwXK0nYKCgsLljKwH7e3tmTBhAhYWfbXap0J/c1olJ5VbQ0MDubm5huHkUun1G3Ix5rZKCtOSiI+MJNLg5BYTJ8itbOTUnRd+MR1t6DTFZMTFkJJb+eNWDt33zS+jtLKXbS8UupDx11RGRkYZNY1dW52cFiVO+wZtLZX56aQkpZFRKeK8w9jQ1GlorJFpUUmTrsOwgaZOI/J0bpKx3HS5+PR8CmsHQOwb3yOpx7NFRqaTXVxHU49yGXvSL5aYuAyKRRk17Aoj37cylxPCL6rnuV1Xv6BkZGQYBqOMGzdOUXKXEGe0m7Ozs3nvvfcMc9ra2tr6T9HpW6B0I+88cisrZ8xg5syZws0T7i5e+SGepPrOX7d/mNxOPvETnl62iPte/oHNSfVd1+u+76tf86Vh2wuFXmkpoS71G/7w1DfsTzRudXI6lDjtG6rC2PzmE9x3yyM8vaGY2mbj5kINySTs+5onnt5Ial0LLaJRUZe0iR9euclYbqSbwcon3uDtQxV068aLhvE9bgrtLtfCzXiC//tvGCnNRSfL5eIZ3c++hCuXP8PH8TUUNYuHbzhB4sa/c7eoF+aIa8yY8SR//eQI6cbLX2gKCgr46quvaG5uNhx393L1HHDSs+erW95zwElvMoX+44xKTlpwUtF9/PHHpKSk9L9FN2QVN72whp3R0URH7Cd68/XY7T7Iwa/DSDMGOW/MrWDsMrxz9lMcd4BDSu177qh9cAy8lX+9dSuLJvrQY49ihf7EYyw2Ns54HnyNLbmNFPeyFVjVobf5aFMSu+0eY7MoNxGy7ER/ybPB9VT85wWe3CAaKC0Xefc9j5lMvfPNH5/vy7n4tyfx9luHKTG3QT/2QZ7/ZBP7pV/YF2x6fRKpT39IWHQWBQ7jmLjsHt754vfMmPV7/vHJszzzwFzGGC99sYmJiSE1NZUHH3zQ4ORvKZN0D1CR8lMHrfSUKfQvZo8++uhf5AREc3Nzo6gLqcxkq2Xv3r3U19cbnGx5yLDyA+qv/Xgqu0HVajWenp7iZlrRYktiT6Q5bmMmsGj5VEZ6ueDp1UD8unw6nN0ImD8a7442qD7Gd+99wpr/fcW3m/ey50AWuhFBONuosGnLITN8M+/97V3Wbt7MJuE2h2WTUdmKr0cDu47YMzuwmWprOzLaPFg8wrrrvse02Hj5Mj7IEpO8fXwozv9q/Q98vzmBpHw97tOHGir2y3btj/YamsvjRXyXYaPOJzkxh91bjlB64l3e/XgzP2zYTEK5MOJch+Btns+xT95i/d4oYk7EkpJXTL7ZKII8rVCZKy3Xc0aTTtyJZqrqLLhiioYvS/yZ6OOIv2UlBblFhCWasmCliuT/7SanyZfh11zP6lmjCRDlycvTCw91G9rmBo6nWTNzbgB2anN+WsIvEMb3qDEZxqo75jFKPJ+3l4bCyHIqEirxnmvD8SO2zF85m9BpYxnqZY29dQ1H/p2Fx5Lx+I3xw9OsHavOUnYes2feyhAmBHpyIbZIra6uJjk52fC7paWFsrIyNBqNwVKTE8VlD5dcxFj6SctOLnAh6zUpk+MZKisrKSoqMshLS0sN55wqk9frJjg4WFkcox84q6aSCSoTQrZOpMKLiIgwJJZMxJ5meZ8jLcaGOmqF8tLZqLGhhfamXMK/OE5WcQPNKhUqk1b0dSns3pFITlk26dH7Cdu4m+hKldBIwl9bTPaJVI5HFaARr9ohikbAtDkMcWpCm7qT8GJRf59s5NZTnR/Doc++4mielka9io7aLDITDvGFCNj8Y8DLD10jrVUn2LPrhCjEJ0g6vpNdm3cTVa6iU8ZzfQbxMdFsC8+jUXbDmJuJRpCoVM0tsLAQf80U5XZ+WGHvOYLAK+binruejOx88uuNXp2iYdiYTlKJDbYeY5g/zR87Ie6KaVf8J01mQsgI7GJSKNNqT9nQ8uLSrGmgpbWFDplXjLKTaNvRC/8KVzvMLC1EDAwMZI+WVEoSudyVVH6y4S+Rf+Pi4gyuN5l08tzeZAr9zzmbY7K1Eh8fz44dO0hMTKSpqclg7fWpomuppDw3hTj5gTkimsi9aZQMccdylCeuHfU0VcWw9rVE2v2mccVdd3HXHctZNd+GxK8PkJ55jIOHo4hMsmLuC+/x+jvv8d4/fsvtCwIRtuKP+M9jzjBLQnVhfHW4gtq2DgzqS1dCQVo067/IZcS9f+XZN9/j3y8sYeGIMr75byRlmnZlEEU3zaJ1YG6F45L3+PsbIp5fuIOprqakxaSjUfsy48YVjAu5gWtvf4Y/v/AEv53lgq3lr7P8L1vsfLAbu4zHfY6Qm5pGZLZxMI9eNAKrK6lx8kPt48WQU/uQbWywMlfjXlBJrU5Pm1F8UWivp6E0gwTj4JGD2yJIlY3kkGF4d+gxE/kpLzWxa/DJ0ThiIwqomTMaRw/7i9o1LnuafHx8LpiT91Poe35RzSOtN7mW25o1awxmd3t7e98qufzNfPf3+1khP0AvXEXoO1bMXrmE+1eMw7WlGX1pNnkd23nnmTu5SYa54gaW3/sRxyIyyMvNJ89qLKaTVnL9VJFBhTF3OvzGz8B/RAi5X2+koEl+vBfCBqFE22wpH38/q0Jt8XUCe/9hDHX2Y/jOcBJa26jtOl3BPRTfnvHs5oG7gyNDunwV+hiV2pYp1z9Ie1oReXFJVBrlBmT5E+7MpfAiW9IV4cR89f+4XpTZOcKteK8J0+CVvPjoHLx1TZilfcw/H7qBpTNnMOPmP3PnjlG88uL1LJ3gc0G6JU+Hv78/999//wVz8n4Kfc8vUnLyu51cW+3ee+/Fzc3NsEp9n05s7B54EraJvR/ex9zyGtoam+nuocHcBnp+pDa4I8K9yANj7FHV15JnDHpGHMYxemwgj4QeZld8G0U1RrmCwkDETLTwvVdxW2glzuY5HDghZWZC5otXeQaNmTmknDqQql402to1FAT64WFhxkW1EU4dePL9n3hmpWi4Sr+eZXr/Gj55dDGjUgqo0OroZZyNgsIv5pw1lJwXMn78eJYtW2aYJyJHCfX5zH0rF9z8RhIUMpfQhat5/m4zTmzayw+bE8i3tMLM2RGvqmgatA5YeU80LO48ceJ44QLwHDuSoSZaPPIyDQVed6ZBoGY2OPoPJfiK8dR/v4P8/BJqbWxRWzTjnLWZw8ktVDZCU3kJJQ0VFIeOY6TK4qK2Ki85Smtoqm2kznio8CswEeVM5cKIuRNxbGmgZFcY+SYqdKoJhIaa09yQwuZt8YbpGl3ZPp+E3bvZuzEWXegkvETevahKzsIOO/ehBIryOkGW2TF++LjYYJhpZiqUtdoT3xFjGTd9CcuWL+Dhq+r44s/fsS+hiArDBRQUzp+zaik5olJuxTNp0iQWLlxISEgIDg4OBquu3+Z5mNth5RHMlbfPYaRpNqk7NvLN9mRyVGNZNNeKqugdfPf+e4Y5fO99+DHvrY8mRevHuLEeBKtS+Er4fSD9PtvBgaSCXrsZze08cBl7JTM9dJhb6tBYeuAZMJQrprQS9+1nfCGu8f6nRzieb8WU26cTYGM5YD6CD2hMzcEukBEuJVSf2MA3X29me0ojrdp+nHpymWDtP51RQ4Yyyr5FKDQ5kMqbwCVXMGGkCW2x3/C+zPMG9wE/HCum1nkiVy0dg5uVxcUZWflLsXTHY8wkltw0Ce/SQ+z/dgPb9h7keHwsW9cfpbDgKLs3HuZIVN5Pu2wVFM7AGacQyGGuclSltNxWrFjB5MmTDQquL/ae+8kUgk49tJaRVmCFW4Avo0e7Y20q2nkuYxlll01xRgaxmeb4z72KZXMcyT8WRsShgxxLSCAhKZ2EKjcCxwczdYwaM10WX3+9jeRE4RcTT1KdPdYjAlk53VlYbLZMmD4MP097LMU/CzNnxg7RkaH1wW/4OOZPH0PQGEtiv/2BiNgo4vJtsB96Bb97fA5+FqaX7xQCfTPtzTWcEPE3foKtENhipnJj0vQA8UvotbZyiso7hWUhZKHDsbX2x679ENnpERxNaaHFezozh9pgJeJQ4RzpGafd8YwDHo7mqF2tyWzz4ar5I/AJCGaknQbz4kP875tDJMoykZCLedByFt39MHdOtr64Uzd6fQ8jPfNVd7m0tEflOpTJjrEcDcunoklDa1s1x36IpFFVT2mBOTbefgyf4t/V3amgcBZOu5+cHCabIArM119/zSOPPIKXl5chTF9Zb/2yn1xnJx2dcsSn8Tj2ff52REuc5Tw2PTzZKFRQUFBQuFw4Y9N6yJAhhkEmHh4ehkEmA30ZmoKwD/no0alMnWp0t4dRqPHngRsHyvoICgoKCgoXktNacrK7Ui7SLP/KQSd9PcikPyy5hoI4slNjiS0yCvBlxOSxBE1SujYUFBQULkcMSs7b2/uCW2lHjx417K3Up92VCgoKCgoKPTAoOTnnTVptF5KoqCg8Pb0IHq8ouYGGbO+YCcNdLqpx8vumQr8iO0pkM1PG+aXMYHqPttZWqqou3EruTi4uWFkOnFVPBktanra7sr+R3ZVqWydGB04wShQGCqYiZ9tbm9LU1olWp2i5C4FaZYK5qFQaWy/t+B5M75GXk8Gaz9caJf3P9atvYcTIUcaji89gSUvxCgoKCgoKCoMTRckpKCgonIXp06cbljSUWFlZsWTJEsMcXymTft10h5N+MowM201vMoX+R1FyCgoKCmdh2LBhhk1OR44caRhtLhfIsLe3N8wfln7dyN9SJv1kGBm2m95kCv2PouQUFBQUzgFpiQUGBhqUWF+s+qRwYRiYSq6zgw69Dr2+j/er6xM6xTPJOYTi2YySwY940+53Pqf0EOnXIZwyNPP8kWVAzlXt6BmHIu91z1+V6aETZUQ4uQXWj07ObZV51Bi2h59Mv59cTuEXERsbS2pqKjfffDPW1tZGqcJAZwAquQZKEjfy2UMLuPqhj9maWEKj0WdA0JBM8oF1/PHZTaTXtQyoHZf7jdYS6tPW8fwz6zh0tvTQt0DpJj54Yx3fbEmm2ihW+IVkfMdnH7zP0+8dpkwcGib4VB9m21sv8ZcH/x9rd3/MU1cvYMXcEBaedDOFu5PXtySQUizy6ZaXeUjIlxj9b3r6dT44cuGGxA9G8vPz+fLLLw2bRitcGgw8JddcTFVpLkeyLbHMPkB+aQUlzUa/gYC+iab6KvLyqmmVLWOjeFBjbo+V+ySWXjWJYV5yceszIWKkvZrykiqqapvQGaUKvxC38QTYVOJavZX9GdAmIrIwaiuZNRU0B4xmpGW9KBfDmbj4Vm7/7WM8YHCPCHcT8wLbqTxylON7qvG88THufFD6rWRCgDPafEXJ/Rra2toMG0ZLK1uSlpZmUHwrV640OPlbyiTdA1Sk/NRBKz1lCv3LaXch6G/kLgQWKjWubp5GSRdtxdFkiEyyr248M833UecZgqN7AMNtm2mtTuVAWCaFJ8JIjD1KQk4pDSoH6o6v5+jx46ICMKHDzhs3tRY0GUTu3c+RQ2FExqaTkt6EzXAPrLWF5KQWkJ7XgpOvo2FPK5PmPDKkLKsctbqcI2Hl1BQcJDk+jMNHoklKSaXOZgT2ah2NWUfFdfdyIK4IXUcZVVpR6avtcbG5JDYzOSfkZHBLCxO0wnwwlOWONnQtNeQWdeBkV0dpYTnJsanUF+1g78FoYqKjKWyQce+Ok2kFmXvXseOwSKfqMjTtLdSZeuPjoMLcTE4tVegNCxE3cn5ie3erQO2GXUcuuro8Dmf5MSmgnOPf7aVYPZrRS+YQqi5iV7QXS+68lmVXLWDahEmMnzBRuNH4upSTvjme9FRrJv75cVZOn8TkicNwk9tLWdng5+9gvEnf87P3uESR71FXW018QpLhWConqdxqamoMSxzKtXwLCwspLy+nvb3d8L1OKr4TJ04YZLI+leFkN7GUy0nlDQ0NP5PJ63UTGBSMs4uL8ejiM1jScoApOS1ViYdIzyiidOz1LLP8noiG0aid/Bnv0YgmexuvvLKXnIxDJMbsJTwxi/R2N5qPreHA3m1EVqhpdQliknc95Uc+56vPdrDrUDjx8Skkx5ShD5mAvz6GYzsTOBTXzviFo7ETdzWtPsz2LXEcOp7HkIBs3nrlmLBE9pKQHM7hg+GiQj9KqvoKRvmZ0pa+n+M7thOWWUxlaTa1tkF4+/gx0u3CTqbvT36m5GR3Zc4uXvlXHm4eeSREJrBt/UEaGvexc28CCcf2kFIr434swe6iYvj6I/bFZZNZlE9lUwdtXtOZHmCtbLVzBnqrUKxtLWhuaCNq8wEcnDM4fNwT17GzWHSlG+rKFHbsKsXe04JOfSPVJcWUlpZRWteJSt1KZbKogItFhRzsItooKuysXPHz9uxXBScZrEqupKTkpEKSSkrWX91dlvJvZmamwfUmk06e25usJ4qS6x8GWK1TRWFuAxVFaubNHMq0uVejKaomN6eAavnBXGQuMgtwW/5Xfvfia/xuujP73/6C9rvW8reXnyLUTc/RfZvJrj3EB49+QMvEh3n8y+NsXvtX/rY6i4++CCc1+6cZ62foRCbN/ITqgIdZ9efj7P7hc9Y8OY+EnbtJK2rDd86VLL7ncUJCn+Xdjft57+mVLAu8zPYMr4qgpbmO9quO89VmEUcfdsd9FPV2I1j62INMu+Jx7n/6v3z86Tv87SovHNTKaLRfjN04fP39WOL6Pv97bzdNs+YRfOVsRko/Yz59+8mbuPHKOSyXbtlSlj+8hh3J9jiNbsas8y2eu/oqVv59J8cyq9Dp9acMZFE4M6KSF5bXhXIDfJOXS5aBZclVR3AsuorMlhEsWRmEu2c7Jeuj0ZvYYzPWD4/WLHYkeDHr6mlMGN6Bpq6FjNLh3HT7NIbYlpOf3UpzbQcTRrWxM3YEc6+bT8h4N5wsWjHT1xLxYSE+4zspbTYXlbQT04UlJ9WTqSadxOQ6yuth/ERzwhICufL6+UwX59qbNtLaUsLRYxaEzBrDUNcmqvOKOZ6kYs7VwbhYq7q28R9E/MyS09bRUpXOjsMwbgLUt7mjs5nGzbdNxNtKZCJ9ARlZIu5bXJi5YBj2DckcCtdi7elL0ERfw0aZCmfmdK1mlUqPrYMlB+LGsuiqUKaPc8G+Q6RHTbYoC4Hc/Mc/8OSzT3P/3Q/wm7vu5jfXzWHqCHe8fIMYO+dWbrjuen7jEcm6/77Da9syyOzwZlGgm/Hqfc9gsuTs7GwZNjKIiZOmXBDn7u55wevhM6FYcv1AQ1YCOSl72Lf/U15/8mGe/MOH7Ig/SHRBFslZQgOZiMdV26O2tBCF3wwzS2vU4tjO0hRzlQXmZuZYylpZq6PVygMbWyuEDsLUXIS3tkNdr6Fd+LUZ79crJsLiUHtgbzwXUzNMVJaoRc2v2CJGLOxEfDrjbCOiR7Y+Rfwa4r7LV6EPMVdZYePsJbK+E/Zqi648KTHmU+9hYxkTPJ5x0o0bx7gRHjiJQGo7D9yHCNn4yYybfjWrb1vMTGtTOsKSyRCnX+L11gXBUpR7d3cRjxfIXej1gy8XBoiSk10ojRQkJ9MkzAe30aNxVdtirR7G+BAvVBYaUk/koRGhusY0nQFR4ZrYqHGqjqakuIaKBlGgW5poKCukcpgPdrbWODS1oBUKTw6Fl9drriyltr4GoUbPjTYtnVX1NOg7lMridNRpaGsS1p3xUOEC0pxHekYGkScqhZkttKLnVObNm8b0ABfUzS2GNFE6LRUuFwaGkusUqqItl5QsDdbDlnHXn97h1TeM7k/3MN/XklqhAPOECaY/W+lU2aBy8WOyYwo5sZEc2h9B+NEYjkcU0Ll0Cv5DhjPCTIeqNo3jURFESxedRFZJFUIfnh1zO6zMzHBqSCA+PpLEvAqqNIqq+xGRpSzdcdaVUpcfQ1RyKlmVbeiUb0F9S6cemorIT40nvjsfR0UKJ8pJQQLhxw+w6YftRrlwh5MowByz4KF4idMHVBeOgkI/MjDyekc7lEeT2j4XO99QZvfcbWLUOEZZwcjsZOLLTdGLR5ZdZCbyn4kpZnLjM4n43fUB1wVbp7nc984j2J74iPfunsv1v3mJFzeM4aHbpzMmZAWzF/oQ7LKB5xfPZZVwz27LI0vjSoA4X15HXrPrHsZLy2t3y+yC8A0cxeKp3/DeXcv5w5tb2JU6oKar9ws/xoFw3R/KjX4/xr2QmamF5bCC+fNKqIl8jj/d/wR/2V5GQ4thOrPCefCT/Nct07dgmruGd5+6mZtFHr7K4BYKdx9vR+hprU+nZfMDRrlwt3zAsRobQm6cg4c4X+l6V7hcGBj7yXXK72h1lFV1YK62xtHJWrQ5u2mhsaKOpsZ2zFxtaKoBZw97bCx1tGmaqawzxd3HEUs01Ne206JX4eZhi7m4XnlxJfWaNrRYYG7hiOdwd2wtzDBprqGhtpLimq6vc5Z2dpiZqLGyMMfJCSrKwcld3MNahZlQwPq2Bop6yDpbG9BU5lEmTD8zR19cnRxwsh481YasTH+yn1zPOBDx0y7aJO0ynj3tDelkomugtjvujbLW6jyqaxto7LTF2sUXX0cLzOSFFXrltHt39ZL/DHmytZai/EqadR1dq6EYkPFrhZOPO1b6Jlprq6g9+QHaEjtXN5zdnLHrx7ENyr54g4fBEgfKpqkKP+NnSk6h31GUw8BCUXKDJw7EKygoKCgoKAxODJacr6/vBZ+fcfjwYewcXRkbNN4oURgomJiYYGtpQkt7pzJg5AJhaW5i6M5tbj/r+OEBjfIeg4fBEgcGJefs7IxWqzWKLgxxcXF4e3szceJEo0RBQUFh4CC3K+peiPlCYBi4pSx70ucYlJyfn98Ft+QOHTqEq6urouQUFBQGJHJHge3btxuP+p/ly5cjx0co9C0XdeCJtCAVJaegoDAQEXUj69atMx71P7fccouy/U4/oAw8UVBQUDgLI0eOxMfHx/DbwsLC0DiXa/5KmfTrpjuc9JNhZNhuepMp9D+KklNQUFA4C1OnTmXKlCmGTyxyb7mFCxfi7u5uUGrSrxv5W8qknwwjw3bTm0yh/7kMlVyH4WOyXt8xQNbv66RTPI9uwDzPRaazK206+mFUZ6e4dodOi1Ze/3wv36lHr9MZ0uvyHXd3eTJp0iQWLVpkGCCicOlw+aVW5WE2fb6Wf751mBJxeNEXm6pPIn7vWh5/cgMpdS20GMWXJXrx9iUbeOufa/l8UxKVRnHfUE9x/A98dP9C5r+4g7DMs+wr2BvtjRD1Nk/e9SiPvr6Jw337gAoDnOjoaNLS0rj99tuxsbExShUGOgNPyZXHE7/pTe65554f3V8/4q39ecYAvxJdAzWVVRSXNSAnTZy2QV8XR9jaN3n5T6/x9qEqNG3GdntTNplRu/nX24fI1bSdeduec0HfTFN9Fbl5NbToLnPrwLC8Ww1lxVVU1jT36Q4PTdlRxMdE8i3zuXX2CIZZpBvS97ke+ey5NYcIy5Y7OzfQXHec737/KM8Y/P7KS2/tJ9XMEq3fHFaEOmBalc732+KoEqH7Jc3y9rNp/Q+89m2Pexjy5Br+89J/2HZ8E68++gi/6/H899xzv+FZ1xzKJLtC5NNDa/irkN9v9H/qzbV8G1cnr6RwHsidveU+mLGxsbTLte0ULgkGlJJryj1G2LbdbNydQY21NSrhrIVrLyulPDWFYhHmglleLYVkJMezZ/shwnftIL6ihQapFdsqKc9LYc/eDKpbdcpWO5cEleTHJJIS04jDgtu5aeZw/PS5FJaWkqWReUwlXA1Zew4RfSyVlIJ8co98SXhpJ01YY9qQS3bSIb6IrKTZZRKLVsxjiksN9dG7CBeZsq0/MqWpOc3F8eTE/3iPyhO7iIqNIKagBl1NKvv2ZVBSr8PUWE66nBUq82oKoiMJ3xZNjs4aCysp11Au3jc9VapMhfOlvr6e5OTkk/OKi4uLqaysJCQkxODkbymTdA9QkfJTB630lCn0Lxd1Z3C1Wo2np9wZXNpT7eRvf5d12wtJtV/Kn955mruWL+ca4UIczfGiluYxo3CozCQnO4/s3AKKisooLW+k084Ry856airqRAarpKUuk/SsFjplgbdoo6WqiIykdPKKiijKiSUiqZFaUy/mXWncGVw+0Klo0onLbCW/SE+QaSIJ7jMZ7mqLu0kpBblFhCWYs2CZJy3VrSLDm2Bpo8JMWiLtlRQUNtDUohGtvQbycitorMwir6CQqmYdraIFqMlNIj2viEZsMNNXU1mYz6HYdoICTaivKKW4oIKaRi0m9g6ozcBEW0uFCJOVJq5TVCzeu5Z2lai8zLS01VeTk1ePtjFdWIONNOrNsLRX0723Zp/Q0YZOU0lmchU6tSXmagvMhR2sb6+nKKGcdisVnfpa6oqySErPE88n4rmoGo3OFDMrcyxEwyAzRyOso1xKiysoE8aElat4fhEDFemZ5GblkCvOKSktpqWllMNReqxswM25gcIsea0iNDKuVGos9Y1oyjJIFvcpKJR+xriys0Otq6RQxH11ZTG1lYVkF2hRudhi0RrDwY2JxGc4c83j1xHkYIqFsMTq3aYSsPwhnr7zSpYvH0bdN/upFBZ7paWWqm8/p/Gu/3Lf3TeyekIz7Q1pvH/UkdWz/LH3dMO0IJym/GRiHVcyx98MtXkfT+J1CMCxNQGTqngO1sxgmr+G2G8+JcU0AN8lV7HSvZRtcaO47Q8P8uBDt3G9KCfLly8TbjbB/uUkrw0jKtKKGe+9zuOrl7Pq6mDcrd1Qt1gSGOhqvInCmaiurjYoNIlcuKK2tpZS0VCQdaVcJSonR+RbUY/pdDpmzZplqMsiIyMNMtmd6eXlZRioIuWNjY00NDT8TCav101wcLDBT6FvGSDz5IQ91FnApj+8Qa77ZIbdfi8r5KZXp6BrqqLo6wd48J2jHEipFRJH7F1n8Mi3H3OnxzEObshhx74Ugj2/451Nq3j8q99z83QNZes/5alHP+OEqIe0cvCBz2Lm3/gQH7+6Al9xlV7Ve+lmPvkyh9gTTdy2qoobDszig3vmcI1vLkf3h/PKp/Dii/Cp+Dtkcii33xuKl64Jitbyh9eacBsi5EMaeffNdEaYb+VgugbnxQ8zZ2oQjuse5e0kPVP/sIGHl7rhXLiX57vDZTRTWOPNmHmreeTDf3JbAFiXbeHT1z7iX+/vIUOoBjqD+M27b3DPAnP0CeH83zt1LBr1H74+GMrE3/yWx1+4isnG1+gTmnKpStzAfddlseCjB1l+9QRGmlRQV3yEl0MPE/j+PYxziyHh0zd5+H/pXed0jmTRw7/ngUfmM7t+C/f8Wc8Yp885ka2m3vs3/G3D3YTqw/jkuv/j8+3RxIu0sba3Z9Xjj1GWYCssrb2YtO9lzR55LT1XPC/i6tZrWGhxnESRrqv/nUxFQ7vw82bs/Bt5+D8vcJvp17z4pmjAlMpzM9icvJo3w59lUfEXvP99GWEd0/n4n9f0kuY98589TY6jqPhLGvOj/sgsb0fca8I5uk+k+ec2/OXTWwl0taEt/BP2hcfyuc3TfHqrH642/dBIrIkw5LW/f6rjhT+b8NnzpTjOnc8NT43FP2WzIU5vffYaFswcirPxFLljuJlZHNtfPExUjBmzv/8tM0zNsJZbISmLafwilHlyg4OB0V2pF5VVSSRxqZZUtzjjfprGjJnaEe9r3+T9b/cbPgJH7/6I9c9588OeOHKEdUPFMZo11bSuOMLW/X/jgTk68r7+hm2bqgl5P5o9x8Q5u97khZtmIHTQueE8AoeQu/ib6p+kpCZzuNAoPxcamjErasL/ia18+PofmEsZxw8V4vbSAXb8+04sijOIiE2iqme4bdHs+/QBbh5bzHuvfUNGYxifvZxKk/1q/ibfOeIA0Vuuxz4jhbiD8twcdNk/UBCynpc/f4eXHpjDWOPt+wy1D9bDlnLr1QeorysjT8ZBTRWtyTFsXzgFJ09XgoJXct2f1neli3Rf3MQ47yY2HkgVOkQDqR9RHvA7Vr/yBWv+dQ3j6lLZ9uRzFE+7lwc3dJ1zZP8O/na1GyMbNlKrHseoh4X8mHjf93+MK43PBCbc/wW7Dx3vus+GP/K7ZZZ8uD6apmaRj/K6z93Kvp2PsVxY3/rKUqyERTdmYiDe4tF/tilSd/5r9UfnMFwoMaO8GwdHbCxt8U8toFyrMwwOcnB0xtLWkdSCYrS6fupEdwjGP8CXa1ze5r1/7aBx3gImLDOmrzFOX7l3JQunTjUMXZ86Yz5T7/iIH+LtcR6rwUT7Kg/NXsiMF85zoI2CwiBgYHRXyk1T60SFeawTm+GjmD5zyI8t0x6YdGoxaz7Bnq83sW3rHg6GH+d4fBoR5b4sCNLSUGNCrclYrrlnFaHDHXBsO0HE0VIymkey4uFrmTHCAx/rcrKzmqlsdmLW2borE2spbXVnzlXjGWWazpE4NXpdIyrzZqLiYcECiBd/Hb18GT/ZF7sOrVBsSUKZarFxFHInUxLTXMS9VzHNu4GC3HZq9EO59u6FTLIvJCy6E0e7Dlx6hhsTwFDHJppKyjmyuZapS/Qc+2Y34XHxJOankijeOTwinLCjbdh5WmDrbUV6mhvX/PZWZgd74eNoKW29vkVYB3LYtGtzBOvLhmJp584Ys0rSD+6iZtqNLAz2wV9VQdGJo3z34TfsDQ/neMRxjuZ00KlyYF6gll1hlky//lqumCsUkHi/9qII/vdNMyOWrWTe/IkE+Xvg7uKIg/YEByM6cBw7h6XXLmBKgBMeVoUcjBJx5e7NlPF2qCpj+f79b9h9+AhhIi6Op1SQo/Hk2umtRCWY4Wo4dy6T/eUu7qZoUneRVG+L1mMKS0fb/bjZq4EGmusT2fj8RqGEZzBu7hA8RUMpeWsVQ0SDwd/OChvTWioyikjcWI7//bPxEzI7bTnFJdUcjzJlyZKR2Bu6cPsYUwsszVqxMSlhc7gfodcsYu5UP7zE8zRXprNJxOmUaxaz+KqFzA0NJXSGcNMmM3WMP77ebviMGMuo0ROYYZfLkV2b+Dq8iLwOF0KHisypcFbk9zMPDw/GjBlzQZxcXlGZQ9f3DAxLTvaj2DlgZyrayC3NNMoBbqeibaC1NIZtn24jOruOBjMbbBzssXV1xkOcoBct7DYbH+w9RzHGC8xlc11cq8XcFdOesvPATGWNV8htjLMuo70ineQKo8fZEOeZuvnh7WCOlb14XmdPPF098LYzxczeHkdzCwwDkXuGEzWlpb0jjvbOOFfW0dRQT52dDWbOjrjaiGvYCavCczLzF01hSpAXtirRQHGfyBgfFaLu7TfMVFZ4TV+JZ10t2tJE0urrSEx3ZckkH7wtS0kJO8TurdHk6m1QqcVzurrgbGaOnaYZjZmKDpdJBHg54i5bFboW9JoqCjvG4yYUm0HWE4dRuHv5EOAifpuILGpnjKvWMkpTjrNpzR6SG0zQqcR9nByxt7XBta6R5s5OYYn1OPes1FOdl8ThNfs40TGScTOCmTDaDWuj70laW2kX1l69uwO2QmkaGhHiXoYFfEXelUqzv3oCrUR6e42Zipn5cPFO6h/jSsQpIk5nLr+BW+++m7ulu/M27r5mIqM97HDzm8jExUJ2x63cvWAsI731VCSlkbjrBEXi9Is+deYSwMHBwTA37kI5eT+FvmeAKDlRs7sMZ4SqjKbsFGGdlYnq58eh2a21tdQVJFNcEMb7H+RgO/tOHnnjHd76x/P83z0zGGKj6n2ghYUKC2FdmWoaqGsz1Eu0i9/NrUL5GYOcE6aW4vlmsmSmubAwi4mJqkDqYcPztbSja9cibFHDZOM2oQQ02nbD8fmik8+nbaXZzUlYCGphFQrr9up7eeof7/DOO93uYX6zfBx+xnP6HXOhQUctYrFVHa5VxzhaUkGSbjZjnVU4tiZxfF8CR9I9uEo842tvv8Mbf7yZVdMDDJbyzzCzEFFqi5NJMZqmFhpbjfKz0ZxHdlwkn65rZOKjL/L8v9/hX3/9LQ9dHWyw/E+XmS1UlnRo9WgaNIYpH4ZpI+3COsuLJ2L3MfZva2T44/cxe/owhlirsbA0x96lkgZNB3IQna6mktqGKvJG+eFubo5anK6rr6WpWeSrIb44mpn17UCfX4t8t8pK8stELjUXTztqJQ8+dif3TPDDM6+EAhFEGRWscLkwMJScoYqYwvyVrrQWH+OLf35HpKhdmoWTQ3VzD4dx9PsNxFmo0Y+ZyWg/0bpVa2msLCMv6igp7W00dl3op7i649JWi1VGAuEFWppatZSfSCCjINdQ0H8prnOuxKFJi2bbFtJE010nos+0sJz6shrKxHO2NTVRGHmE9JoqztXY60JUu516dMb3rc7NJrummIJrZjNh2HDGVe+nOOY4+5O7/A1Op0d/Qfd6k2awF2Mn1tNRHE/UoRKK54bgbqnCStgxJh5DcR4dxERXLSaiYXHGeLZyxtIriLmqr0hOzSI+t/udtOKduhojvSPuY++GVdAMJnubYmempUbGVWoCcrjL6SpuV3cvWmsayUhIoVhc22DFVB1m85tf8PHXZQx7/2WuGWmDm7ieTueFk4cTUxbuJTZRQ3mFSI8ccY/8LHKG+eFmbibeV9iAdTW0NtYy1s8bi/PtIvg1yDiSq6/odT/mCYPToa8MY8v2Hbz7XddQd4MrK6Pa0oT6oZ69f5dUUBikDBAl14XrvMd54IE5rHD5hoemTmWG8YP6tR/tZr16KfP8r+SuEZ/z5Z+6PrYvf/BP/LtgCL460fI2XuOnjGXOsglMmZTJyyumMmf6VB76LpOUWudzH3jyE+T1FnPjAzNFzIkWsve13HaLKa3Jf+cO8Tyzrrya/xdrS1uzDR7GM86JhhxqDr/MPYvmMEdcZ+H/28eepiv45LFZONnO4sbn7iHIIZlv7jAOMJDuhpd4fVOSYaLwhcQ1cCL65uGY56u59VpvrOUcB9d5TB7SiFPmU6wQzzZduDPHsxq13UiufeZhTA+9w9+v7Xqn2Vcs44WtlZx2jIRxIMZS25d59OquuLrl1fVsKfc2DMY47bfIscGMVXUwOjWOyBJh6BjmnMWRmS+suKgvTuYN+QzLH32dz0s8CbnrMVT/vInfLxbpcfd6NiUH8rfHpuJgKxtklRTkZJKfXs4QX2/MhSV3welt4MnUGcLdwUth7TTVpND4zR1GuXBL32ZfhQ0zbp2nKDmFy4oBt9VOW2UGeRnJHMuQHZZGXIfjNyKIBcPVVCRuISa3mUpRxi1tbXHw8oNGW4LGmqIRssZWW4Kn+hu+dRm+kzQUUpiTyt64rgmaDj4+WJq54uzg+tNwp9JcQEaOhurerldUxtFSB66YNQyrinhS03JIKW7CzNwcJxGXpq0OBHhbIB6PzGxzJolwjh0l5HRfb4o3Nk05xCTpsLIDW4tako5lICdFGKwMGx+8ho1hdvd95bMkpZGcUmzoxjXgMIrAUU549LyHlXnfD344FcOzVFHeqGbEorG4C5GsMBsK48kRSsQYzT/Gs7UVcpH2uDgYOd4PLw87DDmtU9hdIg6ij6SQU1pr6P41V6kICAqitVaFt48bw0a5Yd0dTsaVixvebq3UJu0lIl/kFeFl4+qKjb0nqnYbJk0ScZEJdiKc4Vx5HwPVpH3/OVv2p3NoyuOsuWkE1tUJJBnTrSc2PoEMGzOS8a61JG6JILe5DQ2uuPmNYEr3++Zt5eO1YRwodeOO555mvhBa9ZfW0DXSWlfIURF/w7vjT8pqsjm6/wTlLe09Vt2RD+HEqJnBOGnLqc1I4cdi5IBP4DjGBI/C/2cfHRUUBi+X8X5yLbQ1FRDzbRiZTa29dHc6ETBhEuMmBzLUMDpE4VKmOe8Ahw7s4l8HO1h842+4IXQYQ1zk17VfgF6oEzn46dsf2FrijnrSMp6/TSgU4TWgukQUFBROchmXzVa0LXnEbVjPprVrWfszt5X90dkUXdYrJg8erIdMYcKUGdxsk8iuhCKKas91tEsP9Fooj+Ngih4rn7FcuyQYOYhTUXAKCgOXk5acSnVhx4dJS87FxeUiWnIKCgoKCoMdg5KT66Xp9Rd25oxcrUKu46YoOQUFBQWF/sKg5OTioxd6I8CjR4/i6OxG4LgJRonCQEEOsFGrTGjTdRqG9Cv0PxZmYGZqQqv2Qk4L6XsG03tUVZZz9Fi4UdL/TA2ZjruHXLB+YDBY0vKiDjxR2zoxOlBRcgMNuQCNvbUpTW2daIWiU+h/ZKPCXLQzG1sv7fgeTO+Rl5PBms/XGiX9z/Wrb2HEyFHGo4vPYElL5Zu5goKCwlmQn3Ts7btm45qZmRm23pFr70pZz+1xusNJPxlGhu2mN5lC/6MoOQUFBYWzcOWVVzJlyhTDZx25Oa3cFkcuqDx58mSDXzfyt5RJPxlGhu2mN5lC/6MoOQUFBYVzQK4cs3TpUuORwqWCouQuNTraoPowG9btYe/RbBqMYgUFhf6lsLCQuro6g6JTtsS5dLio+8lZqNS4unlCp9awf1vEnr2EHThMREwUsSddFhXtZli4uOF4PhultZVTXpDNkYgaHH0dUZmb9Y1m7/nMyWWUdtgz3P3HpVEa8qM4EXOY/RlmeIj7Wv2a+zbnkp5SQHpeC07ealRVh/j6+xKaVU6MnuiLrTFYX2FiApYWJmj1QqfK0ZW6Blqr09h/uBxTO2usbS1Pv3xYd7xElVDTbIKdq23f7283CLEwMzEM+GnvXmW6KonYpDziirR4+joZljA3kfkgKp74mHQazGqJ2bqdiIhwok6WlVjhcmiycUZt2YwmJ4q9P2znmPCLES69oo1mCzd8z6sgnRs/e49LFPkedbXVxCckGY6Dg4MpKysz7BYuv6u5u7uTkpKCnZ2dwSUnJ58Mp9FoaGxsNOzyHRMTQ3t7154kcl7wqbKeBAYF4yzCDBQGS1oODEtObppac4ztaz7hk/98xLpv17L+pNtKWGw2JeexQIWB9iqqCtM5EpZFTZuu77YYOfnM7/HWW2v4em8clcLIMmwMoK0lN2Yj6z/5F298coyCpl+39Y7ciDXywEE2bkkyrG95wUf16zS01aRz9HA6RVWaM79Ld7x8f5BDEbm97w6hcHZqMog9vI3vt+0jQ5jrWpHoTfn7CNv8Dd9+s53k1D18/M93+PSTT/n6ZFn5WridxOTkkZ0eS9z271j3xVq++0b6/ZevNu9jb9yFXtJ7cFFRUWEYGd7a2lUhNTQ00NTUhK+vr8HJ31Im6R6gIuWnDlrpKVPoXwZWd6XfNax86kPW7jvKzpNuLS//7mpCHfXotVp0erlZpQws/nbI7Wl06OVfnXTCX+7lJlpJ0un0HXTYBhI453r+8terGGmvwkIvrqMT54iwWmGqdMiNL/XiWMh/3LlGnCfDyPPPNnrWL5SR5i345u9lW2knLcL66aw8RGJBBbHlQxghgnRtsimuJbdFMT5bu2geya1yDP+Mz6/XtYtn6vLXyvsb37NDmFMyjL5DKGnpJ86Tz9Up5PKcn7zv2Z73fLDywmHU9bzwt+uZFeiBtYgrnSEOf3xe+fyGexviU/yWz2vYBkY8c7881CBHxPfCYAsWqbexOUZPS7ue9ENbKba2xueGW1jma4N6zL08/tZ3fHeyrBwU7n88cZUlDXvCOHrAjqvWHmX9Hun3KY9fOxPv6mrjDRR+CbIMStdN9+IZsbGxpKWldW1aK5z8LWUSOS3rxhtvNMi7F73oTabQvwyMeXL6Jihax//9uwnXidO58Tehp2xVU0D2ke18+3/fUnTLv3hw2SjG22WSuH8fH7+XQshToaSF19FREE17YwqRxk3Mpt33NtfNdMKuNInPt8B9D8I28VdbdRST9lwOZy3i8TVX07b2DUrNJuO68CGuGyPtlAR+eHozVd6TGXvntcz5cYTwj5x85jp04p5eQbYk+j7LP6/yoGLzfRzMquF4zXSaC9157oNbGNUZxf7PvxVW6lHxNnJh4Cu4+/W7WDy+lZqoJD7+VkOI3+fsjtaQVwYeQfNY+PC/uCO4nLh3f8+a9Uc4VKLCM8CV0bOmUJPpzwjHdBxt4thpnK9qeN+l85jl23V8vvxsnlxrEfW5h3jlQ1h6DZSWwonILIY7/8C3B4WFIRq1o5f8luW3/IZlHmns+b+7+c/+Kgq01vhOns/km//Cc4s9cJDb8ij0Sm9zktqL9xIeFsHH+4fw7BOw4aUIdONmsuDeyQQV7+DRl+CmZ1Ywd8ZQwyLRPxLLrlf2ExNrzvR1TzDLXLRTTFrQNMpGhzlOzr9wYepfwGCdJyc/6ch9+aSlJkdYysXlZZdkW1uboe7s3tW7vr7+ZzKJPE82DE+VSdeNMk+ufxg43+Qakjm4aR+Rxw9y9Nhe9mzdxHbpomppVjng722FurWAg9ub8JxoT1NBIllRObRMXsTs4TXEboqnQeXFyKUrmT95AiHO5UTFdtDaUUOnqoHjYc3MmNnM8R92UtzigPuM61gYOp5xgb64VsUQU2FOms6XJSOFss/cwsexJpj6BTJvsj/2vX3C6H7mcD0Ow10Z4utA4bpcfKdVc/BgFZ1qF3z8XcjPNmXO1SpOfPYZcTkWWE67nqvmjWNERzQxWhfM0WBTEsXmr/diGnoTE6cIJTXMGquOZvZkOTArxBtHSimptkZrP5lr77yKmcNMKYkMR6Nyx3OGaPFPNb5vsSNmds4EjnDu2s7mPPnZN7n2aprK4vh6SzMjxzRTlhJJQkIx6tl3MidkBtO9WqhoMCO3yZnpkz2w1+aTXOyFb/Acrrp+KdMDRzDExVIUGHFhhV7p7fuHmZWdaEvVUhf1HvE5ZZQ5L2L8nNnMGi4ClsezY+02klKOEnZgJ7tkWdmxm+0JIj96eWKpOUFh6gY2H48nrNyZAHcX/Fzl/K3+/UI6WL/Jye5JqeQknZ2dNDc3n7Tm5N9uhdWbTDp5bm+ynijf5PqHgaXkDuRTq7PAydsFG5UlKumchjJk2AjGjg7A18eeumMHyKwXVlxeEx32QVxxyzLGW6QScbgOm7FzWXT7zSyZMpbggGaiNqTR3KGh08OBolSYMxeSwkuwGjqXOatv5arpPjhaqHG2bSQjVUNJbgfjZnrQsP9twlSzGT4hhHmn22fnpJLTYj9sJKP9rdBs/ZSohlSydbMYO8afAFsNsYmdzJnfzOH16Wg9Z3LFPXdxzfQRjLKNZfdB+RGvBTsbDfHRzUy+91mWz5/JrBHm6Bvr2HlMx8Llkxjq3EhxmTU660nc/ug1TLLOJfpoIWaG97iLFaGjCXYpY3+UDktHN8b/ysEoP1Ny2jpaqtLZcRjkKmz1FdVUN3sx/a6nWDV7IpO9GsnJbSK30pq5iwLFe1cRm+bGsKkLWHXjPIKcVYqCOwu9VihmNlh0NqJuPMzGow6MEg24WSKth1qI9KhMYceOQlSeLjg422Mty4raWpSXEYwbOxIfVz0qyxbqGi2EFddEVU4SSQX1VHXaM6LHAKm+ZjApOcNnhA4TvL19LogLGDoMG5uBs6/XYEnLgfVNzm0Gs1Y/yfOvv8U/ut0fbmbF9CHYqVxQe4eyelUr6Tu/ZFdiHQ2jr2CaM6jkW7gNx020YP3kt1xz0VodMVYoEh2OzY3U9xxnL+4RMHwM43p26fkGMdxUz9CiKMIrawg/nMtQ0fId7u9mDHA2XHHycidoTiG7Po7A3NMH/8AA7KSX1BI1VdQ6TMbFeF9TC6HIR47Dp6QGbVE5xWovVAHLmDFajYvUTtY2qO0dz7yDc8/3kCsoOLvhJiq6HztD+hGHsbgMnUHoCKEMZdtIPKu9tS3nGlsK546tqxfDZ67A3DKEIF8HArq7zs2sRL5dxnWP/Jk/d5eVf/yTfzyxlGlDhdUWuIxF9wvZS3/lH4vMqU3dwv8++4H121MM005+/LqkcDrc3NxZtFjE4wVy8n4Kfc/AUnJnpFPU5aa4ugegtrUztDAQLa3exzQIoRwAIX8Ks+TsNsRo/Ec34zlyF8eOJnJs9xV4Onri72P0PgccvYcydeVjjLdfzbTRp5wrTaPODkM3R9fgDPl44lg+m3iRsz+foOuVLh3kw3b9V7jQyEFOonElBzZhIVpNEx/mL2+/zP/NGM3w6BMkiiA/7ShTUBi8XEJKrhZNfTQf/a2d2Xc+wOogKzq++4qtpdByarO0vR1ijxFl70fL8GGM6W3gyCn4BM/Ax20EOW/+g5wbFuMz1JdfoOPAygeHcbfz8uY/cP3MkT+eK60sT188K3dTEnecsHTQt7dRHhVGxkhPVKOGcE6fmitraS0sp0T87Or1H+AUlNNQWYcylu8iUH2Y7Tt38MEPqUaBoLqCWksT6vw98BKHyhAghcuFgaXkyg9z8IuXee6he/jdSfcc//lmPTvC9vDDXz4kb/oygqZdx+r5oxjpUshnr3xLfEMLjT3PfeQJfvdSIc4h05mzMAjPc/jcqBIKzs1vKoFqSwLnjcLNzc4wAfecMVVhZu2K32hvnO2sepwrfqnGs+jG2aJySWDLn+/hscee4o8favEdH8y06f6cde0Eh0mMHAHOzZ/y7yce5/XN6WRXnu/EwX7G1BJc5zElqIiq2Df414uv8cGRKjRtSgdZn6JvEQ2Jjax7/Q/8v5Nl5X7h/srauFrKCuLI+/6PRrlwT60lqt6KUcunITdzUZScwuXCwBh4IunU0dLUjpnKQjjjoBODc8JzmA8uDmo6S1rxvf5GJgz1ZoirBSpbNdU1pgQFtZB0rJim7kErVkJBOYewaNVMJo9ywVqoEXNrT4LHe4r39GTIMF/8fR1/OgJRU0JxTh5HstTMuXkZY9ytsTlbTSCfuVMott6uJ/x08r423gRPHMuQAFeh7jpoq29EJ57P1nMOi68OFe/iKOQynJcI54udygyzk+caZdbO2Fi2YClcfbMtLkPGE+A1nOBxQ36875me5Rfys4Enhq5WE9pNPQkM9sTewRM3D29GjfIwKGiTjnbaO+1xlLLRXlipXLCzrEIvrqM188Bt6HiCvITiNzunjtnLktN+5O8Z9+P9cXeyxkLKRMK0t2ixsFaLctRdVkQci7j3nzSFIY5mOHXUU6U1+tkEMHZ6KKGzgvARmaO/UmIwDTwZDO/xaxgscXDp7yd31jl250briW/Yuz+Mf2Qu4f2/LmKkk1pU4K0011ZSllFEjQjzU1tEVhPWogIfipuzUFoXto3Qr8iMrewnd2EZTPPLlPcYHAyWOBhY3ZXni4mwfsyFMzM97xZqaVEWmuYylt54DQGiddzVhVhMXuTnvHnVQm4SbuVP3BLhfsu7O5NIV9auUlBQUBiQXPqWXKewr3T1VFR1YKZW4+BoffrFg89Ae2MFza2ttFv742rdZc0IKW2NdVQXVhrWYPz5VyUrHL28cLS3ZjAt5qFYchcexQIaWCiW3OCJA4OS8/DwQA5vv5BERETg6ubBuOBfqeQU+hz5Tc7C3MSwTqjhm5xCv2NuZmKI90u9UaG8x+BhsMSBQcl5enpecCUXHh6OVK7KIqUKCgoDEbl3nKgfjUf9j9yGRw4CVOhbLmp3pVzkVFFyCgoKAxGp4NatW2c86n9uueUWg6JT6FsGx8ATBQUFhX5E7jwgXTdyXzgTE5OfybuPpZ8M05PeZAr9j6LkFBQUFM7C0qVLmTJliuG3XET59ttvR/aASZn066Y7nPSTYXouuNybTKH/UZScgoKCwlmQ+8BJ5RUaGmqw1FxdXVGpVAaF1XOPOPlbyqSfDNPTyutNptD/KLGtoKCgcA7ITU9tbW2ZNGmSQWEpXBoMDCXXqYe2cvJPxBNz7BjHfuLiSMmtoEZu2H0+6BpprC4lNa0cjVbfd1uMdOigPp+0rCJyKxoxPN7J90gn+9c880CjoxWtppS01FKqG1s54yo/3XGQU0pxd7wo/HI0ZRTmF3Aiv4Y2cWgY+9xeQ0VuNulJ6RRXFnIiMpLIn5SVcOESyS4Xeb5VuPJsEoU83Ogfk5JL/qDJlBeerKwsMjIyGDNmzAVfBlHh/BkYSk7fCqWb+c/jv+H6efNZcMUVXHHS3cWz72znmFxX63xoSCXp0HqefX4b6fWttBjFvxptE8R9yB9f/h//3pJEpayF9C10FG3g3Sde4NW3t53/Mw80WkqpT1/P88+u51BSqWE/stPSnZZvfMPaLSeUXQjOl4yNrPnwI574zyGKRMtM7jzRWXmIzf/+B3966M98tedTHrtqGVfPX9CjvCwW7iFe35pIcn4ScRv+wf0LruBKg98CVj/zFv8Jq+q6vsJ5UVBQYBhxKXcGl8gtjeT0KzmgRDrDdlo9Jpd2y3t2UfYmU+g/BlYsD1nFzS+sYWd0NNEn3XrefmYl885hu5xecRjHxIW38vab1xLopEZtFP9qVLYQ8hgPBJ3AW3Oc/amiod3cRPT6D6mZGsq4pQvO/5kHGmofnAJv5c23b2XhRJ8LszHr5c7YG1k2wZzllhtZHw3NwgBL3b+RQmsrfG65jWsDbFGPe5DnP9nE/pNl5bhwX/Cna1XU7TjIgd32XL85mgMR0u8Lnr1xFt7llcYbKPQFMTExpKam8uCDDxqc/C1lku4BKlJ+6qCVnjKF/uWi7kKgVquRE9Hp0AqLK4k9EWa4jg7miqWTGe7ujrvBueBo10BF4l7W//U9dupG4Oliiwv5ZB7bw8evbaPOqY7dO2MJ376esJ1r+OjLjWzcuJEshmBt1U5r0Qk27izBzzuHrVuyiT20kfiw7/n42xqcQh3I2fQBMalVlNqMYZij3E4yg33/3khcVhNt/gF49bYXjoloHwhF52xaQHaenuycJoa5Z/H56zm4LF3FrLlBjFTV0pi7h/f/+haff7Oe7zYeJiq9DvMx4wzX1MR/w/q1/+PNj9aJ590iXBy1jj7Yq+uoTo3m48+SqMt4i8++SiOrxRrXMZ5clKmi7TU0lcay9odSbNR5JCZks2vTYUqS3uKtj0Ql/L2Iz3JhbbgOxcc8j6P//Rfr90YSlRRNck4ReeZjDLsQWJqbGC+ocFYs1NiaV9NSX8+esE6mjMxm5+fp1DtPYsbKCYzpyGXzERtmr5jJtKmjCThZXpxF/ikjbVcO+fm2THjqOmb4uePj4YmHqxf+Xs64ynXrFM5KdXU1ycnJht9NTU2UlZWh0WgM1lptbS0lJSWG45aWFhobGyksLDTUa1Km1WopLy83WH5SLsPKc06VybDdBAcHGwamKPQtA0vJbYsnKzeLwuJ04iMiDEt/RWRqaDUTxkRHGfmH97M1xo6AYAdMKhM5cSiK2AZHxoyoZd/XkeSW1GDu5oB5hwlW1fHE5jlhYlaLtimP9T9UEhpaydYvDpKaW4beyR1LCz+CZ/liEruBI7k60s1Hc+VwcbOS3XzwTQ7Vam+Cp47A4wzz5K3t7ajKzqQgdhdFjTUk1S9k4crpolIyoSU7heOfH+GE/BZoaYkVLbS1tlHQ6EbgKCfM63MpLq2hXORzK3NT8cxZJFv4Y2dVh2n2Uf77/n70Pna0d/jgO2Iow0a6Xxwrqq2cxoIj/PuTSgKGVpIZF83BvUl0eDuj1wrlVZ9BTq2KcjM/po82ozbxAMfStOhsXBgyZgS+w8cz3lvZaueXYmltTbuoBLP2fUNVSwFJ1RMYOW02i0KssShPYtN30VRrisjOSCJWlpXoeCJyOrBxVtNemEVRZjQnWuvIqrXF08GVAE9Fwf0Seio5ufpJt0KS3ZGVlZW0tcmvpaJ4iL9SeUnXm0w6eW5vsp4oSq5/GFhKbkMYsYknSM/PIu3ECU5IV2GHs99oQqeNJmiUDSlfHqHOpZGMzCLqG12Y+eQDLLRPJ3JrAZZBi7n66Wd4eMVclo3RsGttGtVaoTCEoshLggULIH5XBFqfecy+91meWD0Gbyt7/GxricnVklZszsJprrQe+oh1HdMYOnUa1461Nz7xabD0wKoxhpqM3XwX5cjEhx9lcbA7/ha5pIcdZc1fk/F5/AZmhExi6lBzOurL2b6xhimrgvHx8cXLfQjDAoYzesxQgqxTWJ9pg7VFOwEd+Rzam0rA/e9z7y3zuUJc86J1E2praa5KZ9MBmDBJFPi8dAorbRj70Hs8fdsyVgbqhDXbSHyRikVLJxDo20Zi7ggmL17NI49dxzw/taLgzgcLRyx0NVgVfcIXe03xWH4bV1wxifFqkR5lCWxau5+M4hwystJJlWUlLZsTtR4Ejg8mwKmUxsowduzLJLXJBofORlra9TR1WuJmp4wMPBfkd7eqqirDtIAL4eRqJ/KvQt8yMJb10sk94dbyh9eacJscyu33hhq26D8VXVMVxevu5Z5/HyHD9zZuefiPvLpcKKGfnStbU0f5z4rPKbG3QBsSRPIuePFF+PRTGPKze8Sx7cWDRMWYMfXT6+DlmUQHv0fInKu5argxyJmoCefIvnBe+cKGF/93K2NdbbCRsu//x5MPrSHNwgzdyTreH2ev63n9yNPM0x1i2+sf8/ZH+8mS/p16dMPv4uG7Apk9RDxrz+t1nXxxaMqhKnUz9/wZ7rgb8vKEqxzGM6+uwFd4m5du5pMvc4iVslcW4ivS47mzpKXCOdIz7p9bwcLZw3DuTWYM/jPa6uH4q1z/52/Z2jqDpXc8yoZHQ5S5QwqXDZdUXjczM8fLdyhq677uchnDkLEavMZs59CRZA5tXoiXoxdD/Ize54vdcJznPs8new9zOCqKKIPbzN6t97NMu5cvX9hGMgt5dIeQhx8matPz3DF1+Hlt+qqg0CuGAVKP8uaaV3lzzhjGHE8mWoiViQQKlwuXkJJroKUplY1rTAlZeT1LR1jSsXsXh6pEY1WOr+6JVg5FSyLJxp1Wfx+GORnlp0WNX3Ag/l62pPznA1KmXom/OM/v1/Tq2NiittLjVhZJgXYIrv7jGDdOutGMHeWOY2c9VXp37P0DmRE6jsBRI/DUVaDRtxj2rrvkKa1BU9NInfFQ4QJSF8fho8f4Zp8wuU3MRF70JMDZDkdXa7R2VoYRxkrnscLlwsAfeBKRSVmrhkZNPifWf8+hosnMuXM+U+waaUpKYVexFSOHVBK+N4n87nPDo4nYk0XJ0BAmT3fHt1NDZLzxm5z46+jly/jJvtgZn0ViKTcJLa8mceMxrO/6HVdO8iHA9hwXU20poiC3iLBEFQtWBuNmrUIlRxK21tNZFMOx9HoK02NIjBPvk5BFUokJXn72lGWnUFOVJeIincToKFJz0onIdybA3xpPR/GsPa9nvNVF4dRvckJz1TU7MevK0cgvlqaadOISayntlnXqKTh2iNyyNLKadDSbiQaDkwUWyne5X07PuJ8zmmH+TqilrLeBJxEi30fkoLHQkJYkZPsOkJmb1lWOwuLJaXfBdUoI84M9kH0hSmooXA4MDCVnWCWjgozYBDLSTpDQPejE4CrQO1uJAqkh77tI7B5+irnBo5jspaOjo44du8sZN6eTxF0RpHYPWknN5URZECvvX86SEBcs6lspqbMjNNSOqio7vAN8GS2sqZ90euqbqCqtIjOjnSl3XM94H1vszzVKtPXUyXvUOxE6fzjOVhaYY4OdozNDR6tJ2LiF2KR44uT75FST3+7PjIVz8G05TG5yOLsOi+fOyad1yDQ8rIcSMsYZDw87cc2e17uIdLSgba4lrdCO8RPtMDGxw8LSnUnT/LEV3qbtlZRUiGBSNn0otmo/7LTHyMuKITK9jTbv6cwcYoOVhfIl6BfTM+6nDcNX5AtLKWssJS0ySuSbdJJPlpU04WqxmzQNbxNRbpJ3s+GY0S9LNKymzGbxdXMYLTK+ouAULhcu/f3kznHQytnozNjM1h0HefBQMN9/dCMTXG2EEuyks0OPrl1nWHHi55hiZmGOmakppkqtoaCgoDDgUJrWRgrzUqmtL+CaW1cxzFpN1/zvQjIPf8QLU6cyW7ipP3EzhLudl36IJ+mM61wpKCgoKFwsLn1LrlMHTbnEnNBi5ezGsJFu57V0V0NRAhVV1dR7XkGwG6gMn+MaqC3KJXlfPAXi6KcLE8sAjoycMY2RAe64XdjoU1BQUFA4BwxKzsvL64IvFnr06FHDMkS/WskpKCgoKCicBpP8/PxOOcterrV2IcnMzDQsYTNy5EijREFBQUFBoW8x6ZSrjSooKCgoKAxClIEnCgoKCgqDFkXJKSgoKCgMWhQlp6CgoKAwaFGUnIKCgoLCIAX+P15tq801TIvxAAAAAElFTkSuQmCC;" vertex="1" parent="1">
          <mxGeometry x="762" y="568" width="441" height="136" as="geometry" />
        </mxCell>
        <mxCell id="5J-S47VIE9dTWKWTMMJz-27" value="Reservation" style="text;html=1;strokeColor=none;fillColor=none;align=center;verticalAlign=middle;whiteSpace=wrap;rounded=0;fontStyle=1" vertex="1" parent="1">
          <mxGeometry x="966.5" y="274" width="60" height="31" as="geometry" />
        </mxCell>
        <mxCell id="5J-S47VIE9dTWKWTMMJz-28" value="Suite_and_Activity" style="text;html=1;strokeColor=none;fillColor=none;align=center;verticalAlign=middle;whiteSpace=wrap;rounded=0;fontStyle=1" vertex="1" parent="1">
          <mxGeometry x="988.5" y="496.5" width="60" height="30" as="geometry" />
        </mxCell>
        <mxCell id="5J-S47VIE9dTWKWTMMJz-29" value="Payment_Info" style="text;html=1;strokeColor=none;fillColor=none;align=center;verticalAlign=middle;whiteSpace=wrap;rounded=0;fontStyle=1" vertex="1" parent="1">
          <mxGeometry x="952.5" y="704" width="60" height="30" as="geometry" />
        </mxCell>
        <mxCell id="5J-S47VIE9dTWKWTMMJz-30" value="Personal" style="text;html=1;strokeColor=none;fillColor=none;align=center;verticalAlign=middle;whiteSpace=wrap;rounded=0;fontStyle=1" vertex="1" parent="1">
          <mxGeometry x="295" y="507" width="60" height="30" as="geometry" />
        </mxCell>
        <mxCell id="5J-S47VIE9dTWKWTMMJz-36" value="RegNo&lt;br&gt;PK" style="text;html=1;strokeColor=none;fillColor=none;align=center;verticalAlign=middle;whiteSpace=wrap;rounded=0;" vertex="1" parent="1">
          <mxGeometry x="580" y="390" width="60" height="30" as="geometry" />
        </mxCell>
        <mxCell id="5J-S47VIE9dTWKWTMMJz-39" value="DATABASE" style="text;html=1;strokeColor=none;fillColor=none;align=center;verticalAlign=middle;whiteSpace=wrap;rounded=0;fontStyle=7;fontSize=20;" vertex="1" parent="1">
          <mxGeometry x="280" y="140" width="60" height="30" as="geometry" />
        </mxCell>
      </root>
    </mxGraphModel>
  </diagram>
</mxfile>
